<svg width="71" height="35" viewBox="0 0 71 35" fill="none" xmlns="http://www.w3.org/2000/svg">
<path d="M14.84 15.135L20.175 16.565C20.395 16.6017 20.5967 16.4917 20.78 16.235C21 15.9783 21.1833 15.5567 21.33 14.97C21.5133 14.3467 21.66 13.595 21.77 12.715C21.88 11.7983 21.935 10.7533 21.935 9.58C21.935 7.19667 21.6783 5.565 21.165 4.685C20.6883 3.805 19.9183 3.43833 18.855 3.585L14.895 4.135V0.0649976H20.065C21.8983 0.0649976 23.475 0.339997 24.795 0.889997C26.1517 1.40333 27.1783 2.33833 27.875 3.695C28.6083 5.015 28.975 6.885 28.975 9.305C28.975 10.1483 28.9383 10.9917 28.865 11.835C28.7917 12.6417 28.6267 13.3383 28.37 13.925C28.2233 14.2183 27.9117 14.64 27.435 15.19C26.995 15.7033 26.4633 16.2533 25.84 16.84C25.2167 17.4267 24.575 17.9767 23.915 18.49C23.2917 19.0033 22.705 19.425 22.155 19.755C21.6417 20.085 21.2567 20.25 21 20.25C20.0833 20.25 19.0933 20.2133 18.03 20.14C17.0033 20.03 15.94 19.9383 14.84 19.865V15.135ZM3.675 4.575L0.54 3.585V0.889997C1.09 0.816664 1.76833 0.724998 2.575 0.614997C3.38167 0.504999 4.18833 0.413332 4.995 0.339997C5.83833 0.229999 6.55333 0.156665 7.14 0.119997C7.76333 0.0833307 8.14833 0.0833307 8.295 0.119997C8.55167 0.156665 8.845 0.34 9.175 0.67C9.505 0.963331 9.78 1.275 10 1.605C10.2567 1.935 10.4033 2.17333 10.44 2.32V30.095L14.73 31.085L13.355 33.725C12.8417 33.7983 12.1817 33.89 11.375 34C10.5683 34.11 9.76167 34.2017 8.955 34.275C8.185 34.385 7.50667 34.4583 6.92 34.495C6.33333 34.5683 5.985 34.5867 5.875 34.55C5.61833 34.5133 5.325 34.33 4.995 34C4.70167 33.7067 4.40833 33.395 4.115 33.065C3.85833 32.735 3.71167 32.4967 3.675 32.35V4.575ZM23.145 33.12C22.6317 31.91 22.0083 30.4617 21.275 28.775C20.5783 27.0517 19.8633 25.255 19.13 23.385C18.4333 21.515 17.7733 19.755 17.15 18.105L24.3 18.05L24.245 18.875C24.8317 20.195 25.455 21.5517 26.115 22.945C26.8117 24.3383 27.4717 25.6583 28.095 26.905C28.755 28.115 29.3417 29.1967 29.855 30.15L32.825 31.305L32.055 34.44C31.2483 34.4767 30.35 34.4767 29.36 34.44C28.4067 34.4033 27.4717 34.3117 26.555 34.165C25.6383 34.055 24.8683 33.9083 24.245 33.725C23.6217 33.5417 23.255 33.34 23.145 33.12ZM14.345 0.0649976H15.995V27.95C15.995 28.17 15.885 28.5733 15.665 29.16C15.445 29.71 15.1333 30.3517 14.73 31.085H13.08V4.245C13.08 3.87833 13.2083 3.31 13.465 2.54C13.7217 1.77 14.015 0.944997 14.345 0.0649976ZM48.3569 0.67H59.7419L59.0269 10.845H55.4519L54.7919 4.96L48.1919 4.245L48.3569 0.67ZM43.9019 30.095L48.1919 31.085L46.8169 33.725C46.1936 33.835 45.4602 33.945 44.6169 34.055C43.8102 34.165 43.0219 34.2567 42.2519 34.33C41.5186 34.4033 40.8769 34.4583 40.3269 34.495C39.7769 34.5683 39.4286 34.5867 39.2819 34.55C39.0619 34.5133 38.7869 34.33 38.4569 34C38.1636 33.7067 37.8702 33.395 37.5769 33.065C37.3202 32.735 37.1736 32.4967 37.1369 32.35V4.575L34.0019 3.585V0.889997C34.5519 0.816664 35.2302 0.724998 36.0369 0.614997C36.8436 0.504999 37.6502 0.413332 38.4569 0.339997C39.3002 0.229999 40.0152 0.156665 40.6019 0.119997C41.2252 0.0833307 41.6102 0.0833307 41.7569 0.119997C42.0136 0.156665 42.3069 0.34 42.6369 0.67C42.9669 0.963331 43.2419 1.275 43.4619 1.605C43.7186 1.935 43.8652 2.17333 43.9019 2.32V30.095ZM47.5319 16.125L55.4519 15.74L54.8469 20.635L47.6969 19.865L47.5319 16.125ZM47.8069 0.67H49.4569V27.95C49.4569 28.17 49.3469 28.5733 49.1269 29.16C48.9069 29.71 48.5952 30.3517 48.1919 31.085H46.5419V4.905C46.5419 4.53833 46.6702 3.97 46.9269 3.2C47.1836 2.39333 47.4769 1.55 47.8069 0.67Z" fill="#09215E"/>
<path d="M62.644 29.93C62.644 29.8567 62.8274 29.6733 63.194 29.38C63.5974 29.05 64.0374 28.7017 64.514 28.335C65.0274 27.9317 65.4857 27.6017 65.889 27.345C66.2924 27.0517 66.5307 26.905 66.604 26.905C66.7874 26.905 67.0624 27.07 67.429 27.4C67.8324 27.73 68.254 28.1333 68.694 28.61C69.134 29.0867 69.5007 29.5267 69.794 29.93C70.124 30.3333 70.2707 30.6267 70.234 30.81L69.959 32.075C69.9224 32.185 69.7207 32.405 69.354 32.735C68.9874 33.0283 68.5657 33.3583 68.089 33.725C67.6124 34.055 67.1724 34.3483 66.769 34.605C66.3657 34.8617 66.0907 34.99 65.944 34.99C65.7974 34.99 65.5224 34.825 65.119 34.495C64.7157 34.165 64.3124 33.78 63.909 33.34C63.5057 32.8633 63.1574 32.4233 62.864 32.02C62.5707 31.6167 62.4424 31.3417 62.479 31.195L62.644 29.93Z" fill="#575CE5"/>
</svg>
