<svg width="188" height="39" viewBox="0 0 188 39" fill="none" xmlns="http://www.w3.org/2000/svg">
<path d="M14.84 19.135L20.175 20.565C20.395 20.6017 20.5967 20.4917 20.78 20.235C21 19.9783 21.1833 19.5567 21.33 18.97C21.5133 18.3467 21.66 17.595 21.77 16.715C21.88 15.7983 21.935 14.7533 21.935 13.58C21.935 11.1967 21.6783 9.565 21.165 8.685C20.6883 7.805 19.9183 7.43833 18.855 7.585L14.895 8.135V4.065H20.065C21.8983 4.065 23.475 4.34 24.795 4.89C26.1517 5.40333 27.1783 6.33833 27.875 7.695C28.6083 9.015 28.975 10.885 28.975 13.305C28.975 14.1483 28.9383 14.9917 28.865 15.835C28.7917 16.6417 28.6267 17.3383 28.37 17.925C28.2233 18.2183 27.9117 18.64 27.435 19.19C26.995 19.7033 26.4633 20.2533 25.84 20.84C25.2167 21.4267 24.575 21.9767 23.915 22.49C23.2917 23.0033 22.705 23.425 22.155 23.755C21.6417 24.085 21.2567 24.25 21 24.25C20.0833 24.25 19.0933 24.2133 18.03 24.14C17.0033 24.03 15.94 23.9383 14.84 23.865V19.135ZM3.675 8.575L0.54 7.585V4.89C1.09 4.81666 1.76833 4.725 2.575 4.615C3.38167 4.505 4.18833 4.41333 4.995 4.34C5.83833 4.23 6.55333 4.15667 7.14 4.12C7.76333 4.08333 8.14833 4.08333 8.295 4.12C8.55167 4.15667 8.845 4.34 9.175 4.67C9.505 4.96333 9.78 5.275 10 5.605C10.2567 5.935 10.4033 6.17333 10.44 6.32V34.095L14.73 35.085L13.355 37.725C12.8417 37.7983 12.1817 37.89 11.375 38C10.5683 38.11 9.76167 38.2017 8.955 38.275C8.185 38.385 7.50667 38.4583 6.92 38.495C6.33333 38.5683 5.985 38.5867 5.875 38.55C5.61833 38.5133 5.325 38.33 4.995 38C4.70167 37.7067 4.40833 37.395 4.115 37.065C3.85833 36.735 3.71167 36.4967 3.675 36.35V8.575ZM23.145 37.12C22.6317 35.91 22.0083 34.4617 21.275 32.775C20.5783 31.0517 19.8633 29.255 19.13 27.385C18.4333 25.515 17.7733 23.755 17.15 22.105L24.3 22.05L24.245 22.875C24.8317 24.195 25.455 25.5517 26.115 26.945C26.8117 28.3383 27.4717 29.6583 28.095 30.905C28.755 32.115 29.3417 33.1967 29.855 34.15L32.825 35.305L32.055 38.44C31.2483 38.4767 30.35 38.4767 29.36 38.44C28.4067 38.4033 27.4717 38.3117 26.555 38.165C25.6383 38.055 24.8683 37.9083 24.245 37.725C23.6217 37.5417 23.255 37.34 23.145 37.12ZM14.345 4.065H15.995V31.95C15.995 32.17 15.885 32.5733 15.665 33.16C15.445 33.71 15.1333 34.3517 14.73 35.085H13.08V8.245C13.08 7.87833 13.2083 7.31 13.465 6.54C13.7217 5.77 14.015 4.945 14.345 4.065ZM38.1819 38.55C38.0352 38.55 37.7969 38.4033 37.4669 38.11C37.1369 37.8533 36.8069 37.56 36.4769 37.23C36.1469 36.9 35.9819 36.68 35.9819 36.57V16.99L33.8919 16.165V13.525C33.8919 13.525 34.1852 13.4883 34.7719 13.415C35.3586 13.305 36.0369 13.1767 36.8069 13.03C37.6136 12.8833 38.3469 12.7733 39.0069 12.7C39.7036 12.59 40.1436 12.535 40.3269 12.535C40.4369 12.535 40.6386 12.6817 40.9319 12.975C41.2252 13.2317 41.5002 13.525 41.7569 13.855C42.0502 14.185 42.1969 14.4233 42.1969 14.57V16.33C42.6002 15.9633 43.0586 15.56 43.5719 15.12C44.0852 14.68 44.5802 14.2767 45.0569 13.91C45.5702 13.5067 46.0102 13.1767 46.3769 12.92C46.7436 12.6633 46.9452 12.535 46.9819 12.535C48.7786 12.535 50.3186 12.8283 51.6019 13.415C52.9219 13.965 53.8752 14.9367 54.4619 16.33C54.8652 15.9633 55.3052 15.56 55.7819 15.12C56.2952 14.68 56.7719 14.2767 57.2119 13.91C57.6886 13.5067 58.0919 13.1767 58.4219 12.92C58.7519 12.6633 58.9536 12.535 59.0269 12.535C60.9336 12.535 62.5469 12.7917 63.8669 13.305C65.1869 13.8183 66.1953 14.735 66.8919 16.055C67.6252 17.3383 67.9919 19.1167 67.9919 21.39V34.095L69.9719 34.92V37.505C69.9719 37.505 69.6786 37.56 69.0919 37.67C68.5419 37.78 67.8636 37.89 67.0569 38C66.2869 38.1467 65.5719 38.275 64.9119 38.385C64.2886 38.495 63.9036 38.55 63.7569 38.55C63.6469 38.55 63.4086 38.4033 63.0419 38.11C62.6752 37.8533 62.3269 37.56 61.9969 37.23C61.7036 36.9 61.5569 36.68 61.5569 36.57V21.445C61.5569 20.4183 61.4286 19.63 61.1719 19.08C60.9519 18.53 60.6769 18.145 60.3469 17.925C60.0169 17.6683 59.7052 17.5217 59.4119 17.485C59.1186 17.4117 58.8802 17.375 58.6969 17.375C58.6236 17.375 58.4036 17.4667 58.0369 17.65C57.7069 17.7967 57.3402 17.98 56.9369 18.2C56.5336 18.42 56.1669 18.6217 55.8369 18.805C55.5069 18.9883 55.3052 19.0983 55.2319 19.135V34.095L57.1569 34.92V37.505C57.1569 37.505 56.8636 37.56 56.2769 37.67C55.7269 37.78 55.0669 37.89 54.2969 38C53.5269 38.1467 52.8119 38.275 52.1519 38.385C51.5286 38.495 51.1436 38.55 50.9969 38.55C50.8869 38.55 50.6486 38.4033 50.2819 38.11C49.9152 37.8533 49.5669 37.56 49.2369 37.23C48.9436 36.9 48.7969 36.68 48.7969 36.57V21.445C48.7969 20.0883 48.6136 19.135 48.2469 18.585C47.9169 17.9983 47.5319 17.65 47.0919 17.54C46.6519 17.43 46.3219 17.375 46.1019 17.375C45.9919 17.375 45.7536 17.4667 45.3869 17.65C45.0569 17.7967 44.6719 17.98 44.2319 18.2C43.7919 18.42 43.4069 18.6217 43.0769 18.805C42.7469 18.9883 42.5269 19.0983 42.4169 19.135V34.095L44.3419 34.92V37.505C44.3419 37.505 44.0486 37.56 43.4619 37.67C42.9119 37.78 42.2519 37.89 41.4819 38C40.7119 38.1467 39.9969 38.275 39.3369 38.385C38.7136 38.495 38.3286 38.55 38.1819 38.55ZM87.3511 4.67H98.7361L98.0211 14.845H94.4461L93.7861 8.96L87.1861 8.245L87.3511 4.67ZM82.8961 34.095L87.1861 35.085L85.8111 37.725C85.1877 37.835 84.4544 37.945 83.6111 38.055C82.8044 38.165 82.0161 38.2567 81.2461 38.33C80.5127 38.4033 79.8711 38.4583 79.3211 38.495C78.7711 38.5683 78.4227 38.5867 78.2761 38.55C78.0561 38.5133 77.7811 38.33 77.4511 38C77.1577 37.7067 76.8644 37.395 76.5711 37.065C76.3144 36.735 76.1677 36.4967 76.1311 36.35V8.575L72.9961 7.585V4.89C73.5461 4.81666 74.2244 4.725 75.0311 4.615C75.8377 4.505 76.6444 4.41333 77.4511 4.34C78.2944 4.23 79.0094 4.15667 79.5961 4.12C80.2194 4.08333 80.6044 4.08333 80.7511 4.12C81.0077 4.15667 81.3011 4.34 81.6311 4.67C81.9611 4.96333 82.2361 5.275 82.4561 5.605C82.7127 5.935 82.8594 6.17333 82.8961 6.32V34.095ZM86.5261 20.125L94.4461 19.74L93.8411 24.635L86.6911 23.865L86.5261 20.125ZM86.8011 4.67H88.4511V31.95C88.4511 32.17 88.3411 32.5733 88.1211 33.16C87.9011 33.71 87.5894 34.3517 87.1861 35.085H85.5361V8.905C85.5361 8.53833 85.6644 7.97 85.9211 7.2C86.1777 6.39333 86.4711 5.55 86.8011 4.67ZM113.463 38.55C109.503 38.55 106.478 37.5967 104.388 35.69C102.298 33.7467 101.253 30.7217 101.253 26.615C101.253 24.965 101.381 23.37 101.638 21.83C101.931 20.29 102.261 19.1533 102.628 18.42C102.958 17.98 103.526 17.43 104.333 16.77C105.176 16.0733 106.093 15.4133 107.083 14.79C108.11 14.1667 109.045 13.635 109.888 13.195C110.731 12.755 111.336 12.535 111.703 12.535C115.663 12.535 118.633 13.5617 120.613 15.615C122.63 17.6317 123.638 20.51 123.638 24.25C123.638 26.0833 123.491 27.77 123.198 29.31C122.941 30.85 122.648 32.0417 122.318 32.885C122.025 33.2883 121.475 33.8017 120.668 34.425C119.861 35.0483 118.963 35.69 117.973 36.35C116.983 36.9733 116.066 37.505 115.223 37.945C114.38 38.3483 113.793 38.55 113.463 38.55ZM113.628 34.975C113.738 34.9383 113.976 34.8467 114.343 34.7C114.746 34.5167 115.113 34.3333 115.443 34.15C115.81 33.9667 115.993 33.875 115.993 33.875C116.176 33.0317 116.36 31.9133 116.543 30.52C116.726 29.1267 116.818 27.2933 116.818 25.02C116.818 23.3333 116.635 21.83 116.268 20.51C115.901 19.1533 115.315 18.09 114.508 17.32C113.738 16.5133 112.73 16.11 111.483 16.11C111.19 16.11 110.896 16.1467 110.603 16.22C110.31 16.2567 109.998 16.33 109.668 16.44C109.228 16.66 108.843 17.595 108.513 19.245C108.22 20.895 108.073 23.095 108.073 25.845C108.073 28.3017 108.348 30.2083 108.898 31.565C109.485 32.885 110.2 33.7833 111.043 34.26C111.923 34.7367 112.785 34.975 113.628 34.975ZM130.827 38.55C130.717 38.55 130.479 38.4033 130.112 38.11C129.782 37.8533 129.452 37.56 129.122 37.23C128.829 36.9 128.682 36.68 128.682 36.57V6.54L126.592 5.715V3.13C126.592 3.13 126.794 3.11167 127.197 3.075C127.6 3.00166 128.095 2.91 128.682 2.8C129.305 2.69 129.929 2.58 130.552 2.47C131.212 2.36 131.78 2.28666 132.257 2.25C132.734 2.17667 133.027 2.14 133.137 2.14C133.284 2.14 133.504 2.28667 133.797 2.58C134.127 2.83666 134.42 3.13 134.677 3.46C134.97 3.75333 135.117 3.97333 135.117 4.12V34.095L137.152 34.92V37.505C137.152 37.505 136.859 37.56 136.272 37.67C135.685 37.78 135.007 37.89 134.237 38C133.467 38.1467 132.752 38.275 132.092 38.385C131.432 38.495 131.01 38.55 130.827 38.55ZM144.535 38.55C144.425 38.55 144.168 38.385 143.765 38.055C143.361 37.7617 142.976 37.45 142.61 37.12C142.28 36.79 142.115 36.5517 142.115 36.405V16.825L140.025 16.11V13.525C140.025 13.525 140.3 13.47 140.85 13.36C141.436 13.25 142.133 13.14 142.94 13.03C143.746 12.8833 144.48 12.7733 145.14 12.7C145.8 12.59 146.203 12.535 146.35 12.535C146.496 12.535 146.735 12.6817 147.065 12.975C147.431 13.2683 147.761 13.5983 148.055 13.965C148.385 14.295 148.55 14.5517 148.55 14.735V34.315L150.585 34.92V37.505C150.585 37.505 150.31 37.56 149.76 37.67C149.21 37.78 148.55 37.89 147.78 38C147.046 38.1467 146.35 38.275 145.69 38.385C145.066 38.495 144.681 38.55 144.535 38.55ZM141.565 3.79C141.565 3.68 141.748 3.47833 142.115 3.185C142.518 2.855 142.958 2.48833 143.435 2.085C143.948 1.68166 144.406 1.35167 144.81 1.095C145.25 0.801666 145.506 0.654999 145.58 0.654999C145.763 0.654999 146.056 0.819999 146.46 1.15C146.863 1.48 147.285 1.88333 147.725 2.36C148.165 2.83666 148.531 3.295 148.825 3.735C149.155 4.13833 149.301 4.43166 149.265 4.615L148.99 5.88C148.953 6.02666 148.751 6.265 148.385 6.595C148.018 6.88833 147.596 7.21833 147.12 7.585C146.643 7.95166 146.185 8.28166 145.745 8.575C145.341 8.83167 145.085 8.96 144.975 8.96C144.791 8.96 144.498 8.795 144.095 8.465C143.691 8.09833 143.27 7.67666 142.83 7.2C142.426 6.72333 142.078 6.28333 141.785 5.88C141.491 5.47666 141.345 5.20166 141.345 5.055L141.565 3.79ZM165.992 38.55C162.032 38.55 159.007 37.5967 156.917 35.69C154.827 33.7467 153.782 30.7217 153.782 26.615C153.782 24.965 153.911 23.37 154.167 21.83C154.461 20.29 154.791 19.1533 155.157 18.42C155.487 17.98 156.056 17.43 156.862 16.77C157.706 16.0733 158.622 15.4133 159.612 14.79C160.639 14.1667 161.574 13.635 162.417 13.195C163.261 12.755 163.866 12.535 164.232 12.535C168.192 12.535 171.162 13.5617 173.142 15.615C175.159 17.6317 176.167 20.51 176.167 24.25C176.167 26.0833 176.021 27.77 175.727 29.31C175.471 30.85 175.177 32.0417 174.847 32.885C174.554 33.2883 174.004 33.8017 173.197 34.425C172.391 35.0483 171.492 35.69 170.502 36.35C169.512 36.9733 168.596 37.505 167.752 37.945C166.909 38.3483 166.322 38.55 165.992 38.55ZM166.157 34.975C166.267 34.9383 166.506 34.8467 166.872 34.7C167.276 34.5167 167.642 34.3333 167.972 34.15C168.339 33.9667 168.522 33.875 168.522 33.875C168.706 33.0317 168.889 31.9133 169.072 30.52C169.256 29.1267 169.347 27.2933 169.347 25.02C169.347 23.3333 169.164 21.83 168.797 20.51C168.431 19.1533 167.844 18.09 167.037 17.32C166.267 16.5133 165.259 16.11 164.012 16.11C163.719 16.11 163.426 16.1467 163.132 16.22C162.839 16.2567 162.527 16.33 162.197 16.44C161.757 16.66 161.372 17.595 161.042 19.245C160.749 20.895 160.602 23.095 160.602 25.845C160.602 28.3017 160.877 30.2083 161.427 31.565C162.014 32.885 162.729 33.7833 163.572 34.26C164.452 34.7367 165.314 34.975 166.157 34.975Z" fill="#09215E"/>
<path d="M180.056 33.93C180.056 33.8567 180.239 33.6733 180.606 33.38C181.009 33.05 181.449 32.7017 181.926 32.335C182.439 31.9317 182.898 31.6017 183.301 31.345C183.704 31.0517 183.943 30.905 184.016 30.905C184.199 30.905 184.474 31.07 184.841 31.4C185.244 31.73 185.666 32.1333 186.106 32.61C186.546 33.0867 186.913 33.5267 187.206 33.93C187.536 34.3333 187.683 34.6267 187.646 34.81L187.371 36.075C187.334 36.185 187.133 36.405 186.766 36.735C186.399 37.0283 185.978 37.3583 185.501 37.725C185.024 38.055 184.584 38.3483 184.181 38.605C183.778 38.8617 183.503 38.99 183.356 38.99C183.209 38.99 182.934 38.825 182.531 38.495C182.128 38.165 181.724 37.78 181.321 37.34C180.918 36.8633 180.569 36.4233 180.276 36.02C179.983 35.6167 179.854 35.3417 179.891 35.195L180.056 33.93Z" fill="#575CE5"/>
</svg>
