<svg width="37" height="18" viewBox="0 0 37 18" fill="none" xmlns="http://www.w3.org/2000/svg">
<path d="M18.4248 0.874023H19.5234C22.5182 0.874023 24.3086 1.89128 24.8945 3.92578C25.0817 4.58496 25.1753 5.34587 25.1753 6.2085V17.5H18.4248V0.874023ZM9.36719 0.874023H16.1543V17.5H9.36719V0.874023ZM0.285156 0.874023H7.07227V17.5H0.285156V0.874023Z" fill="#1C4684"/>
<path d="M32.5477 17.78C31.3344 17.78 30.3544 17.4533 29.6077 16.8C28.8844 16.1233 28.5227 15.2717 28.5227 14.245C28.5227 13.2183 28.8844 12.3667 29.6077 11.69C30.3544 11.0133 31.3344 10.675 32.5477 10.675C33.7377 10.675 34.6944 11.0133 35.4177 11.69C36.1644 12.3667 36.5377 13.2183 36.5377 14.245C36.5377 15.2483 36.1644 16.0883 35.4177 16.765C34.6944 17.4417 33.7377 17.78 32.5477 17.78Z" fill="#575CE5"/>
</svg>
