<svg width="131" height="131" viewBox="0 0 131 131" fill="none" xmlns="http://www.w3.org/2000/svg">
<path fill-rule="evenodd" clip-rule="evenodd" d="M131 22.0346C131 32.9586 123.051 42.0256 112.621 43.7673C123.051 45.5089 131 54.5763 131 65.5C131 76.4237 123.051 85.4911 112.621 87.2327C123.051 88.9744 131 98.0417 131 108.965C131 121.135 121.135 131 108.965 131C98.0417 131 88.9744 123.051 87.2327 112.621C85.4911 123.051 76.4237 131 65.5 131C54.5763 131 45.5089 123.051 43.7673 112.621C42.0256 123.051 32.9586 131 22.0346 131C9.86521 131 0 121.135 0 108.965C0 98.0417 7.94941 88.9744 18.3789 87.2327C7.94941 85.4911 0 76.4237 0 65.5C0 54.5763 7.94941 45.5089 18.3789 43.7673C7.94941 42.0256 0 32.9586 0 22.0346C0 9.86521 9.86521 0 22.0346 0C32.9586 0 42.0256 7.94941 43.7673 18.3789C45.5089 7.94941 54.5763 0 65.5 0C76.4237 0 85.4911 7.94941 87.2327 18.3789C88.9744 7.94941 98.0417 0 108.965 0C121.135 0 131 9.86521 131 22.0346ZM43.7673 25.6902C42.2243 34.9308 34.9308 42.2243 25.6902 43.7673C34.9308 45.3103 42.2243 52.604 43.7673 61.8447C45.3103 52.604 52.604 45.3103 61.8447 43.7673C52.604 42.2243 45.3103 34.9308 43.7673 25.6902ZM69.1553 43.7673C78.3959 42.2243 85.6897 34.9308 87.2327 25.6902C88.7757 34.9308 96.0695 42.2243 105.31 43.7673C96.0695 45.3103 88.7757 52.604 87.2327 61.8447C85.6897 52.604 78.3959 45.3103 69.1553 43.7673ZM87.2327 105.31C88.7757 96.0695 96.0695 88.7757 105.31 87.2327C96.0695 85.6897 88.7757 78.3959 87.2327 69.1553C85.6897 78.3959 78.3959 85.6897 69.1553 87.2327C78.3959 88.7757 85.6897 96.0695 87.2327 105.31ZM43.7673 69.1553C45.3103 78.3959 52.604 85.6897 61.8447 87.2327C52.604 88.7757 45.3103 96.0695 43.7673 105.31C42.2243 96.0695 34.9308 88.7757 25.6902 87.2327C34.9308 85.6897 42.2243 78.3959 43.7673 69.1553Z" fill="#0066FF"/>
</svg>
