<svg xmlns="http://www.w3.org/2000/svg" width="1440" height="1636" fill="none" viewBox="0 0 1440 1636"><path fill="#fff" d="M0 0h1440v1636H0z"/><path fill="#F4F4F4" d="M373.387 48.317h32.812V89.7h-8.203c-5.371 0-9.326-.561-11.865-1.684-2.539-1.172-4.541-2.466-6.006-3.882-1.416-1.465-2.637-3.37-3.662-5.713-2.051-4.785-3.076-11.426-3.076-19.922v-10.18Zm-47.388 0h39.404V148h-39.404V48.317Zm-41.016 0h32.813v10.181c0 12.549-2.271 21.094-6.812 25.635-3.711 3.71-9.643 5.566-17.797 5.566h-8.204V48.317Zm161.573 4.908c-16.162 0-24.244-5.054-24.244-15.162 0-5.175 1.929-8.886 5.787-11.132 3.857-2.295 9.741-3.443 17.651-3.443s13.745 1.148 17.505 3.443c3.76 2.246 5.64 5.981 5.64 11.206 0 5.175-1.758 8.984-5.274 11.425-3.467 2.442-9.155 3.663-17.065 3.663Zm-20.142 20.141h39.404V148h-39.404V73.366Zm171.753-.073h6.592c17.969 0 28.686 6.103 32.153 18.31 1.172 3.956 1.758 8.521 1.758 13.697V148h-40.503V73.293Zm-54.346 0h6.592c17.969 0 28.687 6.103 32.153 18.31 1.172 3.956 1.758 8.521 1.758 13.697V148h-40.503V73.293Zm-54.492 0h40.723V148h-40.723V73.293Zm224.121 0h4.834c18.457 0 29.712 6.25 33.765 18.75 1.318 4.15 1.977 8.96 1.977 14.429v8.056H713.45V73.293Zm-52.881 38.232c0-5.371.708-10.351 2.124-14.941 1.416-4.639 3.614-8.691 6.592-12.158 6.445-7.422 15.674-11.133 27.686-11.133h5.639V148h-3.808c-12.305 0-21.826-3.369-28.565-10.107-6.445-6.446-9.668-15.235-9.668-26.368Zm52.881 17.359h36.621v2.051c0 4.541-1.635 8.374-4.907 11.499-4.004 3.711-9.692 5.566-17.065 5.566H713.45v-19.116Zm59.839-80.567h39.404v99.537h-39.404V48.317Zm52.002 92.579c0-10.108 5.859-16.968 17.578-20.582 4.492-1.367 10.278-2.05 17.359-2.05h5.786V148h-40.723v-7.104Zm82.837-87.671c-16.162 0-24.243-5.054-24.243-15.162 0-5.175 1.928-8.886 5.786-11.132 3.857-2.295 9.741-3.443 17.651-3.443s13.745 1.148 17.505 3.443c3.76 2.246 5.64 5.981 5.64 11.206 0 5.175-1.758 8.984-5.274 11.425-3.466 2.442-9.155 3.663-17.065 3.663Zm-20.142 20.141h39.405V148h-39.405V73.366Zm112.864-.073h6.59c17.97 0 28.69 6.103 32.16 18.31 1.17 3.956 1.76 8.521 1.76 13.697V148h-40.51V73.293Zm-52.805 0h40.723V148h-40.723V73.293Zm165.165 0h4.83c18.46 0 29.71 6.25 33.76 18.75 1.32 4.15 1.98 8.96 1.98 14.429v8.056h-40.57V73.293Zm-52.88 38.232c0-5.371.7-10.351 2.12-14.941 1.42-4.639 3.61-8.691 6.59-12.158 6.45-7.422 15.67-11.133 27.69-11.133h5.64V148h-3.81c-12.31 0-21.83-3.369-28.57-10.107-6.44-6.446-9.66-15.235-9.66-26.368Zm52.88 17.359h36.62v2.051c0 4.541-1.64 8.374-4.91 11.499-4 3.711-9.69 5.566-17.07 5.566h-14.64v-19.116Z"/><path fill="#136A4A" d="M529.764 95.308c.817.033 1.862.065 3.136.098s2.548.049 3.822.049c1.601 0 3.12-.016 4.557-.049 1.437-.033 2.45-.049 3.038-.049 4.377 0 7.628.898 9.751 2.695 2.156 1.797 3.234 4.116 3.234 6.958 0 1.176-.212 2.417-.637 3.724-.425 1.274-1.16 2.466-2.205 3.577-1.045 1.078-2.483 1.96-4.312 2.646-1.797.686-4.1 1.029-6.909 1.029h-4.9v-.98h4.41c2.058 0 3.626-.441 4.704-1.323 1.111-.882 1.846-2.042 2.205-3.479.392-1.437.588-2.989.588-4.655 0-3.103-.506-5.423-1.519-6.958-1.013-1.535-2.76-2.303-5.243-2.303-1.339 0-2.221.278-2.646.833-.392.555-.588 1.682-.588 3.381v24.108c0 1.241.131 2.172.392 2.793s.768 1.029 1.519 1.225c.751.196 1.829.31 3.234.343V130c-.947-.065-2.172-.098-3.675-.098a212.233 212.233 0 0 0-4.655-.049c-1.372 0-2.695.016-3.969.049a49.41 49.41 0 0 0-3.332.098v-.98c1.078-.065 1.878-.196 2.401-.392.555-.196.915-.588 1.078-1.176.196-.588.294-1.47.294-2.646v-24.304c0-1.209-.098-2.09-.294-2.646-.163-.588-.523-.98-1.078-1.176-.523-.229-1.323-.36-2.401-.392v-.98Zm46.259 8.673c1.013 0 1.846.212 2.499.637.686.425 1.193.964 1.519 1.617.327.653.49 1.339.49 2.058 0 1.078-.326 1.976-.98 2.695-.62.719-1.453 1.078-2.499 1.078-.98 0-1.78-.261-2.401-.784-.62-.523-.931-1.241-.931-2.156 0-.817.196-1.503.588-2.058a5.432 5.432 0 0 1 1.421-1.323c-.359-.196-.767-.261-1.225-.196a4.1 4.1 0 0 0-2.156.833 6.824 6.824 0 0 0-1.666 1.813 9.92 9.92 0 0 0-1.078 2.303 8.747 8.747 0 0 0-.343 2.352v12.103c0 1.601.409 2.679 1.225 3.234.817.523 2.009.784 3.577.784V130c-.751-.033-1.845-.065-3.283-.098a95.464 95.464 0 0 0-4.41-.098c-1.274 0-2.548.033-3.822.098-1.241.033-2.172.065-2.793.098v-1.029c1.209 0 2.058-.245 2.548-.735.523-.49.784-1.421.784-2.793v-15.435c0-1.47-.245-2.548-.735-3.234-.457-.719-1.323-1.078-2.597-1.078v-1.029c1.046.098 2.058.147 3.038.147 1.209 0 2.352-.049 3.43-.147a24.22 24.22 0 0 0 3.038-.539v5.096c.392-.915.899-1.764 1.519-2.548a8.098 8.098 0 0 1 2.303-1.911 5.828 5.828 0 0 1 2.94-.784Zm17.903 0c2.254 0 4.247.457 5.978 1.372 1.764.882 3.152 2.303 4.165 4.263 1.045 1.96 1.568 4.541 1.568 7.742 0 3.201-.523 5.782-1.568 7.742-1.013 1.96-2.401 3.381-4.165 4.263-1.731.882-3.724 1.323-5.978 1.323-2.254 0-4.263-.441-6.027-1.323-1.764-.882-3.152-2.303-4.165-4.263s-1.519-4.541-1.519-7.742c0-3.201.506-5.782 1.519-7.742s2.401-3.381 4.165-4.263c1.764-.915 3.773-1.372 6.027-1.372Zm0 .98c-1.535 0-2.793.98-3.773 2.94-.947 1.927-1.421 5.08-1.421 9.457 0 4.377.474 7.53 1.421 9.457.98 1.927 2.238 2.891 3.773 2.891 1.503 0 2.744-.964 3.724-2.891s1.47-5.08 1.47-9.457c0-4.377-.49-7.53-1.47-9.457-.98-1.96-2.221-2.94-3.724-2.94Zm12.475 34.251v-.833c1.731-.065 3.071-.784 4.018-2.156.98-1.339 1.47-3.332 1.47-5.978v-20.237c0-1.47-.229-2.548-.686-3.234-.457-.719-1.339-1.078-2.646-1.078v-1.029c1.045.098 2.058.147 3.038.147 1.241 0 2.401-.049 3.479-.147a24.52 24.52 0 0 0 2.989-.539v20.923c0 1.764-.114 3.348-.343 4.753-.229 1.405-.604 2.646-1.127 3.724a9.79 9.79 0 0 1-2.009 2.891c-.817.817-1.895 1.486-3.234 2.009-1.339.523-2.989.784-4.949.784Zm8.134-47.04c1.176 0 2.14.327 2.891.98.751.653 1.127 1.519 1.127 2.597s-.376 1.944-1.127 2.597-1.715.98-2.891.98-2.14-.327-2.891-.98c-.751-.653-1.127-1.519-1.127-2.597s.376-1.944 1.127-2.597 1.715-.98 2.891-.98Zm20.733 11.809c2.874 0 5.128.866 6.762 2.597 1.633 1.731 2.45 4.492 2.45 8.281h-16.513l-.049-.931h10.878c.065-1.601-.033-3.071-.294-4.41-.262-1.372-.686-2.466-1.274-3.283-.556-.817-1.291-1.225-2.205-1.225-1.242 0-2.32.735-3.234 2.205-.915 1.437-1.487 3.806-1.715 7.105l.196.294c-.066.425-.115.882-.147 1.372v1.47c0 2.254.326 4.116.98 5.586.653 1.47 1.502 2.548 2.548 3.234 1.045.686 2.123 1.029 3.234 1.029.751 0 1.519-.114 2.303-.343.784-.229 1.551-.653 2.303-1.274.751-.621 1.437-1.503 2.058-2.646l.931.392c-.36 1.143-.964 2.287-1.813 3.43-.817 1.111-1.879 2.025-3.185 2.744-1.307.719-2.842 1.078-4.606 1.078-2.222 0-4.182-.49-5.88-1.47-1.699-.98-3.022-2.434-3.969-4.361-.948-1.96-1.421-4.345-1.421-7.154 0-2.973.49-5.472 1.47-7.497 1.012-2.025 2.401-3.561 4.165-4.606 1.764-1.078 3.773-1.617 6.027-1.617Zm24.935 0c1.208 0 2.319.147 3.332.441 1.045.261 1.943.637 2.695 1.127a5.645 5.645 0 0 1 1.862 1.862c.457.719.686 1.519.686 2.401 0 1.078-.327 1.944-.98 2.597-.654.653-1.47.98-2.45.98-1.013 0-1.846-.294-2.499-.882-.621-.588-.931-1.372-.931-2.352 0-.947.277-1.731.833-2.352a3.918 3.918 0 0 1 2.009-1.225c-.294-.425-.752-.768-1.372-1.029a4.748 4.748 0 0 0-2.058-.441c-.98 0-1.862.261-2.646.784-.784.49-1.47 1.241-2.058 2.254-.556.98-.997 2.205-1.323 3.675-.294 1.437-.441 3.103-.441 4.998 0 2.646.31 4.737.931 6.272.653 1.535 1.486 2.63 2.499 3.283 1.012.621 2.09.931 3.234.931.686 0 1.421-.131 2.205-.392s1.551-.702 2.303-1.323c.784-.621 1.486-1.503 2.107-2.646l.931.343c-.36 1.143-.948 2.287-1.764 3.43-.784 1.143-1.813 2.091-3.087 2.842-1.274.751-2.826 1.127-4.655 1.127-2.091 0-3.986-.474-5.684-1.421-1.699-.98-3.055-2.45-4.067-4.41-.98-1.96-1.47-4.394-1.47-7.301 0-2.875.506-5.308 1.519-7.301 1.012-2.025 2.417-3.577 4.214-4.655 1.829-1.078 3.871-1.617 6.125-1.617Zm20.882-7.35v8.085h6.272v.98h-6.272v19.502c0 1.176.212 2.009.637 2.499.424.49 1.029.735 1.813.735.751 0 1.437-.278 2.058-.833.62-.588 1.176-1.552 1.666-2.891l.882.392c-.49 1.601-1.258 2.94-2.303 4.018-1.013 1.045-2.45 1.568-4.312 1.568-1.111 0-2.058-.147-2.842-.441a5.402 5.402 0 0 1-1.96-1.176 5.888 5.888 0 0 1-1.47-2.695c-.229-1.045-.343-2.434-.343-4.165v-16.513h-4.312v-.98h4.312v-6.811a20.262 20.262 0 0 0 3.283-.343 12.474 12.474 0 0 0 2.891-.931Zm47.414-1.323c-.13 1.503-.228 2.973-.294 4.41a154.237 154.237 0 0 0-.049 3.234c0 .751.017 1.454.049 2.107.033.653.066 1.225.098 1.715h-1.127c-.457-2.613-1.012-4.655-1.666-6.125-.653-1.503-1.519-2.58-2.597-3.234-1.045-.653-2.433-.98-4.165-.98h-1.568v27.93c0 1.339.115 2.336.343 2.989.262.653.768 1.094 1.519 1.323.752.196 1.846.31 3.283.343v.98c-.98-.065-2.254-.098-3.822-.098a228.28 228.28 0 0 0-4.802-.049c-1.698 0-3.299.016-4.802.049-1.47 0-2.662.033-3.577.098v-.98c1.405-.033 2.483-.147 3.234-.343.752-.229 1.258-.67 1.519-1.323.262-.653.392-1.65.392-2.989v-27.93h-1.617c-1.698 0-3.087.327-4.165.98-1.078.653-1.943 1.731-2.597 3.234-.653 1.47-1.192 3.512-1.617 6.125h-1.127c.066-.49.098-1.062.098-1.715.033-.653.049-1.356.049-2.107 0-.751-.032-1.829-.098-3.234a68.3 68.3 0 0 0-.245-4.41c1.438.033 3.022.065 4.753.098 1.732.033 3.463.049 5.194.049h9.457c1.732 0 3.463-.016 5.194-.049 1.732-.033 3.316-.065 4.753-.098Zm8.641-3.136c1.176 0 2.14.327 2.891.98.751.653 1.127 1.519 1.127 2.597s-.376 1.944-1.127 2.597-1.715.98-2.891.98-2.14-.327-2.891-.98c-.751-.653-1.127-1.519-1.127-2.597s.376-1.944 1.127-2.597 1.715-.98 2.891-.98Zm3.43 11.956v21.315c0 1.372.245 2.303.735 2.793.523.49 1.388.735 2.597.735V130c-.588-.033-1.486-.065-2.695-.098a68.445 68.445 0 0 0-7.35 0c-1.241.033-2.172.065-2.793.098v-1.029c1.209 0 2.058-.245 2.548-.735.523-.49.784-1.421.784-2.793v-15.386c0-1.503-.245-2.597-.735-3.283-.457-.719-1.323-1.078-2.597-1.078v-1.029c1.045.098 2.058.147 3.038.147 1.209 0 2.352-.049 3.43-.147a24.254 24.254 0 0 0 3.038-.539Zm22.815-.147c1.274 0 2.336.18 3.185.539.882.359 1.568.817 2.058 1.372.588.621.997 1.454 1.225 2.499.229 1.013.343 2.303.343 3.871v13.181c0 1.372.229 2.303.686 2.793.49.49 1.307.735 2.45.735V130c-.588-.033-1.47-.065-2.646-.098a62.182 62.182 0 0 0-3.43-.098 58.73 58.73 0 0 0-3.43.098 93.615 93.615 0 0 0-2.45.098v-1.029c.948 0 1.617-.245 2.009-.735.425-.49.637-1.421.637-2.793v-14.847c0-.882-.065-1.666-.196-2.352-.13-.719-.408-1.274-.833-1.666-.424-.425-1.078-.637-1.96-.637a4.586 4.586 0 0 0-2.744.882c-.816.588-1.47 1.405-1.96 2.45-.457 1.013-.686 2.156-.686 3.43v12.74c0 1.372.196 2.303.588 2.793.392.49 1.078.735 2.058.735V130a93.426 93.426 0 0 0-2.45-.098 52.106 52.106 0 0 0-3.234-.098c-1.208 0-2.433.033-3.675.098-1.241.033-2.172.065-2.793.098v-1.029c1.209 0 2.058-.245 2.548-.735.523-.49.784-1.421.784-2.793v-15.435c0-1.47-.245-2.548-.735-3.234-.457-.719-1.323-1.078-2.597-1.078v-1.029c1.046.098 2.058.147 3.038.147 1.209 0 2.352-.049 3.43-.147a24.22 24.22 0 0 0 3.038-.539v4.9c.817-1.797 1.911-3.087 3.283-3.871a8.838 8.838 0 0 1 4.459-1.176Zm14.749 0c1.274 0 2.336.18 3.185.539.882.359 1.568.817 2.058 1.372.588.621.997 1.454 1.225 2.499.229 1.013.343 2.303.343 3.871v13.181c0 1.372.245 2.303.735 2.793.523.49 1.389.735 2.597.735V130c-.588-.033-1.502-.065-2.744-.098a65.7 65.7 0 0 0-3.528-.098 58.73 58.73 0 0 0-3.43.098 93.615 93.615 0 0 0-2.45.098v-1.029c.948 0 1.617-.245 2.009-.735.425-.49.637-1.421.637-2.793v-14.847c0-.882-.081-1.666-.245-2.352-.13-.719-.424-1.274-.882-1.666-.457-.425-1.143-.637-2.058-.637-1.012 0-1.927.31-2.744.931-.816.621-1.47 1.454-1.96 2.499-.457 1.013-.702 2.156-.735 3.43l-.245-3.528c.882-2.025 2.058-3.414 3.528-4.165a10.196 10.196 0 0 1 4.704-1.127Zm24.423 0c2.874 0 5.128.866 6.762 2.597 1.633 1.731 2.45 4.492 2.45 8.281h-16.513l-.049-.931h10.878c.065-1.601-.033-3.071-.294-4.41-.262-1.372-.686-2.466-1.274-3.283-.556-.817-1.291-1.225-2.205-1.225-1.242 0-2.32.735-3.234 2.205-.915 1.437-1.487 3.806-1.715 7.105l.196.294c-.066.425-.115.882-.147 1.372v1.47c0 2.254.326 4.116.98 5.586.653 1.47 1.502 2.548 2.548 3.234 1.045.686 2.123 1.029 3.234 1.029.751 0 1.519-.114 2.303-.343.784-.229 1.551-.653 2.303-1.274.751-.621 1.437-1.503 2.058-2.646l.931.392c-.36 1.143-.964 2.287-1.813 3.43-.817 1.111-1.879 2.025-3.185 2.744-1.307.719-2.842 1.078-4.606 1.078-2.222 0-4.182-.49-5.88-1.47-1.699-.98-3.022-2.434-3.969-4.361-.948-1.96-1.421-4.345-1.421-7.154 0-2.973.49-5.472 1.47-7.497 1.012-2.025 2.401-3.561 4.165-4.606 1.764-1.078 3.773-1.617 6.027-1.617Zm26.905-8.673v.98c-1.111.033-1.96.163-2.548.392-.555.196-.931.588-1.127 1.176-.196.555-.294 1.437-.294 2.646v24.696c0 1.045.082 1.846.245 2.401.196.523.539.866 1.029 1.029.49.163 1.192.245 2.107.245h2.793c1.274 0 2.385-.229 3.332-.686a7.177 7.177 0 0 0 2.548-2.009c.719-.882 1.307-1.96 1.764-3.234.457-1.307.784-2.777.98-4.41h1.127c-.098 1.078-.147 2.483-.147 4.214 0 .719.016 1.748.049 3.087a98.58 98.58 0 0 0 .294 4.165 145.826 145.826 0 0 0-5.635-.098 357.565 357.565 0 0 0-5.586-.049h-2.989c-1.209 0-2.532.016-3.969.049-1.405 0-2.842.016-4.312.049-1.437 0-2.809.016-4.116.049v-.98c1.078-.065 1.878-.196 2.401-.392.555-.196.915-.588 1.078-1.176.196-.588.294-1.47.294-2.646v-24.304c0-1.209-.098-2.09-.294-2.646-.163-.588-.523-.98-1.078-1.176-.523-.229-1.323-.36-2.401-.392v-.98c.817.033 1.862.065 3.136.098s2.646.049 4.116.049a158.7 158.7 0 0 0 3.969-.049c1.307-.033 2.385-.065 3.234-.098Zm20.656-3.136c1.176 0 2.139.327 2.891.98.751.653 1.127 1.519 1.127 2.597s-.376 1.944-1.127 2.597c-.752.653-1.715.98-2.891.98s-2.14-.327-2.891-.98c-.752-.653-1.127-1.519-1.127-2.597s.375-1.944 1.127-2.597c.751-.653 1.715-.98 2.891-.98Zm3.43 11.956v21.315c0 1.372.245 2.303.735 2.793.522.49 1.388.735 2.597.735V130c-.588-.033-1.487-.065-2.695-.098a68.445 68.445 0 0 0-7.35 0c-1.242.033-2.173.065-2.793.098v-1.029c1.208 0 2.058-.245 2.548-.735.522-.49.784-1.421.784-2.793v-15.386c0-1.503-.245-2.597-.735-3.283-.458-.719-1.323-1.078-2.597-1.078v-1.029c1.045.098 2.058.147 3.038.147a37.96 37.96 0 0 0 3.43-.147c1.11-.131 2.123-.31 3.038-.539Zm23.158-.147c1.372 0 2.466.18 3.283.539.849.359 1.535.817 2.058 1.372.588.621.996 1.421 1.225 2.401.261.98.392 2.303.392 3.969v13.181c0 1.372.245 2.303.735 2.793.522.49 1.388.735 2.597.735V130c-.588-.033-1.503-.065-2.744-.098a65.756 65.756 0 0 0-3.528-.098c-1.209 0-2.385.033-3.528.098a92.876 92.876 0 0 0-2.548.098v-1.029c1.045 0 1.78-.245 2.205-.735.424-.49.637-1.421.637-2.793v-14.847c0-.882-.082-1.666-.245-2.352-.164-.719-.49-1.274-.98-1.666-.49-.425-1.193-.637-2.107-.637-1.078 0-2.042.294-2.891.882-.817.588-1.47 1.405-1.96 2.45-.458 1.013-.686 2.156-.686 3.43v12.74c0 1.372.212 2.303.637 2.793.424.49 1.159.735 2.205.735V130a93.395 93.395 0 0 0-2.499-.098 57.88 57.88 0 0 0-3.381-.098c-1.209 0-2.434.033-3.675.098-1.242.033-2.173.065-2.793.098v-1.029c1.208 0 2.058-.245 2.548-.735.522-.49.784-1.421.784-2.793v-15.435c0-1.47-.245-2.548-.735-3.234-.458-.719-1.323-1.078-2.597-1.078v-1.029c1.045.098 2.058.147 3.038.147a37.96 37.96 0 0 0 3.43-.147c1.11-.131 2.123-.31 3.038-.539v4.9c.816-1.862 1.943-3.169 3.381-3.92 1.437-.751 3.005-1.127 4.704-1.127Zm24.568 0c2.875 0 5.129.866 6.762 2.597 1.634 1.731 2.45 4.492 2.45 8.281h-16.513l-.049-.931h10.878c.066-1.601-.032-3.071-.294-4.41-.261-1.372-.686-2.466-1.274-3.283-.555-.817-1.29-1.225-2.205-1.225-1.241 0-2.319.735-3.234 2.205-.914 1.437-1.486 3.806-1.715 7.105l.196.294a16.37 16.37 0 0 0-.147 1.372v1.47c0 2.254.327 4.116.98 5.586.654 1.47 1.503 2.548 2.548 3.234 1.046.686 2.124 1.029 3.234 1.029.752 0 1.519-.114 2.303-.343.784-.229 1.552-.653 2.303-1.274.752-.621 1.438-1.503 2.058-2.646l.931.392c-.359 1.143-.963 2.287-1.813 3.43-.816 1.111-1.878 2.025-3.185 2.744-1.306.719-2.842 1.078-4.606 1.078-2.221 0-4.181-.49-5.88-1.47-1.698-.98-3.021-2.434-3.969-4.361-.947-1.96-1.421-4.345-1.421-7.154 0-2.973.49-5.472 1.47-7.497 1.013-2.025 2.401-3.561 4.165-4.606 1.764-1.078 3.773-1.617 6.027-1.617Z"/><rect width="68" height="68" x="137" y="247" stroke="#5B4ECD" stroke-dasharray="4 7" stroke-linecap="square" stroke-width="2" rx="34"/><path fill="#5B4ECD" d="M170.13 271.76v.6c-.64.08-1.13.25-1.47.51-.32.24-.53.63-.63 1.17-.1.54-.15 1.3-.15 2.28v7.95c0 1.3-.09 2.49-.27 3.57-.18 1.08-.5 2.01-.96 2.79-.52.86-1.28 1.54-2.28 2.04-1 .5-2.27.75-3.81.75-.92 0-1.86-.11-2.82-.33a6.32 6.32 0 0 1-2.58-1.17c-.64-.54-1.13-1.15-1.47-1.83-.34-.68-.57-1.48-.69-2.4-.12-.94-.18-2.05-.18-3.33v-9.42c0-.74-.06-1.28-.18-1.62-.1-.36-.31-.6-.63-.72-.32-.14-.8-.22-1.44-.24v-.6a130.734 130.734 0 0 0 4.68.09c.92 0 1.8-.01 2.64-.03.86-.02 1.57-.04 2.13-.06v.6c-.68.02-1.2.1-1.56.24-.34.12-.57.36-.69.72-.12.34-.18.88-.18 1.62v11.31c0 1 .06 1.89.18 2.67.14.76.36 1.4.66 1.92.32.5.75.88 1.29 1.14.54.26 1.21.39 2.01.39 1.4 0 2.49-.33 3.27-.99.8-.66 1.36-1.57 1.68-2.73.34-1.18.51-2.53.51-4.05v-7.92c0-1.1-.07-1.94-.21-2.52-.14-.6-.42-1.03-.84-1.29-.4-.26-1.02-.43-1.86-.51v-.6c.38.02.88.04 1.5.06.62.02 1.2.03 1.74.03.48 0 .95-.01 1.41-.03.48-.02.88-.04 1.2-.06Zm9.524-.03v.63c-.9 0-1.48.09-1.74.27-.24.16-.22.45.06.87l11.88 17.37c.4.56.72.94.96 1.14.24.2.56.32.96.36v.63c-.4-.02-.98-.04-1.74-.06-.76-.04-1.55-.06-2.37-.06-.9 0-1.82.02-2.76.06-.92.02-1.61.04-2.07.06v-.63c.92 0 1.51-.06 1.77-.18.28-.14.28-.42 0-.84l-11.91-17.49c-.38-.58-.69-.97-.93-1.17-.24-.2-.57-.31-.99-.33v-.63l1.83.09a105.978 105.978 0 0 0 5.04 0c.84-.04 1.51-.07 2.01-.09Zm.27 10.59.06.21c.04.12.08.25.12.39l.06.18-3 4.11c-.8 1.08-1.25 2-1.35 2.76-.1.74.07 1.32.51 1.74.46.4 1.13.63 2.01.69v.6c-.28-.02-.64-.03-1.08-.03-.42-.02-.87-.03-1.35-.03-.46-.02-.9-.03-1.32-.03h-.99c-.56 0-1.08.01-1.56.03-.48 0-.88.02-1.2.06v-.6c.7-.24 1.41-.66 2.13-1.26.72-.62 1.46-1.42 2.22-2.4l4.74-6.42Zm10.5-10.56v.6c-.66.18-1.32.56-1.98 1.14-.64.58-1.24 1.25-1.8 2.01l-4.86 6.48-.12-.39-.09-.39 3.09-4.17c.76-.96 1.21-1.78 1.35-2.46.16-.68.05-1.21-.33-1.59-.38-.38-.98-.59-1.8-.63v-.6c.38.02.8.04 1.26.06.46 0 .91.01 1.35.03h1.17c.58 0 1.11-.01 1.59-.03.48-.02.87-.04 1.17-.06Z"/><rect width="58" height="58" x="760" y="247" stroke="#20BCA6" stroke-dasharray="4 7" stroke-linecap="square" stroke-width="2" rx="29"/><path fill="#20BCA6" d="M793.13 266.76v.6c-.64.08-1.13.25-1.47.51-.32.24-.53.63-.63 1.17-.1.54-.15 1.3-.15 2.28v7.95c0 1.3-.09 2.49-.27 3.57-.18 1.08-.5 2.01-.96 2.79-.52.86-1.28 1.54-2.28 2.04-1 .5-2.27.75-3.81.75-.92 0-1.86-.11-2.82-.33a6.32 6.32 0 0 1-2.58-1.17c-.64-.54-1.13-1.15-1.47-1.83-.34-.68-.57-1.48-.69-2.4-.12-.94-.18-2.05-.18-3.33v-9.42c0-.74-.06-1.28-.18-1.62-.1-.36-.31-.6-.63-.72-.32-.14-.8-.22-1.44-.24v-.6a130.734 130.734 0 0 0 4.68.09c.92 0 1.8-.01 2.64-.03.86-.02 1.57-.04 2.13-.06v.6c-.68.02-1.2.1-1.56.24-.34.12-.57.36-.69.72-.12.34-.18.88-.18 1.62v11.31c0 1 .06 1.89.18 2.67.14.76.36 1.4.66 1.92.32.5.75.88 1.29 1.14.54.26 1.21.39 2.01.39 1.4 0 2.49-.33 3.27-.99.8-.66 1.36-1.57 1.68-2.73.34-1.18.51-2.53.51-4.05v-7.92c0-1.1-.07-1.94-.21-2.52-.14-.6-.42-1.03-.84-1.29-.4-.26-1.02-.43-1.86-.51v-.6c.38.02.88.04 1.5.06.62.02 1.2.03 1.74.03.48 0 .95-.01 1.41-.03.48-.02.88-.04 1.2-.06Zm10.844 0v.6c-.64.02-1.13.1-1.47.24-.32.12-.53.36-.63.72-.1.34-.15.88-.15 1.62v14.88c0 .72.05 1.26.15 1.62.12.36.34.6.66.72s.8.2 1.44.24v.6c-.54-.04-1.22-.06-2.04-.06a115.197 115.197 0 0 0-5.22 0c-.82 0-1.49.02-2.01.06v-.6c.64-.04 1.12-.12 1.44-.24.32-.12.53-.36.63-.72.12-.36.18-.9.18-1.62v-14.88c0-.74-.06-1.28-.18-1.62-.1-.36-.32-.6-.66-.72-.32-.14-.79-.22-1.41-.24v-.6c.52.02 1.19.04 2.01.06a115.197 115.197 0 0 0 5.22 0c.82-.02 1.5-.04 2.04-.06Z"/><path stroke="#5B4ECD" stroke-dasharray="10 10" stroke-width="2" d="M172 316v1167M313 407v1082.02M462 407v1082.02M614 407v1082.02"/><path stroke="#20BCA6" stroke-dasharray="10 10" stroke-width="2" d="M790 316v1167M931 407v1076m152-1076.001V1483m145-1076.004V1489"/><g filter="url(#a)"><rect width="560" height="61" x="130" y="346" fill="#5B4ECD" rx="15" shape-rendering="crispEdges"/><path fill="#DDE4E6" d="M365.3 370.84v.4c-.427.04-.753.14-.98.3-.213.147-.36.387-.44.72-.08.32-.12.78-.12 1.38v5.54c0 .893-.06 1.693-.18 2.4-.107.707-.32 1.32-.64 1.84-.333.56-.833 1.013-1.5 1.36-.653.333-1.453.5-2.4.5-.64 0-1.273-.073-1.9-.22a3.822 3.822 0 0 1-1.62-.82 4.109 4.109 0 0 1-.98-1.18c-.227-.44-.38-.967-.46-1.58-.08-.627-.12-1.373-.12-2.24v-6.28c0-.493-.04-.853-.12-1.08a.668.668 0 0 0-.44-.48c-.213-.093-.54-.147-.98-.16v-.4c.333.013.76.027 1.28.04a67.36 67.36 0 0 0 3.3 0c.533-.013.973-.027 1.32-.04v.4c-.453.013-.8.067-1.04.16a.72.72 0 0 0-.46.48c-.08.227-.12.587-.12 1.08v7.24c0 .667.04 1.273.12 1.82.093.533.24.993.44 1.38.213.387.507.68.88.88.387.2.873.3 1.46.3.973 0 1.727-.22 2.26-.66.533-.44.907-1.053 1.12-1.84.213-.787.32-1.68.32-2.68v-5.6c0-.653-.047-1.153-.14-1.5-.093-.347-.28-.6-.56-.76-.267-.16-.667-.26-1.2-.3v-.4c.253.013.58.027.98.04.413.013.793.02 1.14.02a31.704 31.704 0 0 0 1.78-.06Zm6.031 0v.42c-.627 0-1.02.06-1.18.18-.16.12-.147.327.04.62l7.78 11.52c.253.387.46.647.62.78.173.12.4.193.68.22v.42a43.07 43.07 0 0 0-1.04-.04c-.44-.027-.893-.04-1.36-.04-.587 0-1.173.013-1.76.04-.587.013-1.027.027-1.32.04v-.42c.613 0 1.013-.04 1.2-.12.187-.093.187-.28 0-.56l-7.82-11.64c-.267-.387-.48-.647-.64-.78-.147-.133-.367-.207-.66-.22v-.42l1.06.06a51 51 0 0 0 1.42.02c.573 0 1.127-.007 1.66-.02.533-.027.973-.047 1.32-.06Zm.48 6.98.04.14c.027.08.053.167.08.26l.06.12-2.18 3.06c-.507.707-.787 1.293-.84 1.76-.053.467.073.82.38 1.06.32.227.767.353 1.34.38v.4c-.187-.013-.42-.02-.7-.02-.267-.013-.547-.02-.84-.02-.28-.013-.553-.02-.82-.02h-.64c-.373 0-.713.007-1.02.02-.307 0-.567.013-.78.04v-.4c.453-.12.9-.367 1.34-.74.44-.373.887-.873 1.34-1.5l3.24-4.54Zm6.72-6.98v.4c-.427.107-.847.34-1.26.7-.413.36-.807.793-1.18 1.3l-3.24 4.48-.08-.24-.06-.26 2.14-2.98c.493-.68.787-1.233.88-1.66.093-.44.013-.767-.24-.98-.253-.213-.653-.333-1.2-.36v-.4c.253.013.527.027.82.04.293 0 .58.007.86.02h.76c.373 0 .713-.007 1.02-.02.307-.013.567-.027.78-.04Zm5.81 0c.333.013.76.027 1.28.04.52.013 1.04.02 1.56.02.653 0 1.273-.007 1.86-.02.587-.013 1-.02 1.24-.02 1.2 0 2.187.147 2.96.44.787.28 1.373.68 1.76 1.2.387.52.58 1.133.58 1.84 0 .44-.087.893-.26 1.36-.173.453-.473.873-.9 1.26-.427.387-1.013.707-1.76.96-.733.24-1.673.36-2.82.36h-1.92v-.4h1.72c.84 0 1.48-.147 1.92-.44a2.17 2.17 0 0 0 .9-1.2c.16-.507.24-1.067.24-1.68 0-1.053-.207-1.867-.62-2.44-.413-.587-1.127-.88-2.14-.88-.547 0-.907.113-1.08.34-.16.227-.24.687-.24 1.38v9.92c0 .48.04.84.12 1.08.08.24.227.4.44.48.227.08.553.133.98.16v.4c-.333-.027-.76-.04-1.28-.04a63.225 63.225 0 0 0-3.26 0c-.52 0-.947.013-1.28.04v-.4c.44-.027.767-.08.98-.16a.668.668 0 0 0 .44-.48c.08-.24.12-.6.12-1.08v-9.92c0-.493-.04-.853-.12-1.08a.668.668 0 0 0-.44-.48c-.213-.093-.54-.147-.98-.16v-.4Zm3.58 7.1c.627.027 1.147.06 1.56.1.427.027.787.053 1.08.08.307.027.58.06.82.1 1.107.107 1.92.367 2.44.78.533.4.887 1.013 1.06 1.84l.46 2.06c.12.547.247.94.38 1.18a.655.655 0 0 0 .62.32.817.817 0 0 0 .48-.14c.133-.107.267-.247.4-.42l.28.24c-.333.413-.687.72-1.06.92-.373.187-.847.28-1.42.28-.64 0-1.18-.147-1.62-.44-.44-.307-.74-.88-.9-1.72l-.38-2a10.813 10.813 0 0 0-.38-1.48c-.133-.427-.32-.76-.56-1-.24-.24-.593-.36-1.06-.36h-2.16l-.04-.34Zm14.795-3.56c1.174 0 2.094.353 2.76 1.06.667.707 1 1.833 1 3.38h-6.74l-.02-.38h4.44a7.721 7.721 0 0 0-.12-1.8c-.106-.56-.28-1.007-.52-1.34-.226-.333-.526-.5-.9-.5-.506 0-.946.3-1.32.9-.373.587-.606 1.553-.7 2.9l.08.12c-.026.173-.046.36-.06.56v.6c0 .92.134 1.68.4 2.28.267.6.614 1.04 1.04 1.32.427.28.867.42 1.32.42.307 0 .62-.047.94-.14.32-.093.634-.267.94-.52.307-.253.587-.613.84-1.08l.38.16a4.728 4.728 0 0 1-.74 1.4 3.934 3.934 0 0 1-1.3 1.12c-.533.293-1.16.44-1.88.44-.906 0-1.706-.2-2.4-.6-.693-.4-1.233-.993-1.62-1.78-.386-.8-.58-1.773-.58-2.92 0-1.213.2-2.233.6-3.06.414-.827.98-1.453 1.7-1.88.72-.44 1.54-.66 2.46-.66Zm8.878 0c.56 0 1.04.08 1.44.24.4.16.693.3.88.42.453.333.727.12.82-.64h.44c-.027.387-.047.847-.06 1.38-.013.52-.02 1.22-.02 2.1h-.44a6.05 6.05 0 0 0-.38-1.44 2.922 2.922 0 0 0-.82-1.16c-.36-.32-.833-.48-1.42-.48-.413 0-.76.12-1.04.36-.267.24-.4.58-.4 1.02 0 .4.12.753.36 1.06.24.293.547.573.92.84.387.253.787.533 1.2.84.48.32.907.647 1.28.98.373.32.673.68.9 1.08.227.387.34.847.34 1.38 0 .613-.173 1.14-.52 1.58-.333.427-.78.76-1.34 1a4.702 4.702 0 0 1-1.82.34c-.36 0-.687-.033-.98-.1a3.834 3.834 0 0 1-.78-.26l-.48-.26a2.379 2.379 0 0 0-.42-.2c-.133-.067-.253-.04-.36.08-.093.12-.167.32-.22.6h-.44c.027-.427.047-.947.06-1.56.013-.613.02-1.427.02-2.44h.44c.093.733.233 1.38.42 1.94.2.547.487.98.86 1.3.373.307.853.46 1.44.46.253 0 .493-.053.72-.16.24-.107.433-.273.58-.5.16-.227.24-.533.24-.92 0-.587-.2-1.073-.6-1.46-.4-.387-.9-.8-1.5-1.24-.453-.333-.88-.66-1.28-.98a4.568 4.568 0 0 1-.96-1.08c-.24-.4-.36-.873-.36-1.42 0-.6.153-1.093.46-1.48.307-.4.707-.7 1.2-.9a4.14 4.14 0 0 1 1.62-.32Zm10.361 0c1.173 0 2.093.353 2.76 1.06.666.707 1 1.833 1 3.38h-6.74l-.02-.38h4.44a7.831 7.831 0 0 0-.12-1.8c-.107-.56-.28-1.007-.52-1.34-.227-.333-.527-.5-.9-.5-.507 0-.947.3-1.32.9-.374.587-.607 1.553-.7 2.9l.08.12a6.29 6.29 0 0 0-.06.56v.6c0 .92.133 1.68.4 2.28.266.6.613 1.04 1.04 1.32.426.28.866.42 1.32.42.306 0 .62-.047.94-.14.32-.093.633-.267.94-.52.306-.253.586-.613.84-1.08l.38.16a4.775 4.775 0 0 1-.74 1.4 3.954 3.954 0 0 1-1.3 1.12c-.534.293-1.16.44-1.88.44-.907 0-1.707-.2-2.4-.6-.694-.4-1.234-.993-1.62-1.78-.387-.8-.58-1.773-.58-2.92 0-1.213.2-2.233.6-3.06.413-.827.98-1.453 1.7-1.88.72-.44 1.54-.66 2.46-.66Zm7.837 10.76c-.573 0-1.06-.107-1.46-.32-.4-.227-.7-.527-.9-.9-.2-.387-.3-.813-.3-1.28 0-.573.134-1.04.4-1.4a2.834 2.834 0 0 1 1.02-.88 7.93 7.93 0 0 1 1.34-.56c.467-.16.907-.307 1.32-.44a4.25 4.25 0 0 0 1.02-.5c.267-.187.4-.433.4-.74v-1.46c0-.427-.066-.773-.2-1.04a1.212 1.212 0 0 0-.56-.62c-.24-.147-.546-.22-.92-.22-.28 0-.573.04-.88.12a1.49 1.49 0 0 0-.76.46c.347.093.614.267.8.52.2.253.3.56.3.92 0 .413-.14.74-.42.98-.266.227-.606.34-1.02.34-.44 0-.773-.14-1-.42a1.516 1.516 0 0 1-.34-.98c0-.373.094-.68.28-.92.187-.253.447-.48.78-.68.334-.227.76-.407 1.28-.54.52-.133 1.087-.2 1.7-.2.587 0 1.107.067 1.56.2.454.12.84.34 1.16.66.32.307.527.687.62 1.14.094.453.14 1.007.14 1.66v5.48c0 .333.04.573.12.72.08.133.207.2.38.2.134 0 .26-.033.38-.1s.254-.16.4-.28l.22.34a4.02 4.02 0 0 1-.92.54c-.32.133-.706.2-1.16.2-.466 0-.84-.067-1.12-.2a1.337 1.337 0 0 1-.6-.58 2.304 2.304 0 0 1-.2-.9c-.32.533-.713.947-1.18 1.24-.466.293-1.026.44-1.68.44Zm1.2-1.12c.32 0 .614-.087.88-.26.28-.173.534-.433.76-.78v-4.04c-.133.2-.326.38-.58.54-.24.16-.5.32-.78.48a5.46 5.46 0 0 0-.8.56c-.24.2-.446.453-.62.76-.16.293-.24.673-.24 1.14 0 .52.127.92.38 1.2.254.267.587.4 1 .4Zm12.875-9.64c.413 0 .753.087 1.02.26.28.173.487.393.62.66s.2.547.2.84c0 .44-.133.807-.4 1.1-.253.293-.593.44-1.02.44-.4 0-.727-.107-.98-.32-.253-.213-.38-.507-.38-.88 0-.333.08-.613.24-.84.173-.227.367-.407.58-.54a.783.783 0 0 0-.5-.08c-.32.027-.613.14-.88.34s-.493.447-.68.74a4.033 4.033 0 0 0-.44.94c-.093.333-.14.653-.14.96v4.94c0 .653.167 1.093.5 1.32.333.213.82.32 1.46.32v.42a69.95 69.95 0 0 0-1.34-.04 38.313 38.313 0 0 0-1.8-.04c-.52 0-1.04.013-1.56.04-.507.013-.887.027-1.14.04v-.42c.493 0 .84-.1 1.04-.3.213-.2.32-.58.32-1.14v-6.3c0-.6-.1-1.04-.3-1.32-.187-.293-.54-.44-1.06-.44v-.42c.427.04.84.06 1.24.06.493 0 .96-.02 1.4-.06a9.9 9.9 0 0 0 1.24-.22v2.08c.16-.373.367-.72.62-1.04.267-.32.58-.58.94-.78.373-.213.773-.32 1.2-.32Zm7.347 0c.494 0 .947.06 1.36.18.427.107.794.26 1.1.46.32.2.574.453.76.76.187.293.28.62.28.98 0 .44-.133.793-.4 1.06-.266.267-.6.4-1 .4-.413 0-.753-.12-1.02-.36-.253-.24-.38-.56-.38-.96 0-.387.114-.707.34-.96.227-.253.5-.42.82-.5-.12-.173-.306-.313-.56-.42a1.935 1.935 0 0 0-.84-.18c-.4 0-.76.107-1.08.32-.32.2-.6.507-.84.92-.226.4-.406.9-.54 1.5-.12.587-.18 1.267-.18 2.04 0 1.08.127 1.933.38 2.56.267.627.607 1.073 1.02 1.34.414.253.854.38 1.32.38.28 0 .58-.053.9-.16.32-.107.634-.287.94-.54.32-.253.607-.613.86-1.08l.38.14a4.965 4.965 0 0 1-.72 1.4c-.32.467-.74.853-1.26 1.16-.52.307-1.153.46-1.9.46-.853 0-1.626-.193-2.32-.58-.693-.4-1.246-1-1.66-1.8-.4-.8-.6-1.793-.6-2.98 0-1.173.207-2.167.62-2.98.414-.827.987-1.46 1.72-1.9.747-.44 1.58-.66 2.5-.66Zm8.484-5.04v7.08c.333-.747.793-1.273 1.38-1.58.6-.307 1.246-.46 1.94-.46.546 0 .993.073 1.34.22.346.147.626.333.84.56.226.253.386.58.48.98.106.4.16.94.16 1.62v5.38c0 .56.1.94.3 1.14.213.2.566.3 1.059.3v.42a42.33 42.33 0 0 0-1.099-.04 26.729 26.729 0 0 0-2.88 0c-.467.013-.82.027-1.06.04v-.42c.426 0 .726-.1.9-.3.173-.2.26-.58.26-1.14v-6.06a4.2 4.2 0 0 0-.1-.96c-.067-.293-.2-.52-.4-.68-.187-.173-.474-.26-.86-.26-.427 0-.814.12-1.16.36-.334.227-.6.553-.8.98-.2.413-.3.887-.3 1.42v5.2c0 .56.086.94.26 1.14.186.2.486.3.9.3v.42a38.142 38.142 0 0 0-1.02-.04c-.44-.027-.9-.04-1.38-.04-.48 0-.98.013-1.5.04-.507.013-.887.027-1.14.04v-.42c.493 0 .84-.1 1.04-.3.213-.2.32-.58.32-1.14v-11.4c0-.6-.1-1.04-.3-1.32-.187-.293-.54-.44-1.06-.44v-.42c.426.04.84.06 1.24.06.506 0 .98-.02 1.42-.06.44-.053.846-.127 1.22-.22Z"/></g><g filter="url(#b)"><rect width="561" height="61" x="732" y="346" fill="#20BCA6" rx="15" shape-rendering="crispEdges"/><path fill="#DDE4E6" d="M970.8 370.84v.4c-.427.04-.753.14-.98.3-.213.147-.36.387-.44.72-.08.32-.12.78-.12 1.38v5.54c0 .893-.06 1.693-.18 2.4-.107.707-.32 1.32-.64 1.84-.333.56-.833 1.013-1.5 1.36-.653.333-1.453.5-2.4.5-.64 0-1.273-.073-1.9-.22a3.822 3.822 0 0 1-1.62-.82 4.109 4.109 0 0 1-.98-1.18c-.227-.44-.38-.967-.46-1.58-.08-.627-.12-1.373-.12-2.24v-6.28c0-.493-.04-.853-.12-1.08a.668.668 0 0 0-.44-.48c-.213-.093-.54-.147-.98-.16v-.4c.333.013.76.027 1.28.04a67.36 67.36 0 0 0 3.3 0c.533-.013.973-.027 1.32-.04v.4c-.453.013-.8.067-1.04.16a.72.72 0 0 0-.46.48c-.08.227-.12.587-.12 1.08v7.24c0 .667.04 1.273.12 1.82.093.533.24.993.44 1.38.213.387.507.68.88.88.387.2.873.3 1.46.3.973 0 1.727-.22 2.26-.66.533-.44.907-1.053 1.12-1.84.213-.787.32-1.68.32-2.68v-5.6c0-.653-.047-1.153-.14-1.5-.093-.347-.28-.6-.56-.76-.267-.16-.667-.26-1.2-.3v-.4c.253.013.58.027.98.04.413.013.793.02 1.14.02a31.704 31.704 0 0 0 1.78-.06Zm6.951 0v.4c-.427.013-.753.067-.98.16-.213.08-.36.24-.44.48-.08.227-.12.587-.12 1.08v9.92c0 .48.04.84.12 1.08.08.24.227.4.44.48.227.08.553.133.98.16v.4c-.333-.027-.76-.04-1.28-.04a63.225 63.225 0 0 0-3.26 0c-.52 0-.947.013-1.28.04v-.4c.44-.027.767-.08.98-.16a.668.668 0 0 0 .44-.48c.08-.24.12-.6.12-1.08v-9.92c0-.493-.04-.853-.12-1.08a.668.668 0 0 0-.44-.48c-.213-.093-.54-.147-.98-.16v-.4c.333.013.76.027 1.28.04a67.36 67.36 0 0 0 4.54-.04Zm6.25 0c.334.013.76.027 1.28.04.52.013 1.04.02 1.56.02.654 0 1.274-.007 1.86-.02.587-.013 1-.02 1.24-.02 1.2 0 2.187.147 2.96.44.787.28 1.374.68 1.76 1.2.387.52.58 1.133.58 1.84 0 .44-.086.893-.26 1.36-.173.453-.473.873-.9 1.26-.426.387-1.013.707-1.76.96-.733.24-1.673.36-2.82.36h-1.92v-.4h1.72c.84 0 1.48-.147 1.92-.44.454-.307.754-.707.9-1.2.16-.507.24-1.067.24-1.68 0-1.053-.206-1.867-.62-2.44-.413-.587-1.126-.88-2.14-.88-.546 0-.906.113-1.08.34-.16.227-.24.687-.24 1.38v9.92c0 .48.04.84.12 1.08.08.24.227.4.44.48.227.08.554.133.98.16v.4c-.333-.027-.76-.04-1.28-.04a63.164 63.164 0 0 0-3.26 0c-.52 0-.946.013-1.28.04v-.4c.44-.027.767-.08.98-.16a.666.666 0 0 0 .44-.48c.08-.24.12-.6.12-1.08v-9.92c0-.493-.04-.853-.12-1.08a.666.666 0 0 0-.44-.48c-.213-.093-.54-.147-.98-.16v-.4Zm3.58 7.1c.627.027 1.147.06 1.56.1.427.027.787.053 1.08.08.307.027.58.06.82.1 1.107.107 1.92.367 2.44.78.534.4.887 1.013 1.06 1.84l.46 2.06c.12.547.247.94.38 1.18a.656.656 0 0 0 .62.32.817.817 0 0 0 .48-.14c.134-.107.267-.247.4-.42l.28.24c-.333.413-.686.72-1.06.92-.373.187-.846.28-1.42.28-.64 0-1.18-.147-1.62-.44-.44-.307-.74-.88-.9-1.72l-.38-2a10.67 10.67 0 0 0-.38-1.48c-.133-.427-.32-.76-.56-1-.24-.24-.593-.36-1.06-.36h-2.16l-.04-.34Zm14.799-3.56c1.17 0 2.09.353 2.76 1.06.66.707 1 1.833 1 3.38h-6.744l-.02-.38h4.444a8.566 8.566 0 0 0-.12-1.8c-.11-.56-.28-1.007-.52-1.34-.23-.333-.53-.5-.9-.5-.51 0-.95.3-1.32.9-.38.587-.61 1.553-.7 2.9l.08.12c-.03.173-.05.36-.06.56v.6c0 .92.13 1.68.4 2.28.26.6.61 1.04 1.04 1.32.42.28.86.42 1.32.42.3 0 .62-.047.94-.14.32-.093.63-.267.94-.52.3-.253.58-.613.84-1.08l.38.16c-.15.467-.4.933-.74 1.4-.34.453-.77.827-1.3 1.12-.54.293-1.16.44-1.88.44-.91 0-1.71-.2-2.404-.6-.693-.4-1.233-.993-1.62-1.78-.386-.8-.58-1.773-.58-2.92 0-1.213.2-2.233.6-3.06.414-.827.98-1.453 1.7-1.88.724-.44 1.544-.66 2.464-.66Zm8.87 0c.56 0 1.04.08 1.44.24.4.16.7.3.88.42.46.333.73.12.82-.64h.44c-.02.387-.04.847-.06 1.38-.01.52-.02 1.22-.02 2.1h-.44a5.612 5.612 0 0 0-.38-1.44 2.855 2.855 0 0 0-.82-1.16c-.36-.32-.83-.48-1.42-.48-.41 0-.76.12-1.04.36-.26.24-.4.58-.4 1.02 0 .4.12.753.36 1.06.24.293.55.573.92.84.39.253.79.533 1.2.84.48.32.91.647 1.28.98.38.32.68.68.9 1.08.23.387.34.847.34 1.38 0 .613-.17 1.14-.52 1.58-.33.427-.78.76-1.34 1-.54.227-1.15.34-1.82.34-.36 0-.68-.033-.98-.1a3.963 3.963 0 0 1-.78-.26c-.17-.093-.33-.18-.48-.26-.13-.08-.27-.147-.42-.2-.13-.067-.25-.04-.36.08-.09.12-.16.32-.22.6h-.44c.03-.427.05-.947.06-1.56.02-.613.02-1.427.02-2.44h.44c.1.733.24 1.38.42 1.94.2.547.49.98.86 1.3.38.307.86.46 1.44.46.26 0 .5-.053.72-.16.24-.107.44-.273.58-.5.16-.227.24-.533.24-.92 0-.587-.2-1.073-.6-1.46-.4-.387-.9-.8-1.5-1.24-.45-.333-.88-.66-1.28-.98-.38-.32-.7-.68-.96-1.08-.24-.4-.36-.873-.36-1.42 0-.6.16-1.093.46-1.48.31-.4.71-.7 1.2-.9.51-.213 1.05-.32 1.62-.32Zm10.36 0c1.18 0 2.1.353 2.76 1.06.67.707 1 1.833 1 3.38h-6.74l-.02-.38h4.44a7.408 7.408 0 0 0-.12-1.8c-.1-.56-.28-1.007-.52-1.34-.22-.333-.52-.5-.9-.5-.5 0-.94.3-1.32.9-.37.587-.6 1.553-.7 2.9l.08.12c-.02.173-.04.36-.06.56v.6c0 .92.14 1.68.4 2.28.27.6.62 1.04 1.04 1.32.43.28.87.42 1.32.42.31 0 .62-.047.94-.14.32-.093.64-.267.94-.52.31-.253.59-.613.84-1.08l.38.16c-.14.467-.39.933-.74 1.4-.33.453-.76.827-1.3 1.12-.53.293-1.16.44-1.88.44-.9 0-1.7-.2-2.4-.6-.69-.4-1.23-.993-1.62-1.78-.38-.8-.58-1.773-.58-2.92 0-1.213.2-2.233.6-3.06.42-.827.98-1.453 1.7-1.88.72-.44 1.54-.66 2.46-.66Zm7.84 10.76c-.57 0-1.06-.107-1.46-.32-.4-.227-.7-.527-.9-.9-.2-.387-.3-.813-.3-1.28 0-.573.14-1.04.4-1.4.27-.373.61-.667 1.02-.88a8.25 8.25 0 0 1 1.34-.56c.47-.16.91-.307 1.32-.44.42-.147.76-.313 1.02-.5.27-.187.4-.433.4-.74v-1.46c0-.427-.06-.773-.2-1.04-.12-.28-.3-.487-.56-.62-.24-.147-.54-.22-.92-.22-.28 0-.57.04-.88.12-.3.08-.56.233-.76.46.35.093.62.267.8.52.2.253.3.56.3.92 0 .413-.14.74-.42.98-.26.227-.6.34-1.02.34-.44 0-.77-.14-1-.42a1.55 1.55 0 0 1-.34-.98c0-.373.1-.68.28-.92.19-.253.45-.48.78-.68.34-.227.76-.407 1.28-.54.52-.133 1.09-.2 1.7-.2.59 0 1.11.067 1.56.2.46.12.84.34 1.16.66.32.307.53.687.62 1.14.1.453.14 1.007.14 1.66v5.48c0 .333.04.573.12.72.08.133.21.2.38.2a.75.75 0 0 0 .38-.1c.12-.067.26-.16.4-.28l.22.34c-.29.227-.6.407-.92.54-.32.133-.7.2-1.16.2-.46 0-.84-.067-1.12-.2a1.4 1.4 0 0 1-.6-.58c-.12-.253-.18-.553-.2-.9-.32.533-.71.947-1.18 1.24-.46.293-1.02.44-1.68.44Zm1.2-1.12c.32 0 .62-.087.88-.26.28-.173.54-.433.76-.78v-4.04c-.13.2-.32.38-.58.54-.24.16-.5.32-.78.48a5.8 5.8 0 0 0-.8.56c-.24.2-.44.453-.62.76-.16.293-.24.673-.24 1.14 0 .52.13.92.38 1.2.26.267.59.4 1 .4Zm12.88-9.64c.41 0 .75.087 1.02.26.28.173.48.393.62.66.13.267.2.547.2.84 0 .44-.14.807-.4 1.1-.26.293-.6.44-1.02.44-.4 0-.73-.107-.98-.32-.26-.213-.38-.507-.38-.88 0-.333.08-.613.24-.84.17-.227.36-.407.58-.54a.795.795 0 0 0-.5-.08c-.32.027-.62.14-.88.34-.27.2-.5.447-.68.74-.19.293-.34.607-.44.94-.1.333-.14.653-.14.96v4.94c0 .653.16 1.093.5 1.32.33.213.82.32 1.46.32v.42c-.31-.013-.76-.027-1.34-.04-.58-.027-1.18-.04-1.8-.04-.52 0-1.04.013-1.56.04-.51.013-.89.027-1.14.04v-.42c.49 0 .84-.1 1.04-.3.21-.2.32-.58.32-1.14v-6.3c0-.6-.1-1.04-.3-1.32-.19-.293-.54-.44-1.06-.44v-.42c.42.04.84.06 1.24.06.49 0 .96-.02 1.4-.06.45-.053.86-.127 1.24-.22v2.08c.16-.373.36-.72.62-1.04.26-.32.58-.58.94-.78.37-.213.77-.32 1.2-.32Zm7.34 0c.5 0 .95.06 1.36.18.43.107.8.26 1.1.46.32.2.58.453.76.76.19.293.28.62.28.98 0 .44-.13.793-.4 1.06-.26.267-.6.4-1 .4-.41 0-.75-.12-1.02-.36-.25-.24-.38-.56-.38-.96 0-.387.12-.707.34-.96.23-.253.5-.42.82-.5-.12-.173-.3-.313-.56-.42-.25-.12-.53-.18-.84-.18-.4 0-.76.107-1.08.32-.32.2-.6.507-.84.92-.22.4-.4.9-.54 1.5-.12.587-.18 1.267-.18 2.04 0 1.08.13 1.933.38 2.56.27.627.61 1.073 1.02 1.34.42.253.86.38 1.32.38.28 0 .58-.053.9-.16.32-.107.64-.287.94-.54.32-.253.61-.613.86-1.08l.38.14a4.67 4.67 0 0 1-.72 1.4c-.32.467-.74.853-1.26 1.16-.52.307-1.15.46-1.9.46-.85 0-1.62-.193-2.32-.58-.69-.4-1.24-1-1.66-1.8-.4-.8-.6-1.793-.6-2.98 0-1.173.21-2.167.62-2.98.42-.827.99-1.46 1.72-1.9.75-.44 1.58-.66 2.5-.66Zm8.49-5.04v7.08c.33-.747.79-1.273 1.38-1.58.6-.307 1.24-.46 1.94-.46.54 0 .99.073 1.34.22.34.147.62.333.84.56.22.253.38.58.48.98.1.4.16.94.16 1.62v5.38c0 .56.1.94.3 1.14.21.2.56.3 1.06.3v.42c-.24-.013-.61-.027-1.1-.04-.5-.027-.98-.04-1.46-.04s-.96.013-1.42.04c-.47.013-.82.027-1.06.04v-.42c.42 0 .72-.1.9-.3.17-.2.26-.58.26-1.14v-6.06c0-.36-.04-.68-.1-.96-.07-.293-.2-.52-.4-.68-.19-.173-.48-.26-.86-.26-.43 0-.82.12-1.16.36-.34.227-.6.553-.8.98-.2.413-.3.887-.3 1.42v5.2c0 .56.08.94.26 1.14.18.2.48.3.9.3v.42a39.24 39.24 0 0 0-1.02-.04c-.44-.027-.9-.04-1.38-.04-.48 0-.98.013-1.5.04-.51.013-.89.027-1.14.04v-.42c.49 0 .84-.1 1.04-.3.21-.2.32-.58.32-1.14v-11.4c0-.6-.1-1.04-.3-1.32-.19-.293-.54-.44-1.06-.44v-.42c.42.04.84.06 1.24.06.5 0 .98-.02 1.42-.06.44-.053.84-.127 1.22-.22Z"/></g><g filter="url(#c)"><rect width="239" height="68" x="192" y="591" fill="#DEDBFC" rx="15" shape-rendering="crispEdges"/><path fill="#5B4ECD" d="M242 616.25v17.5c0 1.379 1.121 2.5 2.5 2.5h10c1.379 0 2.5-1.121 2.5-2.5v-17.5c0-1.379-1.121-2.5-2.5-2.5h-10a2.502 2.502 0 0 0-2.5 2.5Zm-5 17.5v-17.5h2.5v17.5H237Zm-5-2.5v-12.5h2.5v12.5H232Zm51.95-13.95a56.546 56.546 0 0 0-.15 2.275 77.491 77.491 0 0 0-.025 1.675c0 .333.008.658.025.975.017.317.033.575.05.775h-.575c-.183-1.3-.483-2.325-.9-3.075-.4-.75-.9-1.275-1.5-1.575a4.015 4.015 0 0 0-1.95-.475h-.675c-.45 0-.8.042-1.05.125a.68.68 0 0 0-.475.45c-.067.233-.1.6-.1 1.1v13.2c0 .483.033.85.1 1.1a.749.749 0 0 0 .475.475c.25.067.6.1 1.05.1h1.025c.65 0 1.267-.167 1.85-.5.6-.35 1.133-.933 1.6-1.75.467-.833.817-1.958 1.05-3.375h.575c-.05.567-.075 1.3-.075 2.2 0 .4.008.967.025 1.7s.067 1.5.15 2.3c-.85-.033-1.808-.05-2.875-.05a180.472 180.472 0 0 0-2.85-.025h-1.65c-.667 0-1.392.008-2.175.025-.783 0-1.575.008-2.375.025-.8 0-1.55.008-2.25.025v-.5c.517-.033.9-.1 1.15-.2.267-.1.442-.3.525-.6.1-.3.15-.75.15-1.35v-12.4c0-.617-.05-1.067-.15-1.35-.083-.3-.258-.5-.525-.6-.25-.117-.633-.183-1.15-.2v-.5c.717.017 1.467.033 2.25.05.8 0 1.583.008 2.35.025h6.45c.983-.017 1.858-.042 2.625-.075Zm-3.775 8.55v.5h-4.3v-.5h4.3Zm.725-3.3c-.067.95-.1 1.675-.1 2.175.017.5.025.958.025 1.375 0 .417.008.875.025 1.375s.058 1.225.125 2.175h-.575a4.897 4.897 0 0 0-.525-1.65c-.267-.5-.625-.9-1.075-1.2-.45-.3-1-.45-1.65-.45v-.5c.483 0 .908-.1 1.275-.3.367-.217.675-.492.925-.825.267-.333.483-.692.65-1.075.167-.383.275-.75.325-1.1h.575Zm14.565-.85c.717 0 1.292.092 1.725.275.45.183.8.417 1.05.7.267.317.458.733.575 1.25.117.5.175 1.167.175 2v6.75c0 .7.092 1.175.275 1.425.2.25.542.375 1.025.375V635a59.523 59.523 0 0 0-1.4-.05 33.73 33.73 0 0 0-3.65 0c-.6.017-1.05.033-1.35.05v-.525c.383 0 .65-.125.8-.375.167-.25.25-.725.25-1.425v-7.95c0-.383-.033-.708-.1-.975-.067-.283-.183-.492-.35-.625-.167-.15-.408-.225-.725-.225-.367 0-.717.1-1.05.3-.317.2-.575.483-.775.85-.183.35-.275.75-.275 1.2v7.425c0 .7.075 1.175.225 1.425.15.25.425.375.825.375V635a47.412 47.412 0 0 0-1.275-.05 29.683 29.683 0 0 0-1.725-.05c-.683 0-1.367.017-2.05.05-.683.017-1.2.033-1.55.05v-.525c.55 0 .933-.125 1.15-.375.233-.25.35-.725.35-1.425v-7.9c0-.75-.108-1.3-.325-1.65-.217-.367-.608-.55-1.175-.55v-.525c.533.05 1.05.075 1.55.075.75 0 1.458-.025 2.125-.075a18.034 18.034 0 0 0 1.875-.275v2.025c.383-.75.9-1.283 1.55-1.6.667-.333 1.417-.5 2.25-.5Zm7.525 0c.717 0 1.292.092 1.725.275.45.183.8.417 1.05.7.267.317.458.733.575 1.25.117.5.175 1.167.175 2v6.75c0 .7.108 1.175.325 1.425.233.25.625.375 1.175.375V635a65.602 65.602 0 0 0-1.5-.05c-.65-.033-1.283-.05-1.9-.05-.633 0-1.25.017-1.85.05-.6.017-1.05.033-1.35.05v-.525c.383 0 .65-.125.8-.375.167-.25.25-.725.25-1.425v-7.95c0-.383-.042-.708-.125-.975-.083-.283-.225-.492-.425-.625-.183-.15-.458-.225-.825-.225-.367 0-.717.117-1.05.35a2.469 2.469 0 0 0-.775.875 3.25 3.25 0 0 0-.325 1.225l-.15-1.25c.45-.933 1.042-1.567 1.775-1.9.733-.333 1.542-.5 2.425-.5Zm11.329.1V637c0 .8.192 1.333.575 1.6.4.267.942.4 1.625.4v.525l-1.875-.075c-.8-.017-1.642-.025-2.525-.025-.633 0-1.267.008-1.9.025l-1.4.075V639c.533 0 .908-.125 1.125-.375.217-.233.325-.692.325-1.375V624.8c0-.75-.108-1.3-.325-1.65-.217-.367-.608-.55-1.175-.55v-.525c.533.05 1.05.075 1.55.075.767 0 1.483-.025 2.15-.075a18.162 18.162 0 0 0 1.85-.275Zm3.825-.1c.85 0 1.6.233 2.25.7.667.45 1.192 1.142 1.575 2.075.4.917.6 2.075.6 3.475 0 1.317-.15 2.442-.45 3.375-.283.933-.692 1.7-1.225 2.3a4.683 4.683 0 0 1-1.85 1.325c-.7.267-1.458.4-2.275.4a5.278 5.278 0 0 1-1.725-.275c-.517-.167-.925-.442-1.225-.825l.25-.325c.15.233.358.408.625.525.267.117.55.175.85.175.683 0 1.225-.233 1.625-.7.417-.483.717-1.183.9-2.1.183-.917.275-2.033.275-3.35 0-1.45-.083-2.575-.25-3.375-.167-.817-.392-1.392-.675-1.725-.283-.333-.617-.5-1-.5-.533 0-1.017.208-1.45.625-.417.4-.65.95-.7 1.65l-.05-1.05c.35-.8.867-1.4 1.55-1.8.683-.4 1.475-.6 2.375-.6Zm9.286 13.475c-.767 0-1.4-.142-1.9-.425-.5-.3-.867-.692-1.1-1.175-.233-.483-.35-1-.35-1.55 0-.7.158-1.275.475-1.725.333-.45.758-.808 1.275-1.075a9.37 9.37 0 0 1 1.625-.7l1.625-.525c.517-.183.933-.392 1.25-.625.317-.25.475-.567.475-.95v-2.075c0-.367-.058-.708-.175-1.025-.1-.333-.292-.6-.575-.8-.267-.217-.642-.325-1.125-.325-.3 0-.592.042-.875.125a2.041 2.041 0 0 0-.75.4c.533.183.925.458 1.175.825.267.367.4.775.4 1.225 0 .617-.217 1.108-.65 1.475-.417.35-.917.525-1.5.525-.633 0-1.125-.2-1.475-.6-.333-.4-.5-.883-.5-1.45 0-.5.125-.917.375-1.25.25-.35.617-.667 1.1-.95.483-.283 1.067-.492 1.75-.625s1.408-.2 2.175-.2c.783 0 1.5.083 2.15.25.667.15 1.233.458 1.7.925.367.383.6.85.7 1.4.1.55.15 1.25.15 2.1v6.75c0 .417.033.708.1.875.083.15.208.225.375.225a.79.79 0 0 0 .425-.125c.133-.083.267-.175.4-.275l.275.425c-.367.3-.8.533-1.3.7-.5.15-1.042.225-1.625.225-.667 0-1.192-.083-1.575-.25-.367-.183-.633-.425-.8-.725-.15-.3-.233-.633-.25-1a4.595 4.595 0 0 1-1.375 1.45c-.55.35-1.242.525-2.075.525Zm2.075-1.8c.267 0 .5-.05.7-.15.217-.117.417-.308.6-.575v-5.2a2.895 2.895 0 0 1-.55.675c-.217.2-.45.408-.7.625-.25.2-.492.425-.725.675-.217.25-.4.55-.55.9-.133.333-.2.742-.2 1.225 0 .65.133 1.117.4 1.4.267.283.608.425 1.025.425Zm13.06-15.4v4.075h2.7v.5h-2.7v10.225c0 .417.075.717.225.9.15.167.375.25.675.25.25 0 .509-.083.775-.25.284-.167.542-.45.775-.85l.4.25a4.187 4.187 0 0 1-1.325 1.65c-.55.417-1.275.625-2.175.625-.55 0-1.041-.075-1.475-.225a2.57 2.57 0 0 1-1.05-.625 2.683 2.683 0 0 1-.725-1.35c-.1-.55-.15-1.258-.15-2.125v-8.475h-2v-.5h2v-3.125c.784 0 1.5-.075 2.15-.225.667-.15 1.3-.392 1.9-.725Zm8.765-2.525v8.35c.417-.767.967-1.308 1.65-1.625.7-.317 1.5-.475 2.4-.475.733 0 1.317.092 1.75.275.45.183.792.417 1.025.7.267.317.458.725.575 1.225.117.5.175 1.175.175 2.025v6.75c0 .7.108 1.175.325 1.425.233.25.625.375 1.175.375V635a59.298 59.298 0 0 0-1.475-.05 37.98 37.98 0 0 0-3.875 0 66.24 66.24 0 0 0-1.45.05v-.525c.467 0 .792-.125.975-.375.183-.25.275-.725.275-1.425v-7.95c0-.383-.042-.708-.125-.975-.083-.283-.225-.492-.425-.625-.183-.15-.458-.225-.825-.225-.383 0-.742.1-1.075.3a2.059 2.059 0 0 0-.775.825c-.2.35-.3.758-.3 1.225v7.425c0 .7.092 1.175.275 1.425.2.25.525.375.975.375V635c-.3-.017-.75-.033-1.35-.05-.6-.033-1.217-.05-1.85-.05-.667 0-1.35.017-2.05.05-.683.017-1.2.033-1.55.05v-.525c.55 0 .933-.125 1.15-.375.233-.25.35-.725.35-1.425V618.45c0-.75-.108-1.3-.325-1.65-.2-.367-.592-.55-1.175-.55v-.525c.533.05 1.05.075 1.55.075.767 0 1.483-.025 2.15-.075a18.162 18.162 0 0 0 1.85-.275Zm13.306.075c.783 0 1.392.175 1.825.525.45.35.675.858.675 1.525 0 .667-.225 1.175-.675 1.525-.433.35-1.042.525-1.825.525-.783 0-1.4-.175-1.85-.525-.433-.35-.65-.858-.65-1.525 0-.667.217-1.175.65-1.525.45-.35 1.067-.525 1.85-.525Zm2.2 6.25v10.9c0 .7.108 1.175.325 1.425.233.25.625.375 1.175.375V635a65.854 65.854 0 0 0-1.475-.05c-.65-.033-1.308-.05-1.975-.05s-1.35.017-2.05.05c-.683.017-1.2.033-1.55.05v-.525c.55 0 .933-.125 1.15-.375.233-.25.35-.725.35-1.425v-7.9c0-.75-.108-1.3-.325-1.65-.217-.367-.608-.55-1.175-.55v-.525c.533.05 1.05.075 1.55.075.75 0 1.458-.025 2.125-.075a18.034 18.034 0 0 0 1.875-.275Zm13.081.175-5.925 12.675h.85c.633 0 1.25-.142 1.85-.425.6-.283 1.108-.758 1.525-1.425.433-.667.692-1.592.775-2.775h.5c0 1.267.008 2.3.025 3.1.017.783.042 1.45.075 2-.75-.033-1.542-.058-2.375-.075-.817-.017-1.642-.025-2.475-.025-.85 0-1.733.008-2.65.025-.9.033-1.767.067-2.6.1l5.925-12.675h-.95c-.633 0-1.242.142-1.825.425-.583.267-1.075.742-1.475 1.425-.383.667-.625 1.592-.725 2.775h-.525c0-1.283-.008-2.317-.025-3.1a50.86 50.86 0 0 0-.075-2 112.683 112.683 0 0 0 4.85.1c.883 0 1.775-.008 2.675-.025.9-.033 1.758-.067 2.575-.1Zm7.816-.25c1.467 0 2.617.433 3.45 1.3.834.867 1.25 2.292 1.25 4.275h-8.025l-.025-.475h4.65c.034-.817 0-1.567-.1-2.25-.1-.7-.266-1.258-.5-1.675-.216-.417-.508-.625-.875-.625-.5 0-.925.358-1.275 1.075-.35.717-.566 1.933-.65 3.65l.1.175c-.033.183-.05.375-.05.575v.6c0 1.15.15 2.067.45 2.75.317.683.709 1.167 1.175 1.45.467.283.95.425 1.45.425.284 0 .6-.042.95-.125.35-.083.717-.258 1.1-.525.384-.267.75-.658 1.1-1.175l.425.15c-.183.65-.5 1.292-.95 1.925a5.53 5.53 0 0 1-1.675 1.55c-.683.4-1.508.6-2.475.6-1.1 0-2.083-.225-2.95-.675-.866-.467-1.558-1.192-2.075-2.175-.5-1-.75-2.3-.75-3.9 0-1.583.275-2.883.825-3.9.55-1.017 1.3-1.767 2.25-2.25.95-.5 2.017-.75 3.2-.75Z"/></g><g filter="url(#d)"><rect width="239" height="68" x="786" y="688" fill="#E6F9F6" rx="15" shape-rendering="crispEdges"/><path fill="#20BCA6" d="M867.505 710.748c-.946-.943-2.596-.939-3.535.006l-2.23 2.239-2.757 2.757h-5.733a1.252 1.252 0 0 0-1.174.823l-5 13.75c-.166.456-.052.967.29 1.311l2.5 2.5a1.25 1.25 0 0 0 1.312.29l13.75-5a1.244 1.244 0 0 0 .822-1.174v-5.732l2.759-2.759.001-.001 2.24-2.247a2.472 2.472 0 0 0 .731-1.768c0-.669-.261-1.298-.735-1.769l-3.241-3.226Zm-3.889 10.368a1.252 1.252 0 0 0-.366.884v5.375l-11.561 4.204 5.839-5.839c.032.001.065.01.097.01a1.877 1.877 0 0 0 1.839-2.241 1.88 1.88 0 0 0-1.473-1.473 1.875 1.875 0 0 0-2.241 1.839c0 .033.009.065.01.098l-5.839 5.838 4.204-11.561h5.375c.333 0 .65-.131.884-.366l2.241-2.241 3.233 3.232-2.242 2.241Zm4.008-4.01-3.233-3.232 1.349-1.355 3.241 3.226-1.357 1.361ZM893.3 714.3c3.4 0 5.917.75 7.55 2.25 1.65 1.483 2.475 3.617 2.475 6.4 0 1.817-.408 3.408-1.225 4.775-.8 1.35-1.967 2.4-3.5 3.15S895.225 732 893.075 732c-.267 0-.617-.008-1.05-.025a35.184 35.184 0 0 0-1.375-.025 35.23 35.23 0 0 0-1.275-.025c-.783 0-1.55.008-2.3.025-.75 0-1.35.017-1.8.05v-.5c.517-.033.9-.1 1.15-.2.267-.1.442-.3.525-.6.1-.3.15-.75.15-1.35v-12.4c0-.617-.05-1.067-.15-1.35-.083-.3-.258-.5-.525-.6-.25-.117-.633-.183-1.15-.2v-.5c.45.017 1.05.042 1.8.075.75.017 1.5.017 2.25 0 .6-.017 1.283-.033 2.05-.05a88.984 88.984 0 0 1 1.925-.025Zm.175.45c-.767 0-1.267.142-1.5.425-.233.283-.35.858-.35 1.725v12.5c0 .867.117 1.442.35 1.725.25.283.758.425 1.525.425 1.267 0 2.275-.325 3.025-.975.75-.667 1.283-1.633 1.6-2.9.333-1.267.5-2.808.5-4.625 0-1.867-.175-3.408-.525-4.625-.35-1.233-.908-2.15-1.675-2.75-.75-.617-1.733-.925-2.95-.925Zm17.974 3.95c1.467 0 2.617.433 3.45 1.3.834.867 1.25 2.292 1.25 4.275h-8.025l-.025-.475h4.65c.034-.817 0-1.567-.1-2.25-.1-.7-.266-1.258-.5-1.675-.216-.417-.508-.625-.875-.625-.5 0-.925.358-1.275 1.075-.35.717-.566 1.933-.65 3.65l.1.175c-.033.183-.05.375-.05.575v.6c0 1.15.15 2.067.45 2.75.317.683.709 1.167 1.175 1.45.467.283.95.425 1.45.425.284 0 .6-.042.95-.125.35-.083.717-.258 1.1-.525.384-.267.75-.658 1.1-1.175l.425.15c-.183.65-.5 1.292-.95 1.925a5.53 5.53 0 0 1-1.675 1.55c-.683.4-1.508.6-2.475.6-1.1 0-2.083-.225-2.95-.675-.866-.467-1.558-1.192-2.075-2.175-.5-1-.75-2.3-.75-3.9 0-1.583.275-2.883.825-3.9.55-1.017 1.3-1.767 2.25-2.25.95-.5 2.017-.75 3.2-.75Zm11.123 0c.733 0 1.367.083 1.9.25.533.167.925.325 1.175.475.583.367.933.133 1.05-.7h.525a41.362 41.362 0 0 0-.075 1.75c-.017.667-.025 1.567-.025 2.7h-.525a7.158 7.158 0 0 0-.45-1.825c-.217-.6-.542-1.092-.975-1.475-.433-.4-1-.6-1.7-.6-.45 0-.833.133-1.15.4-.3.267-.45.633-.45 1.1 0 .5.15.942.45 1.325.3.383.683.75 1.15 1.1.483.35.967.725 1.45 1.125.533.4 1.008.808 1.425 1.225.433.4.775.842 1.025 1.325.267.467.4 1.033.4 1.7 0 .75-.225 1.408-.675 1.975-.45.567-1.042 1.008-1.775 1.325-.733.317-1.55.475-2.45.475-.55 0-1.033-.058-1.45-.175a3.47 3.47 0 0 1-1-.4c-.25-.117-.475-.217-.675-.3a2.339 2.339 0 0 0-.55-.175c-.167-.017-.308.058-.425.225a1.958 1.958 0 0 0-.275.65h-.525a50.41 50.41 0 0 0 .075-1.95c.017-.767.025-1.783.025-3.05h.525c.1.9.283 1.692.55 2.375.283.683.658 1.225 1.125 1.625a2.522 2.522 0 0 0 1.65.575c.283 0 .542-.05.775-.15.25-.117.45-.292.6-.525.167-.233.25-.533.25-.9 0-.733-.233-1.342-.7-1.825a21.266 21.266 0 0 0-1.725-1.625 43.12 43.12 0 0 1-1.5-1.325 6.503 6.503 0 0 1-1.125-1.425c-.283-.517-.425-1.1-.425-1.75 0-.75.208-1.383.625-1.9a3.978 3.978 0 0 1 1.675-1.2 5.692 5.692 0 0 1 2.2-.425Zm9.945-6.175c.783 0 1.391.175 1.825.525.45.35.675.858.675 1.525 0 .667-.225 1.175-.675 1.525-.434.35-1.042.525-1.825.525-.784 0-1.4-.175-1.85-.525-.434-.35-.65-.858-.65-1.525 0-.667.216-1.175.65-1.525.45-.35 1.066-.525 1.85-.525Zm2.2 6.25v10.9c0 .7.108 1.175.325 1.425.233.25.625.375 1.175.375V732a66.073 66.073 0 0 0-1.475-.05c-.65-.033-1.309-.05-1.975-.05-.667 0-1.35.017-2.05.05-.684.017-1.2.033-1.55.05v-.525c.55 0 .933-.125 1.15-.375.233-.25.35-.725.35-1.425v-7.9c0-.75-.109-1.3-.325-1.65-.217-.367-.609-.55-1.175-.55v-.525c.533.05 1.05.075 1.55.075.75 0 1.458-.025 2.125-.075a18.034 18.034 0 0 0 1.875-.275Zm7.431 17.925c-1.083 0-2.033-.092-2.85-.275-.817-.167-1.45-.425-1.9-.775-.45-.333-.675-.742-.675-1.225 0-.5.233-.958.7-1.375.467-.4 1.183-.717 2.15-.95l.225.4c-.283.283-.483.558-.6.825a2.152 2.152 0 0 0-.175.825c0 .683.308 1.208.925 1.575s1.467.55 2.55.55c.75 0 1.4-.108 1.95-.325.55-.2.975-.492 1.275-.875.3-.383.45-.833.45-1.35 0-.483-.183-.892-.55-1.225-.35-.333-1.067-.5-2.15-.5h-1.45c-.717 0-1.333-.092-1.85-.275-.517-.183-.917-.442-1.2-.775-.267-.333-.4-.75-.4-1.25 0-.75.292-1.383.875-1.9.583-.533 1.392-1.025 2.425-1.475l.225.2a5.3 5.3 0 0 0-.725.525c-.217.2-.325.467-.325.8 0 .533.317.8.95.8h2.575c1 0 1.883.117 2.65.35.767.217 1.367.583 1.8 1.1.45.5.675 1.158.675 1.975 0 .833-.267 1.6-.8 2.3-.533.7-1.358 1.258-2.475 1.675-1.1.433-2.525.65-4.275.65Zm.325-10.025c-1 0-1.892-.142-2.675-.425-.767-.283-1.375-.717-1.825-1.3-.45-.6-.675-1.358-.675-2.275 0-.917.225-1.667.675-2.25.45-.583 1.058-1.017 1.825-1.3.783-.283 1.675-.425 2.675-.425.983 0 1.867.142 2.65.425.783.283 1.4.717 1.85 1.3.45.583.675 1.333.675 2.25s-.225 1.675-.675 2.275c-.45.583-1.067 1.017-1.85 1.3-.783.283-1.667.425-2.65.425Zm0-.45c.367 0 .658-.258.875-.775.233-.517.35-1.442.35-2.775s-.117-2.25-.35-2.75c-.217-.517-.508-.775-.875-.775-.383 0-.683.258-.9.775-.217.5-.325 1.417-.325 2.75s.108 2.258.325 2.775c.217.517.517.775.9.775Zm3.975-5.35-.525-.175a3.72 3.72 0 0 1 1.225-1.65c.567-.433 1.183-.65 1.85-.65.55 0 .958.15 1.225.45.283.3.425.692.425 1.175 0 .483-.133.858-.4 1.125-.25.25-.55.375-.9.375-.3 0-.575-.1-.825-.3-.25-.217-.392-.533-.425-.95-.033-.433.117-.975.45-1.625l.15.15c-.617.217-1.092.483-1.425.8-.317.317-.592.742-.825 1.275Zm14.413-2.175c.733 0 1.317.092 1.75.275.45.183.792.417 1.025.7.267.317.458.725.575 1.225.133.5.2 1.175.2 2.025v6.75c0 .7.108 1.175.325 1.425.233.25.625.375 1.175.375V732a65.602 65.602 0 0 0-1.5-.05 37.488 37.488 0 0 0-3.875 0c-.633.017-1.108.033-1.425.05v-.525c.467 0 .792-.125.975-.375.183-.25.275-.725.275-1.425v-7.95c0-.383-.042-.708-.125-.975-.083-.283-.225-.492-.425-.625-.2-.15-.483-.225-.85-.225-.383 0-.742.1-1.075.3-.317.2-.575.483-.775.85-.183.35-.275.75-.275 1.2v7.425c0 .7.092 1.175.275 1.425.183.25.508.375.975.375V732a59.905 59.905 0 0 0-1.375-.05c-.6-.033-1.208-.05-1.825-.05-.683 0-1.367.017-2.05.05-.683.017-1.2.033-1.55.05v-.525c.55 0 .933-.125 1.15-.375.233-.25.35-.725.35-1.425v-7.9c0-.75-.108-1.3-.325-1.65-.217-.367-.608-.55-1.175-.55v-.525c.533.05 1.05.075 1.55.075.75 0 1.458-.025 2.125-.075a18.034 18.034 0 0 0 1.875-.275v2.025c.4-.767.942-1.308 1.625-1.625.7-.317 1.5-.475 2.4-.475Z"/></g><g filter="url(#e)"><rect width="239" height="68" x="929" y="945" fill="#E6F9F6" rx="15" shape-rendering="crispEdges"/><path fill="#20BCA6" d="M1007.5 991.5c1.38 0 2.5-1.121 2.5-2.5v-20c0-1.379-1.12-2.5-2.5-2.5H995a2.502 2.502 0 0 0-2.5 2.5v20c0 1.379 1.121 2.5 2.5 2.5h12.5Zm-6.25-6.25c.33 0 .65.132.88.366.24.235.37.552.37.884 0 .332-.13.649-.37.884a1.238 1.238 0 0 1-1.76 0 1.231 1.231 0 0 1-.37-.884c0-.332.13-.649.37-.884.23-.234.55-.366.88-.366Zm40.23-13.95c-.07.917-.12 1.8-.15 2.65-.02.85-.03 1.5-.03 1.95 0 .367.01.708.03 1.025.01.317.03.592.05.825h-.58c-.33-1.483-.73-2.65-1.2-3.5-.47-.867-1-1.475-1.6-1.825a3.5 3.5 0 0 0-1.9-.55h-.3v14.275c0 .683.07 1.192.2 1.525.15.333.42.558.8.675.4.1.98.15 1.73.15v.5a191.525 191.525 0 0 0-5.1-.075c-.99 0-1.91.008-2.78.025-.87.017-1.57.033-2.1.05v-.5c.75 0 1.33-.05 1.73-.15.4-.117.66-.342.8-.675.13-.333.2-.842.2-1.525v-14.275h-.28c-.7 0-1.34.183-1.92.55-.59.35-1.11.95-1.58 1.8-.47.85-.87 2.025-1.22 3.525h-.58c.03-.233.05-.508.05-.825.02-.317.03-.658.03-1.025 0-.45-.02-1.1-.05-1.95-.02-.85-.06-1.733-.13-2.65.78.017 1.64.033 2.58.05.95.017 1.89.025 2.82.025h5.1c.95 0 1.89-.008 2.83-.025.93-.017 1.78-.033 2.55-.05Zm6.69 4.4c1.46 0 2.61.433 3.45 1.3.83.867 1.25 2.292 1.25 4.275h-8.03l-.02-.475h4.65c.03-.817 0-1.567-.1-2.25-.1-.7-.27-1.258-.5-1.675-.22-.417-.51-.625-.88-.625-.5 0-.92.358-1.27 1.075s-.57 1.933-.65 3.65l.1.175c-.04.183-.05.375-.05.575v.6c0 1.15.15 2.067.45 2.75.31.683.7 1.167 1.17 1.45.47.283.95.425 1.45.425.28 0 .6-.042.95-.125.35-.083.72-.258 1.1-.525.38-.267.75-.658 1.1-1.175l.43.15a6.42 6.42 0 0 1-.95 1.925 5.68 5.68 0 0 1-1.68 1.55c-.68.4-1.51.6-2.47.6-1.1 0-2.09-.225-2.95-.675-.87-.467-1.56-1.192-2.08-2.175-.5-1-.75-2.3-.75-3.9 0-1.583.28-2.883.83-3.9.55-1.017 1.3-1.767 2.25-2.25.95-.5 2.01-.75 3.2-.75Zm11.12 0c.73 0 1.36.083 1.9.25.53.167.92.325 1.17.475.59.367.94.133 1.05-.7h.53a34.89 34.89 0 0 0-.08 1.75c-.01.667-.02 1.567-.02 2.7h-.53a6.618 6.618 0 0 0-.45-1.825c-.21-.6-.54-1.092-.97-1.475-.44-.4-1-.6-1.7-.6-.45 0-.84.133-1.15.4-.3.267-.45.633-.45 1.1 0 .5.15.942.45 1.325.3.383.68.75 1.15 1.1.48.35.96.725 1.45 1.125.53.4 1.01.808 1.42 1.225.44.4.78.842 1.03 1.325.26.467.4 1.033.4 1.7 0 .75-.23 1.408-.68 1.975-.45.567-1.04 1.008-1.77 1.325-.74.317-1.55.475-2.45.475-.55 0-1.04-.058-1.45-.175-.4-.1-.74-.233-1-.4-.25-.117-.48-.217-.68-.3a2.2 2.2 0 0 0-.55-.175c-.16-.017-.31.058-.42.225-.12.167-.21.383-.28.65h-.52c.03-.533.06-1.183.07-1.95.02-.767.03-1.783.03-3.05h.52c.1.9.29 1.692.55 2.375.29.683.66 1.225 1.13 1.625.46.383 1.01.575 1.65.575.28 0 .54-.05.77-.15.25-.117.45-.292.6-.525.17-.233.25-.533.25-.9 0-.733-.23-1.342-.7-1.825-.46-.5-1.04-1.042-1.72-1.625a33.18 33.18 0 0 1-1.5-1.325 6.527 6.527 0 0 1-1.13-1.425c-.28-.517-.42-1.1-.42-1.75 0-.75.21-1.383.62-1.9.44-.533.99-.933 1.68-1.2a5.656 5.656 0 0 1 2.2-.425Zm12.02-3.725v4.075h2.7v.5h-2.7v10.225c0 .417.07.717.22.9.15.167.38.25.68.25.25 0 .51-.083.77-.25.29-.167.54-.45.78-.85l.4.25c-.32.683-.76 1.233-1.33 1.65-.55.417-1.27.625-2.17.625-.55 0-1.04-.075-1.48-.225a2.65 2.65 0 0 1-1.05-.625 2.668 2.668 0 0 1-.72-1.35c-.1-.55-.15-1.258-.15-2.125v-8.475h-2v-.5h2v-3.125c.78 0 1.5-.075 2.15-.225.66-.15 1.3-.392 1.9-.725Zm6.69-2.45c.78 0 1.39.175 1.82.525.45.35.68.858.68 1.525 0 .667-.23 1.175-.68 1.525-.43.35-1.04.525-1.82.525-.79 0-1.4-.175-1.85-.525-.44-.35-.65-.858-.65-1.525 0-.667.21-1.175.65-1.525.45-.35 1.06-.525 1.85-.525Zm2.2 6.25v10.9c0 .7.11 1.175.32 1.425.24.25.63.375 1.18.375V989c-.34-.017-.83-.033-1.48-.05-.65-.033-1.31-.05-1.97-.05-.67 0-1.35.017-2.05.05-.69.017-1.2.033-1.55.05v-.525c.55 0 .93-.125 1.15-.375.23-.25.35-.725.35-1.425v-7.9c0-.75-.11-1.3-.33-1.65-.21-.367-.61-.55-1.17-.55v-.525c.53.05 1.05.075 1.55.075.75 0 1.46-.025 2.12-.075a17.98 17.98 0 0 0 1.88-.275Zm12.1-.075c.74 0 1.32.092 1.75.275.45.183.79.417 1.03.7.26.317.46.725.57 1.225.14.5.2 1.175.2 2.025v6.75c0 .7.11 1.175.33 1.425.23.25.62.375 1.17.375V989c-.33-.017-.83-.033-1.5-.05a37.398 37.398 0 0 0-3.87 0c-.64.017-1.11.033-1.43.05v-.525c.47 0 .79-.125.98-.375.18-.25.27-.725.27-1.425v-7.95c0-.383-.04-.708-.12-.975-.09-.283-.23-.492-.43-.625-.2-.15-.48-.225-.85-.225-.38 0-.74.1-1.07.3-.32.2-.58.483-.78.85-.18.35-.27.75-.27 1.2v7.425c0 .7.09 1.175.27 1.425.19.25.51.375.98.375V989a61.25 61.25 0 0 0-1.38-.05c-.6-.033-1.21-.05-1.82-.05-.69 0-1.37.017-2.05.05-.69.017-1.2.033-1.55.05v-.525c.55 0 .93-.125 1.15-.375.23-.25.35-.725.35-1.425v-7.9c0-.75-.11-1.3-.33-1.65-.21-.367-.61-.55-1.17-.55v-.525c.53.05 1.05.075 1.55.075.75 0 1.46-.025 2.12-.075a17.98 17.98 0 0 0 1.88-.275v2.025c.4-.767.94-1.308 1.62-1.625.7-.317 1.5-.475 2.4-.475Zm10.66 18c-1.08 0-2.03-.092-2.85-.275-.82-.167-1.45-.425-1.9-.775-.45-.333-.67-.742-.67-1.225 0-.5.23-.958.7-1.375.46-.4 1.18-.717 2.15-.95l.22.4c-.28.283-.48.558-.6.825-.12.283-.17.558-.17.825 0 .683.3 1.208.92 1.575.62.367 1.47.55 2.55.55.75 0 1.4-.108 1.95-.325.55-.2.98-.492 1.28-.875.3-.383.45-.833.45-1.35 0-.483-.19-.892-.55-1.225-.35-.333-1.07-.5-2.15-.5h-1.45c-.72 0-1.34-.092-1.85-.275-.52-.183-.92-.442-1.2-.775-.27-.333-.4-.75-.4-1.25 0-.75.29-1.383.87-1.9.58-.533 1.39-1.025 2.43-1.475l.22.2c-.25.15-.49.325-.72.525-.22.2-.33.467-.33.8 0 .533.32.8.95.8h2.58c1 0 1.88.117 2.65.35.76.217 1.36.583 1.8 1.1.45.5.67 1.158.67 1.975 0 .833-.27 1.6-.8 2.3-.53.7-1.36 1.258-2.47 1.675-1.1.433-2.53.65-4.28.65Zm.33-10.025c-1 0-1.9-.142-2.68-.425-.77-.283-1.37-.717-1.82-1.3-.45-.6-.68-1.358-.68-2.275 0-.917.23-1.667.68-2.25.45-.583 1.05-1.017 1.82-1.3.78-.283 1.68-.425 2.68-.425.98 0 1.86.142 2.65.425.78.283 1.4.717 1.85 1.3.45.583.67 1.333.67 2.25s-.22 1.675-.67 2.275c-.45.583-1.07 1.017-1.85 1.3-.79.283-1.67.425-2.65.425Zm0-.45c.36 0 .65-.258.87-.775.23-.517.35-1.442.35-2.775s-.12-2.25-.35-2.75c-.22-.517-.51-.775-.87-.775-.39 0-.69.258-.9.775-.22.5-.33 1.417-.33 2.75s.11 2.258.33 2.775c.21.517.51.775.9.775Zm3.97-5.35-.52-.175a3.66 3.66 0 0 1 1.22-1.65c.57-.433 1.18-.65 1.85-.65.55 0 .96.15 1.23.45.28.3.42.692.42 1.175 0 .483-.13.858-.4 1.125-.25.25-.55.375-.9.375-.3 0-.57-.1-.82-.3-.25-.217-.4-.533-.43-.95-.03-.433.12-.975.45-1.625l.15.15c-.62.217-1.09.483-1.42.8-.32.317-.6.742-.83 1.275Z"/></g><g filter="url(#f)"><rect width="239" height="68" x="988" y="1171" fill="#E6F9F6" rx="15" shape-rendering="crispEdges"/><path fill="#099" d="M1044 1211.25a2.5 2.5 0 0 0 2.5-2.5v-12.5a2.5 2.5 0 0 0-2.5-2.5h-15a2.5 2.5 0 0 0-2.5 2.5v12.5a2.5 2.5 0 0 0 2.5 2.5h15Zm-17.5 2.5h20v2.5h-20v-2.5Z"/><path fill="#20BCA6" d="M1062.28 1197.3c.45.02 1.05.03 1.8.05.75.02 1.5.02 2.25.02.81 0 1.6 0 2.35-.02.76-.02 1.3-.03 1.62-.03 2.43 0 4.24.46 5.43 1.38 1.2.92 1.8 2.1 1.8 3.55 0 .6-.13 1.23-.38 1.9-.23.65-.64 1.26-1.22 1.82-.57.55-1.36 1-2.38 1.35-1 .35-2.27.53-3.8.53h-2.6v-.5h2.35c.92 0 1.61-.23 2.08-.68.48-.45.8-1.04.97-1.77.18-.73.28-1.53.28-2.38 0-1.58-.21-2.76-.63-3.55-.42-.78-1.12-1.17-2.12-1.17-.62 0-1.02.14-1.2.42-.17.29-.25.86-.25 1.73v12.2c0 .67.06 1.17.2 1.5.13.32.4.52.8.62.4.1.97.16 1.72.18v.55c-.55-.02-1.26-.03-2.12-.05-.87-.02-1.78-.03-2.73-.03-.75 0-1.49.01-2.22.03-.72.02-1.39.03-2 .05v-.5c.51-.03.9-.1 1.15-.2.26-.1.44-.3.52-.6.1-.3.15-.75.15-1.35v-12.4c0-.62-.05-1.07-.15-1.35-.08-.3-.26-.5-.52-.6-.25-.12-.64-.18-1.15-.2v-.5Zm25.12 4.4c.57 0 1.02.12 1.35.37.34.24.58.55.73.93.15.37.22.73.22 1.1 0 .68-.2 1.23-.6 1.65-.38.42-.89.62-1.52.62-.67 0-1.18-.15-1.53-.45-.35-.31-.52-.73-.52-1.25 0-.51.11-.94.32-1.27.24-.33.52-.62.85-.85-.25-.03-.49 0-.72.1-.27.07-.52.19-.75.37-.23.19-.43.4-.6.65-.17.25-.3.53-.4.83-.08.28-.13.57-.13.87v7.05c0 .8.18 1.35.53 1.63.37.28.94.42 1.72.42v.53c-.38-.02-.95-.03-1.7-.05-.75-.03-1.52-.05-2.32-.05-.72 0-1.44.02-2.18.05-.71.02-1.25.03-1.6.05v-.53c.55 0 .94-.12 1.15-.37.24-.25.35-.73.35-1.43v-7.9c0-.75-.1-1.3-.32-1.65-.22-.36-.61-.55-1.18-.55v-.52c.54.05 1.05.07 1.55.07.75 0 1.46-.02 2.13-.07.68-.07 1.31-.16 1.87-.28v2.05c.2-.43.46-.8.78-1.12.33-.32.71-.56 1.12-.73.44-.18.9-.27 1.4-.27Zm9.25 0c1.25 0 2.34.22 3.28.68.95.43 1.68 1.14 2.2 2.14.53 1 .8 2.34.8 4 0 1.67-.27 3-.8 4-.52 1-1.25 1.73-2.2 2.18-.94.43-2.03.65-3.28.65-1.23 0-2.32-.22-3.27-.65-.94-.45-1.67-1.18-2.2-2.18-.54-1-.8-2.33-.8-4 0-1.66.26-3 .8-4 .53-1 1.26-1.71 2.2-2.14.95-.46 2.04-.68 3.27-.68Zm0 .5c-.58 0-1.07.5-1.47 1.5-.39.98-.58 2.59-.58 4.82 0 2.24.19 3.85.58 4.85.4.99.89 1.48 1.47 1.48.6 0 1.09-.49 1.48-1.48.38-1 .57-2.61.57-4.85 0-2.23-.19-3.84-.57-4.82-.39-1-.88-1.5-1.48-1.5Zm20.29-6.75v16.8c0 .75.1 1.31.32 1.67.23.35.63.53 1.18.53v.52c-.52-.05-1.04-.07-1.55-.07-.75 0-1.46.02-2.13.07-.67.06-1.29.15-1.87.28v-16.8c0-.75-.11-1.3-.33-1.65-.2-.37-.59-.55-1.17-.55v-.53c.53.05 1.05.08 1.55.08.76 0 1.48-.03 2.15-.08.66-.06 1.28-.15 1.85-.27Zm-6.73 6.25c.73 0 1.37.11 1.9.32.53.2.98.55 1.33 1.03l-.3.25c-.22-.28-.49-.49-.8-.63-.3-.13-.62-.2-.95-.2-.8 0-1.43.5-1.88 1.5-.43.99-.65 2.5-.65 4.55 0 1.44.08 2.57.25 3.4.18.82.43 1.4.73 1.73.31.33.66.5 1.05.5.51 0 .97-.19 1.37-.58.42-.4.63-.92.65-1.57l.08 1.05c-.3.77-.72 1.34-1.25 1.72-.52.39-1.19.58-2 .58-.97 0-1.85-.24-2.63-.73-.77-.48-1.37-1.22-1.82-2.22-.44-1.02-.65-2.33-.65-3.95 0-1.52.23-2.77.7-3.75.48-1 1.14-1.75 1.97-2.25.85-.5 1.82-.75 2.9-.75Zm22.01.07v10.5c0 .75.11 1.31.33 1.68.23.35.62.52 1.17.52v.53c-.51-.05-1.03-.08-1.55-.08-.76 0-1.48.03-2.15.08-.65.05-1.26.14-1.85.28v-2.03c-.4.75-.95 1.29-1.65 1.62-.68.32-1.46.48-2.35.48-.73 0-1.32-.09-1.77-.27-.43-.19-.77-.43-1-.73-.27-.3-.46-.7-.58-1.2-.11-.52-.17-1.19-.17-2.03v-6.35c0-.75-.11-1.3-.33-1.65-.21-.36-.6-.55-1.17-.55v-.52c.53.05 1.05.07 1.55.07.77 0 1.48-.02 2.15-.07.67-.07 1.28-.16 1.85-.28v10.55c0 .39.04.71.12.98.09.27.23.47.43.62.2.15.47.23.8.23.38 0 .73-.1 1.05-.3.32-.2.57-.48.77-.83.2-.36.3-.77.3-1.22v-7.03c0-.75-.1-1.3-.32-1.65-.22-.36-.61-.55-1.18-.55v-.52c.54.05 1.05.07 1.55.07.77 0 1.49-.02 2.15-.07.67-.07 1.29-.16 1.85-.28Zm9.11-.07c.7 0 1.33.07 1.88.22.55.14 1 .31 1.35.53.43.27.78.61 1.05 1.02.26.42.4.9.4 1.45 0 .64-.21 1.17-.63 1.6-.42.42-.94.63-1.57.63-.65 0-1.17-.19-1.55-.58-.37-.38-.55-.87-.55-1.47 0-.58.18-1.08.55-1.48.36-.4.8-.66 1.3-.8a1.53 1.53 0 0 0-.53-.32c-.2-.08-.44-.12-.72-.12-.57 0-1.05.16-1.43.49-.38.32-.7.76-.95 1.33-.23.55-.41 1.17-.52 1.87-.1.69-.15 1.4-.15 2.13 0 1.23.15 2.2.47 2.9.33.68.74 1.17 1.23 1.45.5.27 1 .4 1.52.4.27 0 .58-.04.93-.13.35-.08.71-.25 1.1-.52.4-.27.77-.67 1.12-1.2l.43.15c-.19.65-.5 1.29-.93 1.92-.43.64-.99 1.16-1.67 1.58-.69.4-1.52.6-2.5.6-1.1 0-2.1-.22-3-.68-.89-.45-1.6-1.17-2.13-2.17-.53-1-.8-2.31-.8-3.92 0-1.57.28-2.86.83-3.86.55-1.01 1.3-1.77 2.25-2.27.96-.5 2.04-.75 3.22-.75Zm11.38-3.73v4.08h2.7v.5h-2.7v10.22c0 .42.07.72.22.9.15.17.38.25.68.25.25 0 .5-.08.77-.25.28-.16.54-.45.78-.85l.4.25c-.32.69-.76 1.24-1.33 1.65-.55.42-1.27.63-2.17.63-.55 0-1.05-.07-1.48-.22-.42-.14-.77-.35-1.05-.63-.37-.37-.61-.82-.72-1.35-.1-.55-.15-1.26-.15-2.13v-8.47h-2v-.5h2v-3.13c.78 0 1.5-.07 2.15-.22.66-.15 1.3-.39 1.9-.73Zm6.68-2.45c.79 0 1.4.18 1.83.53.45.35.67.86.67 1.52 0 .67-.22 1.18-.67 1.53-.43.35-1.04.52-1.83.52-.78 0-1.4-.17-1.85-.52-.43-.35-.65-.86-.65-1.53 0-.66.22-1.17.65-1.52.45-.35 1.07-.53 1.85-.53Zm2.2 6.25v10.9c0 .7.11 1.18.33 1.43.23.25.62.37 1.17.37v.53c-.33-.02-.82-.03-1.47-.05-.65-.03-1.31-.05-1.98-.05-.66 0-1.35.02-2.05.05-.68.02-1.2.03-1.55.05v-.53c.55 0 .94-.12 1.15-.37.24-.25.35-.73.35-1.43v-7.9c0-.75-.1-1.3-.32-1.65-.22-.36-.61-.55-1.18-.55v-.52c.54.05 1.05.07 1.55.07.75 0 1.46-.02 2.13-.07.68-.07 1.31-.16 1.87-.28Zm9.09-.07c1.25 0 2.34.22 3.27.68.95.43 1.68 1.14 2.2 2.14.53 1 .8 2.34.8 4 0 1.67-.27 3-.8 4-.52 1-1.25 1.73-2.2 2.18-.93.43-2.02.65-3.27.65-1.24 0-2.33-.22-3.28-.65-.93-.45-1.67-1.18-2.2-2.18-.53-1-.8-2.33-.8-4 0-1.66.27-3 .8-4s1.27-1.71 2.2-2.14c.95-.46 2.04-.68 3.28-.68Zm0 .5c-.59 0-1.08.5-1.48 1.5-.38.98-.57 2.59-.57 4.82 0 2.24.19 3.85.57 4.85.4.99.89 1.48 1.48 1.48.6 0 1.09-.49 1.47-1.48.38-1 .58-2.61.58-4.85 0-2.23-.2-3.84-.58-4.82-.38-1-.87-1.5-1.47-1.5Zm17.28-.5c.73 0 1.32.09 1.75.27.45.19.79.42 1.02.7.27.32.46.73.58 1.23.13.5.2 1.17.2 2.02v6.75c0 .7.11 1.18.32 1.43.24.25.63.37 1.18.37v.53c-.33-.02-.83-.03-1.5-.05-.65-.03-1.28-.05-1.9-.05-.68 0-1.34.02-1.98.05-.63.02-1.1.03-1.42.05v-.53c.47 0 .79-.12.97-.37.19-.25.28-.73.28-1.43v-7.95c0-.38-.04-.7-.13-.97-.08-.28-.22-.49-.42-.63-.2-.15-.48-.22-.85-.22-.38 0-.74.1-1.08.3-.31.2-.57.48-.77.85-.18.35-.28.75-.28 1.2v7.42c0 .7.1 1.18.28 1.43.18.25.51.37.97.37v.53c-.31-.02-.77-.03-1.37-.05-.6-.03-1.21-.05-1.83-.05-.68 0-1.36.02-2.05.05-.68.02-1.2.03-1.55.05v-.53c.55 0 .94-.12 1.15-.37.24-.25.35-.73.35-1.43v-7.9c0-.75-.1-1.3-.32-1.65-.22-.36-.61-.55-1.18-.55v-.52c.54.05 1.05.07 1.55.07.75 0 1.46-.02 2.13-.07.68-.07 1.31-.16 1.87-.28v2.03c.4-.77.95-1.31 1.63-1.63.7-.31 1.5-.47 2.4-.47Z"/></g><g filter="url(#g)"><rect width="239" height="68" x="332" y="860" fill="#DEDBFC" rx="15" shape-rendering="crispEdges"/><path fill="#5B4ECD" d="M417.5 884h-20a2.502 2.502 0 0 0-2.5 2.5v15c0 1.379 1.121 2.5 2.5 2.5h20c1.379 0 2.5-1.121 2.5-2.5v-15c0-1.379-1.121-2.5-2.5-2.5Zm-9.375 15a3.125 3.125 0 1 1 0-6.25 3.088 3.088 0 0 1 1.875.64 3.107 3.107 0 0 0-1.25 2.485c0 1.019.495 1.915 1.25 2.485a3.088 3.088 0 0 1-1.875.64Zm5 0a3.125 3.125 0 1 1-.001-6.25 3.125 3.125 0 0 1 .001 6.25Zm28.175-12.7c3.4 0 5.917.75 7.55 2.25 1.65 1.483 2.475 3.617 2.475 6.4 0 1.817-.408 3.408-1.225 4.775-.8 1.35-1.967 2.4-3.5 3.15S443.225 904 441.075 904c-.267 0-.617-.008-1.05-.025a35.184 35.184 0 0 0-1.375-.025 35.23 35.23 0 0 0-1.275-.025c-.783 0-1.55.008-2.3.025-.75 0-1.35.017-1.8.05v-.5c.517-.033.9-.1 1.15-.2.267-.1.442-.3.525-.6.1-.3.15-.75.15-1.35v-12.4c0-.617-.05-1.067-.15-1.35-.083-.3-.258-.5-.525-.6-.25-.117-.633-.183-1.15-.2v-.5c.45.017 1.05.042 1.8.075.75.017 1.5.017 2.25 0 .6-.017 1.283-.033 2.05-.05a88.984 88.984 0 0 1 1.925-.025Zm.175.45c-.767 0-1.267.142-1.5.425-.233.283-.35.858-.35 1.725v12.5c0 .867.117 1.442.35 1.725.25.283.758.425 1.525.425 1.267 0 2.275-.325 3.025-.975.75-.667 1.283-1.633 1.6-2.9.333-1.267.5-2.808.5-4.625 0-1.867-.175-3.408-.525-4.625-.35-1.233-.908-2.15-1.675-2.75-.75-.617-1.733-.925-2.95-.925Zm17.974 3.95c1.467 0 2.617.433 3.45 1.3.834.867 1.25 2.292 1.25 4.275h-8.025l-.025-.475h4.65c.034-.817 0-1.567-.1-2.25-.1-.7-.266-1.258-.5-1.675-.216-.417-.508-.625-.875-.625-.5 0-.925.358-1.275 1.075-.35.717-.566 1.933-.65 3.65l.1.175c-.033.183-.05.375-.05.575v.6c0 1.15.15 2.067.45 2.75.317.683.709 1.167 1.175 1.45.467.283.95.425 1.45.425.284 0 .6-.042.95-.125.35-.083.717-.258 1.1-.525.384-.267.75-.658 1.1-1.175l.425.15c-.183.65-.5 1.292-.95 1.925a5.53 5.53 0 0 1-1.675 1.55c-.683.4-1.508.6-2.475.6-1.1 0-2.083-.225-2.95-.675-.866-.467-1.558-1.192-2.075-2.175-.5-1-.75-2.3-.75-3.9 0-1.583.275-2.883.825-3.9.55-1.017 1.3-1.767 2.25-2.25.95-.5 2.017-.75 3.2-.75Zm15.073-6.25c.783 0 1.425.042 1.925.125.517.083.95.2 1.3.35.367.133.7.292 1 .475.267.167.508.417.725.75.217.317.325.667.325 1.05 0 .633-.217 1.133-.65 1.5-.417.35-1.067.525-1.95.525-.833 0-1.475-.175-1.925-.525-.45-.35-.675-.833-.675-1.45 0-.5.167-.925.5-1.275.35-.35.825-.6 1.425-.75-.133-.083-.342-.15-.625-.2a3.897 3.897 0 0 0-.9-.1c-.75 0-1.383.167-1.9.5-.5.333-.9.775-1.2 1.325-.233.417-.408.942-.525 1.575-.1.617-.15 1.533-.15 2.75h2.625c.933 0 1.725-.008 2.375-.025a46.958 46.958 0 0 0 1.775-.075c.533-.05 1.067-.117 1.6-.2v10.9c0 .7.125 1.175.375 1.425.267.25.708.375 1.325.375V904c-.35-.017-.867-.033-1.55-.05a43 43 0 0 0-4.15 0c-.683.017-1.2.033-1.55.05v-.525c.55 0 .933-.125 1.15-.375.233-.25.35-.725.35-1.425v-7.9c0-.75-.125-1.3-.375-1.65-.233-.367-.675-.55-1.325-.55h-2.625v10.1c0 .717.167 1.2.5 1.45.35.233.833.35 1.45.35V904c-.4-.017-.958-.033-1.675-.05a47.84 47.84 0 0 0-4.425 0c-.7.017-1.233.033-1.6.05v-.525c.617 0 1.05-.125 1.3-.375.267-.25.4-.725.4-1.425v-10.1h-1.8v-.5h1.8c0-1.05.175-1.975.525-2.775a6.258 6.258 0 0 1 1.525-2.15c.617-.6 1.408-1.033 2.375-1.3.967-.267 1.942-.4 2.925-.4Zm17.371 6.25c.733 0 1.317.092 1.75.275.45.183.792.417 1.025.7.267.317.458.725.575 1.225.133.5.2 1.175.2 2.025v6.75c0 .7.108 1.175.325 1.425.233.25.625.375 1.175.375V904a65.602 65.602 0 0 0-1.5-.05 37.488 37.488 0 0 0-3.875 0c-.633.017-1.108.033-1.425.05v-.525c.467 0 .792-.125.975-.375.183-.25.275-.725.275-1.425v-7.95c0-.383-.042-.708-.125-.975-.083-.283-.225-.492-.425-.625-.2-.15-.483-.225-.85-.225-.383 0-.742.1-1.075.3-.317.2-.575.483-.775.85-.183.35-.275.75-.275 1.2v7.425c0 .7.092 1.175.275 1.425.183.25.508.375.975.375V904a59.905 59.905 0 0 0-1.375-.05c-.6-.033-1.208-.05-1.825-.05-.683 0-1.367.017-2.05.05-.683.017-1.2.033-1.55.05v-.525c.55 0 .933-.125 1.15-.375.233-.25.35-.725.35-1.425v-7.9c0-.75-.108-1.3-.325-1.65-.217-.367-.608-.55-1.175-.55v-.525c.533.05 1.05.075 1.55.075.75 0 1.458-.025 2.125-.075a18.034 18.034 0 0 0 1.875-.275v2.025c.4-.767.942-1.308 1.625-1.625.7-.317 1.5-.475 2.4-.475Zm12.454 0c1.466 0 2.616.433 3.45 1.3.833.867 1.25 2.292 1.25 4.275h-8.025l-.025-.475h4.65c.033-.817 0-1.567-.1-2.25-.1-.7-.267-1.258-.5-1.675-.217-.417-.509-.625-.875-.625-.5 0-.925.358-1.275 1.075-.35.717-.567 1.933-.65 3.65l.1.175c-.034.183-.05.375-.05.575v.6c0 1.15.15 2.067.45 2.75.316.683.708 1.167 1.175 1.45.466.283.95.425 1.45.425.283 0 .6-.042.95-.125.35-.083.716-.258 1.1-.525.383-.267.75-.658 1.1-1.175l.425.15c-.184.65-.5 1.292-.95 1.925a5.553 5.553 0 0 1-1.675 1.55c-.684.4-1.509.6-2.475.6-1.1 0-2.084-.225-2.95-.675-.867-.467-1.559-1.192-2.075-2.175-.5-1-.75-2.3-.75-3.9 0-1.583.275-2.883.825-3.9.55-1.017 1.3-1.767 2.25-2.25.95-.5 2.016-.75 3.2-.75Z"/></g><g filter="url(#h)"><rect width="239" height="68" x="431" y="1103" fill="#DEDBFC" rx="15" shape-rendering="crispEdges"/><path fill="#5B4ECD" d="M505.75 1147h7.5v2.5h-7.5v-2.5Zm9.882-7.86c1.288-1.51 2.618-3.07 2.618-5.89 0-4.82-3.926-8.75-8.75-8.75s-8.75 3.93-8.75 8.75c0 2.86 1.334 4.41 2.626 5.91.448.52.912 1.07 1.355 1.69.18.26.475 1.24.739 2.4h-.99v2.5h10.04v-2.5h-.988c.267-1.16.563-2.15.742-2.41.44-.62.907-1.17 1.358-1.7Zm27.818-9.84v.5c-.517.02-.908.08-1.175.2-.267.1-.442.3-.525.6-.083.28-.125.73-.125 1.35v12.4c0 .6.042 1.05.125 1.35.1.3.275.5.525.6.267.1.658.17 1.175.2v.5c-.467-.03-1.067-.05-1.8-.05a90.29 90.29 0 0 0-4.575 0c-.75 0-1.35.02-1.8.05v-.5c.517-.03.9-.1 1.15-.2.267-.1.442-.3.525-.6.1-.3.15-.75.15-1.35v-12.4c0-.62-.05-1.07-.15-1.35-.083-.3-.258-.5-.525-.6-.25-.12-.633-.18-1.15-.2v-.5c.45.02 1.05.03 1.8.05.75.02 1.55.02 2.4.02.733 0 1.458 0 2.175-.02.733-.02 1.333-.03 1.8-.05Zm13.429-1.85v16.8c0 .75.108 1.31.325 1.67.233.35.625.53 1.175.53v.52a16.09 16.09 0 0 0-1.55-.07c-.75 0-1.459.02-2.125.07-.667.06-1.292.15-1.875.28v-16.8c0-.75-.109-1.3-.325-1.65-.2-.37-.592-.55-1.175-.55v-.53c.533.05 1.05.08 1.55.08.766 0 1.483-.03 2.15-.08a15.81 15.81 0 0 0 1.85-.27Zm-6.725 6.25c.733 0 1.366.11 1.9.32.533.2.975.55 1.325 1.03l-.3.25a2.05 2.05 0 0 0-.8-.63c-.3-.13-.617-.2-.95-.2-.8 0-1.425.5-1.875 1.5-.434.99-.65 2.5-.65 4.55 0 1.44.083 2.57.25 3.4.183.82.425 1.4.725 1.73.316.33.666.5 1.05.5.516 0 .975-.19 1.375-.58.416-.4.633-.92.65-1.57l.075 1.05c-.3.77-.717 1.34-1.25 1.72-.517.39-1.184.58-2 .58-.967 0-1.842-.24-2.625-.73-.767-.48-1.375-1.22-1.825-2.22-.434-1.02-.65-2.33-.65-3.95 0-1.52.233-2.77.7-3.75.483-1 1.141-1.75 1.975-2.25.85-.5 1.816-.75 2.9-.75Zm15.763 0c1.467 0 2.617.43 3.45 1.3.833.87 1.25 2.29 1.25 4.27h-8.025l-.025-.47h4.65c.033-.82 0-1.57-.1-2.25-.1-.7-.267-1.26-.5-1.68-.217-.41-.508-.62-.875-.62-.5 0-.925.36-1.275 1.07-.35.72-.567 1.94-.65 3.65l.1.18c-.033.18-.05.37-.05.57v.6c0 1.15.15 2.07.45 2.75.317.69.708 1.17 1.175 1.45.467.29.95.43 1.45.43.283 0 .6-.04.95-.13.35-.08.717-.25 1.1-.52.383-.27.75-.66 1.1-1.18l.425.15c-.183.65-.5 1.3-.95 1.93a5.542 5.542 0 0 1-1.675 1.55c-.683.4-1.508.6-2.475.6-1.1 0-2.083-.22-2.95-.68-.867-.46-1.558-1.19-2.075-2.17-.5-1-.75-2.3-.75-3.9 0-1.58.275-2.88.825-3.9.55-1.02 1.3-1.77 2.25-2.25.95-.5 2.017-.75 3.2-.75Zm9.448 13.48c-.767 0-1.4-.15-1.9-.43-.5-.3-.867-.69-1.1-1.18a3.5 3.5 0 0 1-.35-1.55c0-.7.158-1.27.475-1.72a3.68 3.68 0 0 1 1.275-1.08c.516-.28 1.058-.51 1.625-.7.566-.18 1.108-.35 1.625-.52.516-.18.933-.39 1.25-.63.316-.25.475-.56.475-.95v-2.07c0-.37-.059-.71-.175-1.03-.1-.33-.292-.6-.575-.8-.267-.21-.642-.32-1.125-.32-.3 0-.592.04-.875.12-.284.09-.534.22-.75.4.533.19.925.46 1.175.83.266.37.4.77.4 1.22 0 .62-.217 1.11-.65 1.48-.417.35-.917.52-1.5.52-.634 0-1.125-.2-1.475-.6-.334-.4-.5-.88-.5-1.45 0-.5.125-.91.375-1.25.25-.35.616-.66 1.1-.95.483-.28 1.066-.49 1.75-.62.683-.13 1.408-.2 2.175-.2.783 0 1.5.08 2.15.25.666.15 1.233.46 1.7.92.366.39.6.85.7 1.4.1.55.15 1.25.15 2.1v6.75c0 .42.033.71.1.88.083.15.208.22.375.22.15 0 .291-.04.425-.12.133-.08.266-.18.4-.28l.275.43c-.367.3-.8.53-1.3.7-.5.15-1.042.23-1.625.23-.667 0-1.192-.09-1.575-.26-.367-.18-.634-.42-.8-.72-.15-.3-.234-.63-.25-1-.367.6-.825 1.08-1.375 1.45-.55.35-1.242.53-2.075.53Zm2.075-1.81c.266 0 .5-.05.7-.15.216-.11.416-.3.6-.57v-5.2a2.82 2.82 0 0 1-.55.67c-.217.2-.45.41-.7.63-.25.2-.492.42-.725.67-.217.25-.4.55-.55.9-.134.34-.2.75-.2 1.23 0 .65.133 1.12.4 1.4.266.28.608.42 1.025.42Zm13.06-15.4v4.08h2.7v.5h-2.7v10.22c0 .42.075.72.225.9.15.17.375.25.675.25.25 0 .508-.08.775-.25.283-.16.542-.45.775-.85l.4.25c-.317.69-.758 1.24-1.325 1.65-.55.42-1.275.63-2.175.63-.55 0-1.042-.07-1.475-.22a2.678 2.678 0 0 1-1.05-.63 2.7 2.7 0 0 1-.725-1.35c-.1-.55-.15-1.26-.15-2.13v-8.47h-2v-.5h2v-3.13c.783 0 1.5-.07 2.15-.22.667-.15 1.3-.39 1.9-.73Zm9.768 3.73c1.466 0 2.616.43 3.45 1.3.833.87 1.25 2.29 1.25 4.27h-8.025l-.025-.47h4.65c.033-.82 0-1.57-.1-2.25-.1-.7-.267-1.26-.5-1.68-.217-.41-.509-.62-.875-.62-.5 0-.925.36-1.275 1.07-.35.72-.567 1.94-.65 3.65l.1.18c-.034.18-.05.37-.05.57v.6c0 1.15.15 2.07.45 2.75.316.69.708 1.17 1.175 1.45.466.29.95.43 1.45.43.283 0 .6-.04.95-.13.35-.08.716-.25 1.1-.52.383-.27.75-.66 1.1-1.18l.425.15c-.184.65-.5 1.3-.95 1.93a5.553 5.553 0 0 1-1.675 1.55c-.684.4-1.509.6-2.475.6-1.1 0-2.084-.22-2.95-.68-.867-.46-1.559-1.19-2.075-2.17-.5-1-.75-2.3-.75-3.9 0-1.58.275-2.88.825-3.9.55-1.02 1.3-1.77 2.25-2.25.95-.5 2.016-.75 3.2-.75Z"/></g><path fill="#5B4ECD" d="m150.6 1517.1-4.12 13.9h-2.58l-2.92-10.52-3.1 10.52-2.56.02-3.94-13.92h2.42l2.88 11.32 3.12-11.32h2.56l2.9 11.26 2.9-11.26h2.44Zm11.98 8.12c0 .41-.026.79-.08 1.12h-8.42c.067.88.394 1.59.98 2.12.587.53 1.307.8 2.16.8 1.227 0 2.094-.51 2.6-1.54h2.46a4.995 4.995 0 0 1-1.82 2.5c-.866.64-1.946.96-3.24.96-1.053 0-2-.23-2.84-.7a5.26 5.26 0 0 1-1.96-2c-.466-.87-.7-1.87-.7-3s.227-2.13.68-2.98a4.926 4.926 0 0 1 1.94-2c.84-.47 1.8-.7 2.88-.7 1.04 0 1.967.23 2.78.68a4.74 4.74 0 0 1 1.9 1.92c.454.81.68 1.75.68 2.82Zm-2.38-.72c-.013-.84-.313-1.51-.9-2.02-.586-.51-1.313-.76-2.18-.76-.786 0-1.46.25-2.02.76-.56.49-.893 1.17-1 2.02h6.1Zm14.724.72c0 .41-.026.79-.08 1.12h-8.42c.067.88.394 1.59.98 2.12.587.53 1.307.8 2.16.8 1.227 0 2.094-.51 2.6-1.54h2.46a4.995 4.995 0 0 1-1.82 2.5c-.866.64-1.946.96-3.24.96-1.053 0-2-.23-2.84-.7a5.26 5.26 0 0 1-1.96-2c-.466-.87-.7-1.87-.7-3s.227-2.13.68-2.98a4.926 4.926 0 0 1 1.94-2c.84-.47 1.8-.7 2.88-.7 1.04 0 1.967.23 2.78.68a4.74 4.74 0 0 1 1.9 1.92c.454.81.68 1.75.68 2.82Zm-2.38-.72c-.013-.84-.313-1.51-.9-2.02-.586-.51-1.313-.76-2.18-.76-.786 0-1.46.25-2.02.76-.56.49-.893 1.17-1 2.02h6.1Zm8.984 1 5.08 5.5h-3.08l-4.08-4.74v4.74h-2.28v-14.8h2.28v8.6l4-4.82h3.16l-5.08 5.52Zm11.31-7v-2.08h4.16V1531h-2.3v-12.5h-1.86Zm107.762-1.4-4.12 13.9h-2.58l-2.92-10.52-3.1 10.52-2.56.02-3.94-13.92h2.42l2.88 11.32 3.12-11.32h2.56l2.9 11.26 2.9-11.26h2.44Zm11.98 8.12c0 .41-.026.79-.08 1.12h-8.42c.067.88.394 1.59.98 2.12.587.53 1.307.8 2.16.8 1.227 0 2.094-.51 2.6-1.54h2.46a4.995 4.995 0 0 1-1.82 2.5c-.866.64-1.946.96-3.24.96-1.053 0-2-.23-2.84-.7a5.26 5.26 0 0 1-1.96-2c-.466-.87-.7-1.87-.7-3s.227-2.13.68-2.98a4.926 4.926 0 0 1 1.94-2c.84-.47 1.8-.7 2.88-.7 1.04 0 1.967.23 2.78.68a4.74 4.74 0 0 1 1.9 1.92c.454.81.68 1.75.68 2.82Zm-2.38-.72c-.013-.84-.313-1.51-.9-2.02-.586-.51-1.313-.76-2.18-.76-.786 0-1.46.25-2.02.76-.56.49-.893 1.17-1 2.02h6.1Zm14.724.72c0 .41-.026.79-.08 1.12h-8.42c.067.88.394 1.59.98 2.12.587.53 1.307.8 2.16.8 1.227 0 2.094-.51 2.6-1.54h2.46a4.995 4.995 0 0 1-1.82 2.5c-.866.64-1.946.96-3.24.96-1.053 0-2-.23-2.84-.7a5.26 5.26 0 0 1-1.96-2c-.466-.87-.7-1.87-.7-3s.227-2.13.68-2.98a4.926 4.926 0 0 1 1.94-2c.84-.47 1.8-.7 2.88-.7 1.04 0 1.967.23 2.78.68a4.74 4.74 0 0 1 1.9 1.92c.454.81.68 1.75.68 2.82Zm-2.38-.72c-.013-.84-.313-1.51-.9-2.02-.586-.51-1.313-.76-2.18-.76-.786 0-1.46.25-2.02.76-.56.49-.893 1.17-1 2.02h6.1Zm8.984 1 5.08 5.5h-3.08l-4.08-4.74v4.74h-2.28v-14.8h2.28v8.6l4-4.82h3.16l-5.08 5.52Zm12.87 2.4c1.28-1.11 2.286-2.01 3.02-2.72.746-.72 1.366-1.47 1.86-2.24.493-.77.74-1.55.74-2.32 0-.8-.194-1.43-.58-1.88-.374-.45-.967-.68-1.78-.68-.787 0-1.4.25-1.84.76-.427.49-.654 1.16-.68 2h-2.2c.04-1.52.493-2.68 1.36-3.48.88-.81 1.993-1.22 3.34-1.22 1.453 0 2.586.4 3.4 1.2.826.8 1.24 1.87 1.24 3.2 0 .96-.247 1.89-.74 2.78-.48.88-1.06 1.67-1.74 2.38-.667.69-1.52 1.5-2.56 2.42l-.9.8h6.34v1.9h-9.72v-1.66l1.44-1.24Zm100.202-10.8-4.12 13.9h-2.58l-2.92-10.52-3.1 10.52-2.56.02-3.94-13.92h2.42l2.88 11.32 3.12-11.32h2.56l2.9 11.26 2.9-11.26h2.44Zm11.98 8.12c0 .41-.026.79-.08 1.12h-8.42c.067.88.394 1.59.98 2.12.587.53 1.307.8 2.16.8 1.227 0 2.094-.51 2.6-1.54h2.46a4.995 4.995 0 0 1-1.82 2.5c-.866.64-1.946.96-3.24.96-1.053 0-2-.23-2.84-.7a5.26 5.26 0 0 1-1.96-2c-.466-.87-.7-1.87-.7-3s.227-2.13.68-2.98a4.926 4.926 0 0 1 1.94-2c.84-.47 1.8-.7 2.88-.7 1.04 0 1.967.23 2.78.68a4.74 4.74 0 0 1 1.9 1.92c.454.81.68 1.75.68 2.82Zm-2.38-.72c-.013-.84-.313-1.51-.9-2.02-.586-.51-1.313-.76-2.18-.76-.786 0-1.46.25-2.02.76-.56.49-.893 1.17-1 2.02h6.1Zm14.724.72c0 .41-.026.79-.08 1.12h-8.42c.067.88.394 1.59.98 2.12.587.53 1.307.8 2.16.8 1.227 0 2.094-.51 2.6-1.54h2.46a4.995 4.995 0 0 1-1.82 2.5c-.866.64-1.946.96-3.24.96-1.053 0-2-.23-2.84-.7a5.26 5.26 0 0 1-1.96-2c-.466-.87-.7-1.87-.7-3s.227-2.13.68-2.98a4.926 4.926 0 0 1 1.94-2c.84-.47 1.8-.7 2.88-.7 1.04 0 1.967.23 2.78.68a4.74 4.74 0 0 1 1.9 1.92c.454.81.68 1.75.68 2.82Zm-2.38-.72c-.013-.84-.313-1.51-.9-2.02-.586-.51-1.313-.76-2.18-.76-.786 0-1.46.25-2.02.76-.56.49-.893 1.17-1 2.02h6.1Zm8.984 1 5.08 5.5h-3.08l-4.08-4.74v4.74h-2.28v-14.8h2.28v8.6l4-4.82h3.16l-5.08 5.52Zm11.57-5.48c.08-1.24.553-2.21 1.42-2.9.88-.69 2-1.04 3.36-1.04.933 0 1.74.17 2.42.5.68.33 1.193.79 1.54 1.36.346.57.52 1.22.52 1.94 0 .83-.22 1.53-.66 2.12-.44.59-.967.98-1.58 1.18v.08c.786.24 1.4.68 1.84 1.32.44.63.66 1.43.66 2.42 0 .79-.18 1.49-.54 2.1-.36.61-.894 1.1-1.6 1.46-.707.35-1.554.52-2.54.52-1.44 0-2.627-.37-3.56-1.1-.92-.75-1.414-1.81-1.48-3.2h2.2c.053.71.326 1.29.82 1.74.493.44 1.16.66 2 .66.813 0 1.44-.22 1.88-.66.44-.45.66-1.03.66-1.74 0-.93-.3-1.59-.9-1.98-.587-.4-1.494-.6-2.72-.6h-.52v-1.88h.54c1.08-.01 1.9-.19 2.46-.54.573-.35.86-.89.86-1.64 0-.64-.207-1.15-.62-1.52-.414-.39-1-.58-1.76-.58-.747 0-1.327.19-1.74.58-.414.37-.66.84-.74 1.4h-2.22Zm120.502-2.92-4.12 13.9h-2.58l-2.92-10.52-3.1 10.52-2.56.02-3.94-13.92h2.42l2.88 11.32 3.12-11.32h2.56l2.9 11.26 2.9-11.26h2.44Zm11.98 8.12c0 .41-.026.79-.08 1.12h-8.42c.067.88.394 1.59.98 2.12.587.53 1.307.8 2.16.8 1.227 0 2.094-.51 2.6-1.54h2.46a4.995 4.995 0 0 1-1.82 2.5c-.866.64-1.946.96-3.24.96-1.053 0-2-.23-2.84-.7a5.26 5.26 0 0 1-1.96-2c-.466-.87-.7-1.87-.7-3s.227-2.13.68-2.98a4.926 4.926 0 0 1 1.94-2c.84-.47 1.8-.7 2.88-.7 1.04 0 1.967.23 2.78.68a4.74 4.74 0 0 1 1.9 1.92c.454.81.68 1.75.68 2.82Zm-2.38-.72c-.013-.84-.313-1.51-.9-2.02-.586-.51-1.313-.76-2.18-.76-.786 0-1.46.25-2.02.76-.56.49-.893 1.17-1 2.02h6.1Zm14.724.72c0 .41-.026.79-.08 1.12h-8.42c.067.88.394 1.59.98 2.12.587.53 1.307.8 2.16.8 1.227 0 2.094-.51 2.6-1.54h2.46a4.995 4.995 0 0 1-1.82 2.5c-.866.64-1.946.96-3.24.96-1.053 0-2-.23-2.84-.7a5.26 5.26 0 0 1-1.96-2c-.466-.87-.7-1.87-.7-3s.227-2.13.68-2.98a4.926 4.926 0 0 1 1.94-2c.84-.47 1.8-.7 2.88-.7 1.04 0 1.967.23 2.78.68a4.74 4.74 0 0 1 1.9 1.92c.454.81.68 1.75.68 2.82Zm-2.38-.72c-.013-.84-.313-1.51-.9-2.02-.586-.51-1.313-.76-2.18-.76-.786 0-1.46.25-2.02.76-.56.49-.893 1.17-1 2.02h6.1Zm8.984 1 5.08 5.5h-3.08l-4.08-4.74v4.74h-2.28v-14.8h2.28v8.6l4-4.82h3.16l-5.08 5.52Zm11.33 2.46v-1.72l6.72-9.64h2.76v9.38h1.86v1.98h-1.86v3.04h-2.24v-3.04h-7.24Zm7.34-9.04-4.72 7.06h4.72v-7.06Z"/><path fill="#20BCA6" d="m777.6 1517.1-4.12 13.9h-2.58l-2.92-10.52-3.1 10.52-2.56.02-3.94-13.92h2.42l2.88 11.32 3.12-11.32h2.56l2.9 11.26 2.9-11.26h2.44Zm11.98 8.12c0 .41-.026.79-.08 1.12h-8.42c.067.88.394 1.59.98 2.12.587.53 1.307.8 2.16.8 1.227 0 2.094-.51 2.6-1.54h2.46a4.995 4.995 0 0 1-1.82 2.5c-.866.64-1.946.96-3.24.96-1.053 0-2-.23-2.84-.7a5.26 5.26 0 0 1-1.96-2c-.466-.87-.7-1.87-.7-3s.227-2.13.68-2.98a4.926 4.926 0 0 1 1.94-2c.84-.47 1.8-.7 2.88-.7 1.04 0 1.967.23 2.78.68a4.74 4.74 0 0 1 1.9 1.92c.454.81.68 1.75.68 2.82Zm-2.38-.72c-.013-.84-.313-1.51-.9-2.02-.586-.51-1.313-.76-2.18-.76-.786 0-1.46.25-2.02.76-.56.49-.893 1.17-1 2.02h6.1Zm14.724.72c0 .41-.026.79-.08 1.12h-8.42c.067.88.394 1.59.98 2.12.587.53 1.307.8 2.16.8 1.227 0 2.094-.51 2.6-1.54h2.46a4.995 4.995 0 0 1-1.82 2.5c-.866.64-1.946.96-3.24.96-1.053 0-2-.23-2.84-.7a5.26 5.26 0 0 1-1.96-2c-.466-.87-.7-1.87-.7-3s.227-2.13.68-2.98a4.926 4.926 0 0 1 1.94-2c.84-.47 1.8-.7 2.88-.7 1.04 0 1.967.23 2.78.68a4.74 4.74 0 0 1 1.9 1.92c.454.81.68 1.75.68 2.82Zm-2.38-.72c-.013-.84-.313-1.51-.9-2.02-.586-.51-1.313-.76-2.18-.76-.786 0-1.46.25-2.02.76-.56.49-.893 1.17-1 2.02h6.1Zm8.984 1 5.08 5.5h-3.08l-4.08-4.74v4.74h-2.28v-14.8h2.28v8.6l4-4.82h3.16l-5.08 5.52Zm21.01-7.12h-6.7v3.98c.28-.37.693-.69 1.239-.94a4.329 4.329 0 0 1 1.781-.38c1.12 0 2.026.24 2.72.72.706.48 1.206 1.09 1.5 1.82.306.73.46 1.51.46 2.32 0 .99-.194 1.87-.581 2.64a4.17 4.17 0 0 1-1.699 1.8c-.747.44-1.667.66-2.76.66-1.454 0-2.62-.36-3.5-1.08-.88-.72-1.407-1.67-1.58-2.86h2.22c.146.63.473 1.13.98 1.5.506.36 1.14.54 1.9.54.946 0 1.653-.29 2.12-.86.48-.57.72-1.33.72-2.28 0-.96-.24-1.69-.72-2.2-.48-.52-1.187-.78-2.12-.78-.654 0-1.207.17-1.66.5-.44.32-.76.76-.96 1.32h-2.16v-8.42h8.8v2Zm91.062-1.28-4.12 13.9h-2.58l-2.92-10.52-3.1 10.52-2.56.02-3.94-13.92h2.42l2.88 11.32 3.12-11.32h2.56l2.9 11.26 2.9-11.26h2.44Zm11.98 8.12c0 .41-.026.79-.08 1.12h-8.42c.067.88.394 1.59.98 2.12.587.53 1.307.8 2.16.8 1.227 0 2.094-.51 2.6-1.54h2.46a4.995 4.995 0 0 1-1.82 2.5c-.866.64-1.946.96-3.24.96-1.053 0-2-.23-2.84-.7a5.26 5.26 0 0 1-1.96-2c-.466-.87-.7-1.87-.7-3s.227-2.13.68-2.98a4.926 4.926 0 0 1 1.94-2c.84-.47 1.8-.7 2.88-.7 1.04 0 1.967.23 2.78.68a4.74 4.74 0 0 1 1.9 1.92c.454.81.68 1.75.68 2.82Zm-2.38-.72c-.013-.84-.313-1.51-.9-2.02-.586-.51-1.313-.76-2.18-.76-.786 0-1.46.25-2.02.76-.56.49-.893 1.17-1 2.02h6.1Zm14.724.72c0 .41-.026.79-.08 1.12h-8.42c.067.88.394 1.59.98 2.12.587.53 1.307.8 2.16.8 1.227 0 2.094-.51 2.6-1.54h2.46a4.995 4.995 0 0 1-1.82 2.5c-.866.64-1.946.96-3.24.96-1.053 0-2-.23-2.84-.7a5.26 5.26 0 0 1-1.96-2c-.466-.87-.7-1.87-.7-3s.227-2.13.68-2.98a4.926 4.926 0 0 1 1.94-2c.84-.47 1.8-.7 2.88-.7 1.04 0 1.967.23 2.78.68a4.74 4.74 0 0 1 1.9 1.92c.454.81.68 1.75.68 2.82Zm-2.38-.72c-.013-.84-.313-1.51-.9-2.02-.586-.51-1.313-.76-2.18-.76-.786 0-1.46.25-2.02.76-.56.49-.893 1.17-1 2.02h6.1Zm8.984 1 5.08 5.5h-3.08l-4.08-4.74v4.74h-2.28v-14.8h2.28v8.6l4-4.82h3.16l-5.08 5.52Zm19.45-5.7c-.147-.61-.414-1.07-.8-1.38-.387-.31-.927-.46-1.62-.46-1.054 0-1.84.41-2.36 1.22-.52.8-.794 2.13-.82 4 .346-.59.853-1.04 1.52-1.36a4.922 4.922 0 0 1 2.16-.48c.88 0 1.653.19 2.32.58.68.37 1.206.92 1.579 1.64.387.72.581 1.58.581 2.58 0 .93-.187 1.77-.56 2.5-.36.73-.9 1.31-1.62 1.74-.72.41-1.587.62-2.6.62-1.374 0-2.454-.3-3.24-.9-.774-.61-1.32-1.47-1.64-2.58-.307-1.11-.46-2.49-.46-4.14 0-4.88 1.72-7.32 5.16-7.32 1.333 0 2.38.36 3.14 1.08a4.272 4.272 0 0 1 1.36 2.66h-2.1Zm-2.42 3.46c-.814 0-1.507.25-2.08.74-.56.48-.84 1.18-.84 2.1 0 .92.26 1.65.78 2.2.533.53 1.273.8 2.22.8.84 0 1.5-.26 1.98-.78.493-.52.74-1.21.74-2.08 0-.91-.24-1.63-.72-2.16-.467-.55-1.16-.82-2.08-.82Zm102.042-6.16-4.12 13.9h-2.58l-2.92-10.52-3.1 10.52-2.56.02-3.94-13.92h2.42l2.88 11.32 3.12-11.32h2.56l2.9 11.26 2.9-11.26h2.44Zm11.98 8.12c0 .41-.03.79-.08 1.12h-8.42c.07.88.39 1.59.98 2.12s1.31.8 2.16.8c1.23 0 2.09-.51 2.6-1.54h2.46a4.978 4.978 0 0 1-1.82 2.5c-.87.64-1.95.96-3.24.96-1.05 0-2-.23-2.84-.7a5.231 5.231 0 0 1-1.96-2c-.47-.87-.7-1.87-.7-3s.23-2.13.68-2.98a4.92 4.92 0 0 1 1.94-2c.84-.47 1.8-.7 2.88-.7 1.04 0 1.97.23 2.78.68.81.45 1.45 1.09 1.9 1.92.45.81.68 1.75.68 2.82Zm-2.38-.72c-.01-.84-.31-1.51-.9-2.02-.59-.51-1.31-.76-2.18-.76-.79 0-1.46.25-2.02.76-.56.49-.89 1.17-1 2.02h6.1Zm14.72.72c0 .41-.02.79-.08 1.12h-8.42c.07.88.4 1.59.98 2.12.59.53 1.31.8 2.16.8 1.23 0 2.1-.51 2.6-1.54h2.46a4.978 4.978 0 0 1-1.82 2.5c-.86.64-1.94.96-3.24.96-1.05 0-2-.23-2.84-.7a5.303 5.303 0 0 1-1.96-2c-.46-.87-.7-1.87-.7-3s.23-2.13.68-2.98c.47-.87 1.12-1.53 1.94-2 .84-.47 1.8-.7 2.88-.7 1.04 0 1.97.23 2.78.68.82.45 1.45 1.09 1.9 1.92.46.81.68 1.75.68 2.82Zm-2.38-.72c-.01-.84-.31-1.51-.9-2.02-.58-.51-1.31-.76-2.18-.76-.78 0-1.46.25-2.02.76-.56.49-.89 1.17-1 2.02h6.1Zm8.99 1 5.08 5.5h-3.08l-4.08-4.74v4.74h-2.28v-14.8h2.28v8.6l4-4.82h3.16l-5.08 5.52Zm20.85-7.32-5.56 12.82h-2.3l5.62-12.58h-7.4v-1.94h9.64v1.7Zm98.22-1.08-4.12 13.9h-2.58l-2.92-10.52-3.1 10.52-2.56.02-3.94-13.92h2.42l2.88 11.32 3.12-11.32h2.56l2.9 11.26 2.9-11.26h2.44Zm11.98 8.12c0 .41-.03.79-.08 1.12h-8.42c.07.88.39 1.59.98 2.12s1.31.8 2.16.8c1.23 0 2.09-.51 2.6-1.54h2.46a4.978 4.978 0 0 1-1.82 2.5c-.87.64-1.95.96-3.24.96-1.05 0-2-.23-2.84-.7a5.231 5.231 0 0 1-1.96-2c-.47-.87-.7-1.87-.7-3s.23-2.13.68-2.98a4.92 4.92 0 0 1 1.94-2c.84-.47 1.8-.7 2.88-.7 1.04 0 1.97.23 2.78.68.81.45 1.45 1.09 1.9 1.92.45.81.68 1.75.68 2.82Zm-2.38-.72c-.01-.84-.31-1.51-.9-2.02-.59-.51-1.31-.76-2.18-.76-.79 0-1.46.25-2.02.76-.56.49-.89 1.17-1 2.02h6.1Zm14.72.72c0 .41-.02.79-.08 1.12h-8.42c.07.88.4 1.59.98 2.12.59.53 1.31.8 2.16.8 1.23 0 2.1-.51 2.6-1.54h2.46a4.978 4.978 0 0 1-1.82 2.5c-.86.64-1.94.96-3.24.96-1.05 0-2-.23-2.84-.7a5.303 5.303 0 0 1-1.96-2c-.46-.87-.7-1.87-.7-3s.23-2.13.68-2.98c.47-.87 1.12-1.53 1.94-2 .84-.47 1.8-.7 2.88-.7 1.04 0 1.97.23 2.78.68.82.45 1.45 1.09 1.9 1.92.46.81.68 1.75.68 2.82Zm-2.38-.72c-.01-.84-.31-1.51-.9-2.02-.58-.51-1.31-.76-2.18-.76-.78 0-1.46.25-2.02.76-.56.49-.89 1.17-1 2.02h6.1Zm8.99 1 5.08 5.5h-3.08l-4.08-4.74v4.74h-2.28v-14.8h2.28v8.6l4-4.82h3.16l-5.08 5.52Zm14.07-2.12c-1.39-.69-2.08-1.79-2.08-3.28 0-.72.18-1.38.54-1.98.36-.6.9-1.07 1.62-1.42.72-.36 1.6-.54 2.64-.54 1.02 0 1.9.18 2.62.54.73.35 1.28.82 1.64 1.42.36.6.54 1.26.54 1.98 0 .75-.2 1.41-.58 1.98-.38.56-.88.99-1.5 1.3.76.28 1.36.74 1.8 1.38.44.63.66 1.37.66 2.22 0 .87-.22 1.63-.66 2.3-.44.67-1.06 1.18-1.84 1.54-.79.36-1.68.54-2.68.54-1 0-1.9-.18-2.68-.54-.78-.36-1.38-.87-1.82-1.54-.44-.67-.66-1.43-.66-2.3 0-.87.22-1.61.66-2.24.44-.63 1.03-1.08 1.78-1.36Zm5.34-3c0-.75-.24-1.32-.7-1.72-.47-.4-1.11-.6-1.92-.6-.8 0-1.44.2-1.9.6-.47.4-.7.98-.7 1.74 0 .67.24 1.21.72 1.64.49.41 1.12.62 1.88.62.76 0 1.38-.21 1.88-.64.49-.43.74-.97.74-1.64Zm-2.62 4c-.88 0-1.6.22-2.16.66-.55.43-.82 1.05-.82 1.86 0 .76.26 1.38.8 1.86.53.47 1.26.7 2.18.7.9 0 1.62-.24 2.14-.72.53-.48.8-1.09.8-1.84 0-.8-.28-1.42-.82-1.86-.54-.44-1.24-.66-2.12-.66Z"/><defs><filter id="a" width="680.8" height="181.8" x="69.6" y="302.6" color-interpolation-filters="sRGB" filterUnits="userSpaceOnUse"><feFlood flood-opacity="0" result="BackgroundImageFix"/><feColorMatrix in="SourceAlpha" result="hardAlpha" values="0 0 0 0 0 0 0 0 0 0 0 0 0 0 0 0 0 0 127 0"/><feMorphology in="SourceAlpha" radius="12" result="effect1_dropShadow_50_62"/><feOffset dy="17"/><feGaussianBlur stdDeviation="36.2"/><feComposite in2="hardAlpha" operator="out"/><feColorMatrix values="0 0 0 0 0.788916 0 0 0 0 0.782278 0 0 0 0 0.783209 0 0 0 0.22 0"/><feBlend in2="BackgroundImageFix" result="effect1_dropShadow_50_62"/><feBlend in="SourceGraphic" in2="effect1_dropShadow_50_62" result="shape"/></filter><filter id="b" width="681.8" height="181.8" x="671.6" y="302.6" color-interpolation-filters="sRGB" filterUnits="userSpaceOnUse"><feFlood flood-opacity="0" result="BackgroundImageFix"/><feColorMatrix in="SourceAlpha" result="hardAlpha" values="0 0 0 0 0 0 0 0 0 0 0 0 0 0 0 0 0 0 127 0"/><feMorphology in="SourceAlpha" radius="12" result="effect1_dropShadow_50_62"/><feOffset dy="17"/><feGaussianBlur stdDeviation="36.2"/><feComposite in2="hardAlpha" operator="out"/><feColorMatrix values="0 0 0 0 0.788916 0 0 0 0 0.782278 0 0 0 0 0.783209 0 0 0 0.22 0"/><feBlend in2="BackgroundImageFix" result="effect1_dropShadow_50_62"/><feBlend in="SourceGraphic" in2="effect1_dropShadow_50_62" result="shape"/></filter><filter id="c" width="359.8" height="188.8" x="131.6" y="547.6" color-interpolation-filters="sRGB" filterUnits="userSpaceOnUse"><feFlood flood-opacity="0" result="BackgroundImageFix"/><feColorMatrix in="SourceAlpha" result="hardAlpha" values="0 0 0 0 0 0 0 0 0 0 0 0 0 0 0 0 0 0 127 0"/><feMorphology in="SourceAlpha" radius="12" result="effect1_dropShadow_50_62"/><feOffset dy="17"/><feGaussianBlur stdDeviation="36.2"/><feComposite in2="hardAlpha" operator="out"/><feColorMatrix values="0 0 0 0 0.788916 0 0 0 0 0.782278 0 0 0 0 0.783209 0 0 0 0.22 0"/><feBlend in2="BackgroundImageFix" result="effect1_dropShadow_50_62"/><feBlend in="SourceGraphic" in2="effect1_dropShadow_50_62" result="shape"/></filter><filter id="d" width="359.8" height="188.8" x="725.6" y="644.6" color-interpolation-filters="sRGB" filterUnits="userSpaceOnUse"><feFlood flood-opacity="0" result="BackgroundImageFix"/><feColorMatrix in="SourceAlpha" result="hardAlpha" values="0 0 0 0 0 0 0 0 0 0 0 0 0 0 0 0 0 0 127 0"/><feMorphology in="SourceAlpha" radius="12" result="effect1_dropShadow_50_62"/><feOffset dy="17"/><feGaussianBlur stdDeviation="36.2"/><feComposite in2="hardAlpha" operator="out"/><feColorMatrix values="0 0 0 0 0.788916 0 0 0 0 0.782278 0 0 0 0 0.783209 0 0 0 0.22 0"/><feBlend in2="BackgroundImageFix" result="effect1_dropShadow_50_62"/><feBlend in="SourceGraphic" in2="effect1_dropShadow_50_62" result="shape"/></filter><filter id="e" width="359.8" height="188.8" x="868.6" y="901.6" color-interpolation-filters="sRGB" filterUnits="userSpaceOnUse"><feFlood flood-opacity="0" result="BackgroundImageFix"/><feColorMatrix in="SourceAlpha" result="hardAlpha" values="0 0 0 0 0 0 0 0 0 0 0 0 0 0 0 0 0 0 127 0"/><feMorphology in="SourceAlpha" radius="12" result="effect1_dropShadow_50_62"/><feOffset dy="17"/><feGaussianBlur stdDeviation="36.2"/><feComposite in2="hardAlpha" operator="out"/><feColorMatrix values="0 0 0 0 0.788916 0 0 0 0 0.782278 0 0 0 0 0.783209 0 0 0 0.22 0"/><feBlend in2="BackgroundImageFix" result="effect1_dropShadow_50_62"/><feBlend in="SourceGraphic" in2="effect1_dropShadow_50_62" result="shape"/></filter><filter id="f" width="359.8" height="188.8" x="927.6" y="1127.6" color-interpolation-filters="sRGB" filterUnits="userSpaceOnUse"><feFlood flood-opacity="0" result="BackgroundImageFix"/><feColorMatrix in="SourceAlpha" result="hardAlpha" values="0 0 0 0 0 0 0 0 0 0 0 0 0 0 0 0 0 0 127 0"/><feMorphology in="SourceAlpha" radius="12" result="effect1_dropShadow_50_62"/><feOffset dy="17"/><feGaussianBlur stdDeviation="36.2"/><feComposite in2="hardAlpha" operator="out"/><feColorMatrix values="0 0 0 0 0.788916 0 0 0 0 0.782278 0 0 0 0 0.783209 0 0 0 0.22 0"/><feBlend in2="BackgroundImageFix" result="effect1_dropShadow_50_62"/><feBlend in="SourceGraphic" in2="effect1_dropShadow_50_62" result="shape"/></filter><filter id="g" width="359.8" height="188.8" x="271.6" y="816.6" color-interpolation-filters="sRGB" filterUnits="userSpaceOnUse"><feFlood flood-opacity="0" result="BackgroundImageFix"/><feColorMatrix in="SourceAlpha" result="hardAlpha" values="0 0 0 0 0 0 0 0 0 0 0 0 0 0 0 0 0 0 127 0"/><feMorphology in="SourceAlpha" radius="12" result="effect1_dropShadow_50_62"/><feOffset dy="17"/><feGaussianBlur stdDeviation="36.2"/><feComposite in2="hardAlpha" operator="out"/><feColorMatrix values="0 0 0 0 0.788916 0 0 0 0 0.782278 0 0 0 0 0.783209 0 0 0 0.22 0"/><feBlend in2="BackgroundImageFix" result="effect1_dropShadow_50_62"/><feBlend in="SourceGraphic" in2="effect1_dropShadow_50_62" result="shape"/></filter><filter id="h" width="359.8" height="188.8" x="370.6" y="1059.6" color-interpolation-filters="sRGB" filterUnits="userSpaceOnUse"><feFlood flood-opacity="0" result="BackgroundImageFix"/><feColorMatrix in="SourceAlpha" result="hardAlpha" values="0 0 0 0 0 0 0 0 0 0 0 0 0 0 0 0 0 0 127 0"/><feMorphology in="SourceAlpha" radius="12" result="effect1_dropShadow_50_62"/><feOffset dy="17"/><feGaussianBlur stdDeviation="36.2"/><feComposite in2="hardAlpha" operator="out"/><feColorMatrix values="0 0 0 0 0.788916 0 0 0 0 0.782278 0 0 0 0 0.783209 0 0 0 0.22 0"/><feBlend in2="BackgroundImageFix" result="effect1_dropShadow_50_62"/><feBlend in="SourceGraphic" in2="effect1_dropShadow_50_62" result="shape"/></filter></defs></svg>