<svg xmlns="http://www.w3.org/2000/svg" width="1440" height="852" fill="none" viewBox="0 0 1440 852"><path fill="#fff" d="M0 0h1440v852H0z"/><path fill="url(#a)" d="M0 0h1440v852H0z"/><path fill="#F4F4F4" d="M186.172 61.254h36.152v40.137l-36.152-40.137ZM147.91 84.809h-.351c0-8.047 2.187-13.985 6.562-17.813 4.375-3.828 11.113-5.742 20.215-5.742l47.988 58.242c0 7.734-2.09 13.262-6.269 16.582-4.063 3.242-10.703 4.863-19.922 4.863L147.91 84.809Zm-.176 15.82L182.539 141h-34.805v-40.371Zm132.012-19.395h32.344v33.457h-4.16c-10.078 0-17.305-1.738-21.68-5.214-4.336-3.477-6.504-9.395-6.504-17.754V81.234Zm-42.187 30.586c0-4.297.566-8.281 1.699-11.953 1.133-3.71 2.89-6.953 5.273-9.726 5.078-5.938 12.422-8.907 22.031-8.907h4.512V141h-3.047c-9.882 0-17.48-2.695-22.793-8.086-5.117-5.117-7.675-12.148-7.675-21.094Zm42.187 13.887h29.297v1.641c0 3.632-1.309 6.699-3.926 9.199-3.203 2.969-7.754 4.453-13.652 4.453h-11.719v-15.293Zm89.707-44.473h4.512c9.609 0 16.992 2.97 22.148 8.907 4.649 5.39 6.973 12.539 6.973 21.445 0 9.062-2.578 16.172-7.734 21.328-5.391 5.391-13.008 8.086-22.852 8.086h-3.047V81.234Zm-43.125 30.586c0-4.297.567-8.281 1.699-11.953 1.133-3.71 2.891-6.953 5.274-9.726 5.156-5.938 12.539-8.907 22.148-8.907h4.512V141h-3.047c-9.844 0-17.461-2.695-22.852-8.086-5.156-5.156-7.734-12.187-7.734-21.094Zm131.953-30.586h4.512c9.609 0 16.992 2.97 22.148 8.907 4.649 5.39 6.973 12.539 6.973 21.445 0 9.062-2.578 16.172-7.734 21.328-5.391 5.391-13.008 8.086-22.852 8.086h-3.047V81.234Zm-41.015 0h31.523v79.688h-31.523V81.234Zm132.129 0h3.867c14.765 0 23.769 5 27.011 15 1.055 3.32 1.582 7.168 1.582 11.543v6.446h-32.46V81.234ZM507.09 111.82c0-4.297.566-8.281 1.699-11.953 1.133-3.71 2.891-6.953 5.273-9.726 5.157-5.938 12.54-8.907 22.149-8.907h4.512V141h-3.047c-9.844 0-17.461-2.695-22.852-8.086-5.156-5.156-7.734-12.187-7.734-21.094Zm42.305 13.887h29.296v1.641c0 3.632-1.308 6.699-3.925 9.199-3.204 2.969-7.754 4.453-13.653 4.453h-11.718v-15.293Zm149.824-44.473h4.511c9.61 0 16.993 2.97 22.149 8.907 4.648 5.39 6.973 12.539 6.973 21.445 0 9.062-2.579 16.172-7.735 21.328-5.39 5.391-13.008 8.086-22.851 8.086h-3.047V81.234Zm-43.125 30.586c0-4.297.566-8.281 1.699-11.953 1.133-3.71 2.891-6.953 5.273-9.726 5.157-5.938 12.539-8.907 22.149-8.907h4.512V141h-3.047c-9.844 0-17.461-2.695-22.852-8.086-5.156-5.156-7.734-12.187-7.734-21.094Zm155.742-32.93c-5.898 0-10.234-.8-13.008-2.402-4.258-2.5-6.387-7.715-6.387-15.644V50.18h26.192v28.71h-6.797Zm-61.699-.058c0-13.672 4.902-22.48 14.707-26.426 3.515-1.445 7.812-2.168 12.89-2.168h3.926V141h-31.523V78.832Zm42.304 13.828h18.223v18.457h-18.223V92.66Zm194.356-31.523h32.403v54.258c0 8.632-1.97 14.98-5.92 19.043-4.33 4.374-11.42 6.562-21.268 6.562h-5.215V61.137Zm-86.953 0h32.402V141h-5.215c-14.414 0-23.008-4.883-25.781-14.648-.938-3.164-1.406-6.817-1.406-10.957V61.137Zm43.418.058h32.578v79.864h-32.578V61.195Zm135.998 20.04h4.51c9.61 0 16.99 2.968 22.15 8.906 4.65 5.39 6.97 12.539 6.97 21.445 0 9.062-2.58 16.172-7.73 21.328-5.39 5.391-13.01 8.086-22.86 8.086h-3.04V81.234Zm-43.13 30.585c0-4.297.57-8.281 1.7-11.953 1.13-3.71 2.89-6.953 5.28-9.726 5.15-5.938 12.53-8.907 22.14-8.907h4.52V141h-3.05c-9.84 0-17.46-2.695-22.85-8.086-5.16-5.156-7.74-12.187-7.74-21.094Zm135.47-13.945c0-11.094 7.17-16.64 21.51-16.64h8.2v29.882h-29.71V97.875Zm-41.01-16.64h32.57V141h-32.57V81.234Zm86.3-29.942h31.47V141h-31.47V51.293Zm40.02 40.898c0-3.906 1.8-6.894 5.39-8.964 3.21-1.836 7.33-2.754 12.37-2.754 7.85 0 13.18 2.129 15.99 6.386.98 1.485 1.47 3.262 1.47 5.332 0 3.946-1.68 6.973-5.04 9.082-3.05 1.954-7.05 2.93-12.01 2.93-7.93 0-13.46-2.226-16.58-6.68-1.06-1.484-1.59-3.261-1.59-5.332Zm2.23 18.985h5.27c14.38 0 22.97 4.863 25.79 14.59.89 3.203 1.34 6.875 1.34 11.015V141h-32.4v-29.824Z"/><path fill="#136A4A" d="M614.599 95.308v.98c-.653.229-1.372.735-2.156 1.519-.784.784-1.437 2.042-1.96 3.773l-8.869 28.567c-.196 0-.408-.016-.637-.049h-1.274a3.535 3.535 0 0 1-.588.049l-10.388-31.066c-.359-1.11-.784-1.846-1.274-2.205-.457-.36-.931-.555-1.421-.588v-.98c.784.033 1.731.065 2.842.098 1.143.033 2.27.049 3.381.049 1.372 0 2.662-.016 3.871-.049s2.189-.065 2.94-.098v.98c-1.013.033-1.797.147-2.352.343-.555.163-.882.539-.98 1.127-.065.555.098 1.437.49 2.646l7.056 21.707-.98 1.568 5.88-18.571c.719-2.221 1.045-3.969.98-5.243-.033-1.274-.408-2.172-1.127-2.695-.719-.555-1.748-.85-3.087-.882v-.98c1.078.033 2.091.065 3.038.098.98.033 1.96.049 2.94.049.751 0 1.421-.016 2.009-.049a120.27 120.27 0 0 0 1.666-.098Zm-34.692 0v.98c-.751.065-1.274.278-1.568.637-.294.36-.425.833-.392 1.421.065.555.229 1.241.49 2.058l7.497 22.246-1.274 1.568 6.468-19.502.735 1.274-7.889 24.157c-.196 0-.408-.016-.637-.049h-1.274a3.535 3.535 0 0 1-.588.049l-10.78-30.723c-.425-1.209-.947-2.025-1.568-2.45-.588-.425-1.127-.653-1.617-.686v-.98c.849.033 1.878.065 3.087.098 1.209.033 2.385.049 3.528.049 1.209 0 2.319-.016 3.332-.049s1.829-.065 2.45-.098Zm44.832 8.673c2.254 0 4.246.457 5.978 1.372 1.764.882 3.152 2.303 4.165 4.263 1.045 1.96 1.568 4.541 1.568 7.742 0 3.201-.523 5.782-1.568 7.742-1.013 1.96-2.401 3.381-4.165 4.263-1.732.882-3.724 1.323-5.978 1.323-2.254 0-4.263-.441-6.027-1.323-1.764-.882-3.153-2.303-4.165-4.263-1.013-1.96-1.519-4.541-1.519-7.742 0-3.201.506-5.782 1.519-7.742 1.012-1.96 2.401-3.381 4.165-4.263 1.764-.915 3.773-1.372 6.027-1.372Zm0 .98c-1.536 0-2.793.98-3.773 2.94-.948 1.927-1.421 5.08-1.421 9.457 0 4.377.473 7.53 1.421 9.457.98 1.927 2.237 2.891 3.773 2.891 1.502 0 2.744-.964 3.724-2.891s1.47-5.08 1.47-9.457c0-4.377-.49-7.53-1.47-9.457-.98-1.96-2.222-2.94-3.724-2.94Zm31.193-.98c1.012 0 1.845.212 2.499.637.686.425 1.192.964 1.519 1.617a4.55 4.55 0 0 1 .49 2.058c0 1.078-.327 1.976-.98 2.695-.621.719-1.454 1.078-2.499 1.078-.98 0-1.781-.261-2.401-.784-.621-.523-.931-1.241-.931-2.156 0-.817.196-1.503.588-2.058a5.4 5.4 0 0 1 1.421-1.323c-.36-.196-.768-.261-1.225-.196a4.097 4.097 0 0 0-2.156.833 6.792 6.792 0 0 0-1.666 1.813 9.84 9.84 0 0 0-1.078 2.303 8.708 8.708 0 0 0-.343 2.352v12.103c0 1.601.408 2.679 1.225 3.234.816.523 2.009.784 3.577.784V130a171.64 171.64 0 0 0-3.283-.098 95.528 95.528 0 0 0-4.41-.098c-1.274 0-2.548.033-3.822.098-1.242.033-2.173.065-2.793.098v-1.029c1.208 0 2.058-.245 2.548-.735.522-.49.784-1.421.784-2.793v-15.435c0-1.47-.245-2.548-.735-3.234-.458-.719-1.323-1.078-2.597-1.078v-1.029c1.045.098 2.058.147 3.038.147a37.96 37.96 0 0 0 3.43-.147c1.11-.131 2.123-.31 3.038-.539v5.096a11.17 11.17 0 0 1 1.519-2.548 8.084 8.084 0 0 1 2.303-1.911 5.823 5.823 0 0 1 2.94-.784Zm14.236-12.348v33.81c0 1.372.229 2.303.686 2.793.458.49 1.242.735 2.352.735V130a92.876 92.876 0 0 0-2.548-.098 61.276 61.276 0 0 0-3.479-.098c-1.208 0-2.45.033-3.724.098-1.241.033-2.172.065-2.793.098v-1.029c1.209 0 2.058-.245 2.548-.735.523-.49.784-1.421.784-2.793v-27.93c0-1.47-.245-2.548-.735-3.234-.457-.719-1.323-1.078-2.597-1.078v-1.029c1.046.098 2.058.147 3.038.147 1.242 0 2.401-.049 3.479-.147 1.078-.13 2.075-.31 2.989-.539Zm15.876 13.034v.98a8.775 8.775 0 0 0-2.842 1.127c-.914.523-1.813 1.258-2.695 2.205l-4.851 5.047.539-1.078 8.624 13.475a21.91 21.91 0 0 0 1.274 1.666 3.39 3.39 0 0 0 1.568.882V130a54.491 54.491 0 0 0-2.009-.098 38.678 38.678 0 0 0-2.744-.098c-1.11 0-2.254.033-3.43.098-1.143.033-2.009.065-2.597.098v-1.029c.654 0 1.095-.147 1.323-.441.262-.327.229-.735-.098-1.225l-5.096-8.575c-.457-.719-.898-1.176-1.323-1.372-.424-.229-.996-.343-1.715-.343v-.98c.817-.065 1.487-.212 2.009-.441.556-.229 1.078-.588 1.568-1.078l3.675-3.675c1.078-1.078 1.617-1.993 1.617-2.744.033-.751-.31-1.323-1.029-1.715-.686-.425-1.584-.67-2.695-.735v-.98c.882.033 1.862.082 2.94.147 1.078.033 1.993.049 2.744.049h1.862c.686-.033 1.323-.065 1.911-.098a40.782 40.782 0 0 0 1.47-.098Zm14.977-9.359c.817.033 1.862.065 3.136.098s2.548.049 3.822.049c1.601 0 3.12-.016 4.557-.049 1.437-.033 2.45-.049 3.038-.049 4.377 0 7.628.898 9.751 2.695 2.156 1.797 3.234 4.116 3.234 6.958 0 1.176-.212 2.417-.637 3.724-.425 1.274-1.16 2.466-2.205 3.577-1.045 1.078-2.483 1.96-4.312 2.646-1.797.686-4.1 1.029-6.909 1.029h-4.9v-.98h4.41c2.058 0 3.626-.441 4.704-1.323 1.111-.882 1.846-2.042 2.205-3.479.392-1.437.588-2.989.588-4.655 0-3.103-.506-5.423-1.519-6.958-1.013-1.535-2.76-2.303-5.243-2.303-1.339 0-2.221.278-2.646.833-.392.555-.588 1.682-.588 3.381v24.108c0 1.241.131 2.172.392 2.793s.768 1.029 1.519 1.225c.751.196 1.829.31 3.234.343V130c-.947-.065-2.172-.098-3.675-.098a212.233 212.233 0 0 0-4.655-.049c-1.372 0-2.695.016-3.969.049a49.41 49.41 0 0 0-3.332.098v-.98c1.078-.065 1.878-.196 2.401-.392.555-.196.915-.588 1.078-1.176.196-.588.294-1.47.294-2.646v-24.304c0-1.209-.098-2.09-.294-2.646-.163-.588-.523-.98-1.078-1.176-.523-.229-1.323-.36-2.401-.392v-.98Zm46.259 8.673c1.013 0 1.846.212 2.499.637.686.425 1.193.964 1.519 1.617.327.653.49 1.339.49 2.058 0 1.078-.326 1.976-.98 2.695-.62.719-1.453 1.078-2.499 1.078-.98 0-1.78-.261-2.401-.784-.62-.523-.931-1.241-.931-2.156 0-.817.196-1.503.588-2.058a5.432 5.432 0 0 1 1.421-1.323c-.359-.196-.767-.261-1.225-.196a4.1 4.1 0 0 0-2.156.833 6.824 6.824 0 0 0-1.666 1.813 9.92 9.92 0 0 0-1.078 2.303 8.747 8.747 0 0 0-.343 2.352v12.103c0 1.601.409 2.679 1.225 3.234.817.523 2.009.784 3.577.784V130c-.751-.033-1.845-.065-3.283-.098a95.464 95.464 0 0 0-4.41-.098c-1.274 0-2.548.033-3.822.098-1.241.033-2.172.065-2.793.098v-1.029c1.209 0 2.058-.245 2.548-.735.523-.49.784-1.421.784-2.793v-15.435c0-1.47-.245-2.548-.735-3.234-.457-.719-1.323-1.078-2.597-1.078v-1.029c1.046.098 2.058.147 3.038.147 1.209 0 2.352-.049 3.43-.147a24.22 24.22 0 0 0 3.038-.539v5.096c.392-.915.899-1.764 1.519-2.548a8.098 8.098 0 0 1 2.303-1.911 5.828 5.828 0 0 1 2.94-.784Zm17.903 0c2.254 0 4.247.457 5.978 1.372 1.764.882 3.152 2.303 4.165 4.263 1.045 1.96 1.568 4.541 1.568 7.742 0 3.201-.523 5.782-1.568 7.742-1.013 1.96-2.401 3.381-4.165 4.263-1.731.882-3.724 1.323-5.978 1.323-2.254 0-4.263-.441-6.027-1.323-1.764-.882-3.152-2.303-4.165-4.263s-1.519-4.541-1.519-7.742c0-3.201.506-5.782 1.519-7.742s2.401-3.381 4.165-4.263c1.764-.915 3.773-1.372 6.027-1.372Zm0 .98c-1.535 0-2.793.98-3.773 2.94-.947 1.927-1.421 5.08-1.421 9.457 0 4.377.474 7.53 1.421 9.457.98 1.927 2.238 2.891 3.773 2.891 1.503 0 2.744-.964 3.724-2.891s1.47-5.08 1.47-9.457c0-4.377-.49-7.53-1.47-9.457-.98-1.96-2.221-2.94-3.724-2.94Zm27.469-.98c1.209 0 2.319.147 3.332.441 1.045.261 1.944.637 2.695 1.127a5.636 5.636 0 0 1 1.862 1.862c.457.719.686 1.519.686 2.401 0 1.078-.327 1.944-.98 2.597s-1.47.98-2.45.98c-1.013 0-1.846-.294-2.499-.882-.621-.588-.931-1.372-.931-2.352 0-.947.278-1.731.833-2.352a3.918 3.918 0 0 1 2.009-1.225c-.294-.425-.751-.768-1.372-1.029a4.748 4.748 0 0 0-2.058-.441c-.98 0-1.862.261-2.646.784-.784.49-1.47 1.241-2.058 2.254-.555.98-.996 2.205-1.323 3.675-.294 1.437-.441 3.103-.441 4.998 0 2.646.31 4.737.931 6.272.653 1.535 1.486 2.63 2.499 3.283 1.013.621 2.091.931 3.234.931.686 0 1.421-.131 2.205-.392s1.552-.702 2.303-1.323c.784-.621 1.486-1.503 2.107-2.646l.931.343c-.359 1.143-.947 2.287-1.764 3.43-.784 1.143-1.813 2.091-3.087 2.842-1.274.751-2.826 1.127-4.655 1.127-2.091 0-3.985-.474-5.684-1.421-1.699-.98-3.054-2.45-4.067-4.41-.98-1.96-1.47-4.394-1.47-7.301 0-2.875.506-5.308 1.519-7.301 1.013-2.025 2.417-3.577 4.214-4.655 1.829-1.078 3.871-1.617 6.125-1.617Zm23.969 0c2.875 0 5.129.866 6.762 2.597 1.633 1.731 2.45 4.492 2.45 8.281H809.32l-.049-.931h10.878c.065-1.601-.033-3.071-.294-4.41-.261-1.372-.686-2.466-1.274-3.283-.555-.817-1.29-1.225-2.205-1.225-1.241 0-2.319.735-3.234 2.205-.915 1.437-1.486 3.806-1.715 7.105l.196.294a16.37 16.37 0 0 0-.147 1.372v1.47c0 2.254.327 4.116.98 5.586.653 1.47 1.503 2.548 2.548 3.234 1.045.686 2.123 1.029 3.234 1.029.751 0 1.519-.114 2.303-.343.784-.229 1.552-.653 2.303-1.274.751-.621 1.437-1.503 2.058-2.646l.931.392c-.359 1.143-.964 2.287-1.813 3.43-.817 1.111-1.878 2.025-3.185 2.744-1.307.719-2.842 1.078-4.606 1.078-2.221 0-4.181-.49-5.88-1.47-1.699-.98-3.022-2.434-3.969-4.361-.947-1.96-1.421-4.345-1.421-7.154 0-2.973.49-5.472 1.47-7.497 1.013-2.025 2.401-3.561 4.165-4.606 1.764-1.078 3.773-1.617 6.027-1.617Zm21.75 0c1.372 0 2.548.196 3.528.588.98.392 1.699.735 2.156 1.029 1.111.817 1.781.294 2.009-1.568h1.078a79.693 79.693 0 0 0-.147 3.381 214.838 214.838 0 0 0-.049 5.145h-1.078a14.748 14.748 0 0 0-.931-3.528c-.457-1.143-1.127-2.091-2.009-2.842-.882-.784-2.041-1.176-3.479-1.176-1.012 0-1.862.294-2.548.882-.653.588-.98 1.421-.98 2.499 0 .98.294 1.846.882 2.597.588.719 1.34 1.405 2.254 2.058a61.475 61.475 0 0 1 2.94 2.058 28.034 28.034 0 0 1 3.136 2.401 9.909 9.909 0 0 1 2.205 2.646c.556.947.833 2.074.833 3.381 0 1.503-.424 2.793-1.274 3.871-.816 1.045-1.911 1.862-3.283 2.45-1.339.555-2.825.833-4.459.833-.882 0-1.682-.082-2.401-.245a9.387 9.387 0 0 1-1.911-.637l-1.176-.637a5.92 5.92 0 0 0-1.029-.49c-.326-.163-.62-.098-.882.196-.228.294-.408.784-.539 1.47h-1.078c.066-1.045.115-2.319.147-3.822.033-1.503.049-3.495.049-5.978h1.078c.229 1.797.572 3.381 1.029 4.753.49 1.339 1.193 2.401 2.107 3.185.915.751 2.091 1.127 3.528 1.127.621 0 1.209-.131 1.764-.392a3.222 3.222 0 0 0 1.421-1.225c.392-.555.588-1.307.588-2.254 0-1.437-.49-2.63-1.47-3.577-.98-.947-2.205-1.96-3.675-3.038a98.388 98.388 0 0 1-3.136-2.401 11.242 11.242 0 0 1-2.352-2.646c-.588-.98-.882-2.14-.882-3.479 0-1.47.376-2.679 1.127-3.626.752-.98 1.732-1.715 2.94-2.205a10.121 10.121 0 0 1 3.969-.784Zm22.395 0c1.372 0 2.548.196 3.528.588.98.392 1.698.735 2.156 1.029 1.11.817 1.78.294 2.009-1.568h1.078a76.484 76.484 0 0 0-.147 3.381 209.649 209.649 0 0 0-.049 5.145h-1.078a14.842 14.842 0 0 0-.931-3.528c-.458-1.143-1.127-2.091-2.009-2.842-.882-.784-2.042-1.176-3.479-1.176-1.013 0-1.862.294-2.548.882-.654.588-.98 1.421-.98 2.499 0 .98.294 1.846.882 2.597.588.719 1.339 1.405 2.254 2.058a62.5 62.5 0 0 1 2.94 2.058 28.126 28.126 0 0 1 3.136 2.401 9.946 9.946 0 0 1 2.205 2.646c.555.947.833 2.074.833 3.381 0 1.503-.425 2.793-1.274 3.871-.817 1.045-1.911 1.862-3.283 2.45-1.34.555-2.826.833-4.459.833a10.87 10.87 0 0 1-2.401-.245 9.346 9.346 0 0 1-1.911-.637 246.16 246.16 0 0 1-1.176-.637 5.99 5.99 0 0 0-1.029-.49c-.327-.163-.621-.098-.882.196-.229.294-.409.784-.539 1.47h-1.078c.065-1.045.114-2.319.147-3.822.032-1.503.049-3.495.049-5.978h1.078c.228 1.797.571 3.381 1.029 4.753.49 1.339 1.192 2.401 2.107 3.185.914.751 2.09 1.127 3.528 1.127.62 0 1.208-.131 1.764-.392a3.227 3.227 0 0 0 1.421-1.225c.392-.555.588-1.307.588-2.254 0-1.437-.49-2.63-1.47-3.577-.98-.947-2.205-1.96-3.675-3.038a97.268 97.268 0 0 1-3.136-2.401 11.198 11.198 0 0 1-2.352-2.646c-.588-.98-.882-2.14-.882-3.479 0-1.47.375-2.679 1.127-3.626.751-.98 1.731-1.715 2.94-2.205a10.114 10.114 0 0 1 3.969-.784Z"/><g filter="url(#b)"><rect width="314" height="240" x="225" y="243" fill="#fff" rx="15"/><rect width="312" height="238" x="226" y="244" stroke="#F1F5F9" stroke-width="2" rx="14"/><path fill="#136A4A" d="M375.333 365a26.506 26.506 0 0 0 16.324-5.627l14.653 14.654 4.713-4.714-14.653-14.653a26.5 26.5 0 0 0 5.63-16.327c0-14.703-11.963-26.666-26.667-26.666-14.703 0-26.666 11.963-26.666 26.666 0 14.704 11.963 26.667 26.666 26.667Zm0-46.667c11.03 0 20 8.97 20 20s-8.97 20-20 20-20-8.97-20-20 8.97-20 20-20Z"/><path fill="#136A4A" d="M380.04 333.62a6.639 6.639 0 0 1 1.96 4.713h6.667a13.25 13.25 0 0 0-3.914-9.426c-5.046-5.04-13.796-5.04-18.84 0l4.707 4.72c2.533-2.527 6.9-2.52 9.42-.007Zm-44.292 66.804a96.004 96.004 0 0 0 3.344.066c.704 0 1.386-.007 2.046-.022a70.06 70.06 0 0 1 1.408-.022c1.364 0 2.493.154 3.388.462.909.293 1.584.726 2.024 1.298.455.572.682 1.261.682 2.068a4.07 4.07 0 0 1-.308 1.518c-.205.499-.557.968-1.056 1.408-.484.425-1.151.77-2.002 1.034-.851.249-1.921.374-3.212.374h-2.112v-.44h1.892c.865 0 1.518-.161 1.958-.484.455-.337.763-.777.924-1.32a6.112 6.112 0 0 0 .264-1.848c0-1.159-.205-2.053-.616-2.684-.411-.645-1.115-.968-2.112-.968-.572 0-.946.125-1.122.374-.161.249-.242.755-.242 1.518v10.912c0 .528.037.924.11 1.188.088.264.249.44.484.528.235.088.587.147 1.056.176v.44a21.108 21.108 0 0 0-1.496-.044 84.5 84.5 0 0 0-3.828 0c-.616 0-1.107.015-1.474.044v-.44c.469-.029.821-.088 1.056-.176.235-.088.389-.264.462-.528.088-.264.132-.66.132-1.188v-10.912c0-.543-.044-.939-.132-1.188a.734.734 0 0 0-.484-.528c-.235-.103-.579-.161-1.034-.176v-.44Zm4.158 7.81c.631.015 1.173.044 1.628.088.469.044.88.088 1.232.132.352.029.667.051.946.066 1.335.117 2.317.403 2.948.858.645.455 1.063 1.137 1.254 2.046l.506 2.266c.132.587.271.997.418 1.232a.707.707 0 0 0 .638.352c.191-.015.345-.059.462-.132.132-.088.271-.213.418-.374l.308.264c-.396.455-.821.777-1.276.968-.455.205-1.005.308-1.65.308-.792 0-1.445-.169-1.958-.506-.513-.337-.851-.961-1.012-1.87l-.396-2.2a11.384 11.384 0 0 0-.374-1.606c-.147-.469-.352-.836-.616-1.1-.249-.279-.601-.418-1.056-.418h-2.376l-.044-.374Zm16.53-3.916c1.291 0 2.303.381 3.036 1.144.734.763 1.1 2.009 1.1 3.74h-7.238l-.044-.418h4.51a10.457 10.457 0 0 0-.132-1.98c-.102-.616-.264-1.107-.484-1.474-.22-.367-.513-.55-.88-.55-.513 0-.953.323-1.32.968-.352.645-.564 1.716-.638 3.212l.066.132-.044.55v.594c0 1.012.14 1.833.418 2.464.294.631.66 1.093 1.1 1.386.44.279.888.418 1.342.418.308 0 .624-.044.946-.132a3.361 3.361 0 0 0 1.012-.528c.338-.264.653-.631.946-1.1l.396.132a5.714 5.714 0 0 1-.836 1.628 4.573 4.573 0 0 1-1.452 1.298c-.586.337-1.29.506-2.112.506-.997 0-1.877-.213-2.64-.638-.762-.425-1.364-1.071-1.804-1.936-.425-.865-.638-1.965-.638-3.3 0-1.364.228-2.501.682-3.41.47-.909 1.108-1.584 1.914-2.024.822-.455 1.753-.682 2.794-.682Zm9.766 0c.616 0 1.152.081 1.606.242.47.147.807.293 1.012.44.499.337.807.117.924-.66h.462c-.029.411-.051.917-.066 1.518-.014.587-.022 1.371-.022 2.354h-.462a6.953 6.953 0 0 0-.418-1.606 3.181 3.181 0 0 0-.902-1.298c-.381-.337-.88-.506-1.496-.506-.425 0-.784.125-1.078.374-.293.235-.44.579-.44 1.034 0 .44.132.829.396 1.166.264.323.602.638 1.012.946.426.293.866.609 1.32.946.484.367.924.733 1.32 1.1.396.352.712.741.946 1.166.235.425.352.931.352 1.518 0 .66-.19 1.239-.572 1.738-.381.484-.887.858-1.518 1.122-.616.264-1.305.396-2.068.396-.44 0-.836-.044-1.188-.132a4.106 4.106 0 0 1-.88-.33c-.19-.088-.374-.169-.55-.242a4.327 4.327 0 0 0-.462-.22c-.146-.044-.278.007-.396.154-.102.147-.183.352-.242.616h-.462c.03-.469.052-1.041.066-1.716.015-.675.022-1.569.022-2.684h.462a8.63 8.63 0 0 0 .484 2.112c.235.601.55 1.078.946 1.43.411.337.924.506 1.54.506.25 0 .492-.051.726-.154a1.26 1.26 0 0 0 .572-.506c.162-.235.242-.535.242-.902 0-.645-.212-1.181-.638-1.606-.41-.425-.938-.887-1.584-1.386a60.549 60.549 0 0 1-1.342-1.122 5.664 5.664 0 0 1-1.012-1.232 3.011 3.011 0 0 1-.396-1.54c0-.66.176-1.217.528-1.672a3.131 3.131 0 0 1 1.386-1.012 4.983 4.983 0 0 1 1.87-.352Zm11.482 0c1.291 0 2.303.381 3.036 1.144.734.763 1.1 2.009 1.1 3.74h-7.238l-.044-.418h4.51a10.457 10.457 0 0 0-.132-1.98c-.102-.616-.264-1.107-.484-1.474-.22-.367-.513-.55-.88-.55-.513 0-.953.323-1.32.968-.352.645-.564 1.716-.638 3.212l.066.132-.044.55v.594c0 1.012.14 1.833.418 2.464.294.631.66 1.093 1.1 1.386.44.279.888.418 1.342.418.308 0 .624-.044.946-.132a3.361 3.361 0 0 0 1.012-.528c.338-.264.653-.631.946-1.1l.396.132a5.714 5.714 0 0 1-.836 1.628 4.573 4.573 0 0 1-1.452 1.298c-.586.337-1.29.506-2.112.506-.997 0-1.877-.213-2.64-.638-.762-.425-1.364-1.071-1.804-1.936-.425-.865-.638-1.965-.638-3.3 0-1.364.228-2.501.682-3.41.47-.909 1.108-1.584 1.914-2.024.822-.455 1.753-.682 2.794-.682Zm8.446 11.836c-.66 0-1.21-.125-1.65-.374a2.329 2.329 0 0 1-.968-.99 3.148 3.148 0 0 1-.308-1.386c0-.631.14-1.144.418-1.54a3.432 3.432 0 0 1 1.122-.968 8.279 8.279 0 0 1 1.43-.616c.514-.161.998-.315 1.452-.462.47-.161.844-.345 1.122-.55.294-.22.44-.499.44-.836v-1.716c0-.381-.066-.719-.198-1.012a1.365 1.365 0 0 0-.572-.704c-.249-.161-.579-.242-.99-.242-.293 0-.586.044-.88.132a1.523 1.523 0 0 0-.726.396c.411.147.726.374.946.682.235.293.352.631.352 1.012 0 .499-.176.895-.528 1.188-.337.293-.74.44-1.21.44-.528 0-.931-.161-1.21-.484-.264-.337-.396-.741-.396-1.21 0-.425.103-.777.308-1.056a3.74 3.74 0 0 1 .902-.792 5.413 5.413 0 0 1 1.474-.55 8.615 8.615 0 0 1 1.892-.198c.675 0 1.284.073 1.826.22.543.132.998.381 1.364.748.338.337.558.755.66 1.254.103.484.154 1.1.154 1.848v5.984c0 .367.037.623.11.77.074.132.198.198.374.198a.696.696 0 0 0 .374-.11 4.55 4.55 0 0 0 .418-.264l.22.374a3.393 3.393 0 0 1-1.078.616 4.23 4.23 0 0 1-1.342.198c-.542 0-.975-.073-1.298-.22-.322-.161-.557-.374-.704-.638a2.041 2.041 0 0 1-.198-.924 4.234 4.234 0 0 1-1.276 1.32c-.498.308-1.107.462-1.826.462Zm1.562-1.408c.294 0 .558-.066.792-.198.25-.147.484-.381.704-.704v-4.51c-.132.22-.315.418-.55.594a50.49 50.49 0 0 1-.748.55c-.264.176-.52.374-.77.594-.234.22-.425.491-.572.814-.146.323-.22.711-.22 1.166 0 .572.125.997.374 1.276.25.279.58.418.99.418Zm14.357-10.428c.469 0 .851.103 1.144.308.293.191.506.44.638.748.147.308.22.631.22.968 0 .543-.161.99-.484 1.342-.308.337-.719.506-1.232.506s-.917-.125-1.21-.374c-.279-.264-.418-.609-.418-1.034 0-.411.088-.748.264-1.012.191-.279.425-.513.704-.704a.985.985 0 0 0-.616.022 1.735 1.735 0 0 0-.792.352 2.373 2.373 0 0 0-.638.682 3.483 3.483 0 0 0-.418.88 2.836 2.836 0 0 0-.154.902v5.83c0 .704.169 1.181.506 1.43.352.249.873.374 1.562.374V416a76.945 76.945 0 0 0-1.474-.044 45.11 45.11 0 0 0-2.024-.044c-.587 0-1.181.015-1.782.044-.601.015-1.056.029-1.364.044v-.462c.513 0 .873-.11 1.078-.33.22-.22.33-.638.33-1.254v-6.93c0-.66-.103-1.144-.308-1.452-.191-.323-.557-.484-1.1-.484v-.462c.469.044.924.066 1.364.066.616 0 1.188-.022 1.716-.066a13.306 13.306 0 0 0 1.496-.242v2.046c.176-.396.411-.755.704-1.078a3.127 3.127 0 0 1 1.012-.748 2.809 2.809 0 0 1 1.276-.286Zm8.121 0a5.76 5.76 0 0 1 1.562.198c.484.117.88.271 1.188.462.381.235.675.528.88.88.22.337.33.733.33 1.188 0 .513-.161.939-.484 1.276-.323.323-.741.484-1.254.484s-.924-.147-1.232-.44c-.308-.293-.462-.689-.462-1.188 0-.469.147-.858.44-1.166a2.09 2.09 0 0 1 1.012-.638c-.117-.147-.293-.271-.528-.374a1.953 1.953 0 0 0-.792-.154c-.455 0-.858.132-1.21.396-.337.264-.623.631-.858 1.1a6.78 6.78 0 0 0-.55 1.65c-.117.631-.176 1.32-.176 2.068 0 1.129.139 2.017.418 2.662.293.645.66 1.1 1.1 1.364a2.77 2.77 0 0 0 1.408.396c.279 0 .579-.044.902-.132a2.805 2.805 0 0 0 1.012-.528c.352-.264.675-.638.968-1.122l.374.132a5.925 5.925 0 0 1-.792 1.628c-.367.543-.843.99-1.43 1.342-.587.337-1.305.506-2.156.506-.953 0-1.819-.205-2.596-.616-.763-.425-1.379-1.071-1.848-1.936-.455-.88-.682-2.009-.682-3.388 0-1.32.235-2.427.704-3.322.484-.909 1.137-1.591 1.958-2.046.821-.455 1.753-.682 2.794-.682Zm9.66-5.522v7.568c.367-.763.858-1.291 1.474-1.584.631-.308 1.335-.462 2.112-.462.631 0 1.137.081 1.518.242.381.147.682.352.902.616.249.279.425.638.528 1.078.117.44.176 1.034.176 1.782v5.918c0 .616.103 1.034.308 1.254.22.22.587.33 1.1.33V416a52.222 52.222 0 0 0-1.276-.044 31.344 31.344 0 0 0-3.3 0 46.88 46.88 0 0 0-1.188.044v-.462c.44 0 .748-.11.924-.33.176-.22.264-.638.264-1.254v-6.842c0-.367-.037-.682-.11-.946a1.094 1.094 0 0 0-.418-.638c-.191-.161-.469-.242-.836-.242-.396 0-.763.11-1.1.33a2.31 2.31 0 0 0-.792.88c-.191.381-.286.821-.286 1.32v6.138c0 .616.088 1.034.264 1.254.176.22.484.33.924.33V416a47.1 47.1 0 0 0-1.166-.044 27.679 27.679 0 0 0-1.562-.044c-.572 0-1.151.015-1.738.044-.572.015-1.005.029-1.298.044v-.462c.513 0 .873-.11 1.078-.33.22-.22.33-.638.33-1.254v-12.518c0-.66-.103-1.144-.308-1.452-.191-.323-.557-.484-1.1-.484v-.462c.469.044.924.066 1.364.066.601 0 1.173-.022 1.716-.066a13.306 13.306 0 0 0 1.496-.242Z"/></g><g filter="url(#c)"><rect width="314" height="240" x="563" y="243" fill="#fff" rx="15"/><rect width="312" height="238" x="564" y="244" stroke="#F1F5F9" stroke-width="2" rx="14"/><path fill="#136A4A" d="M730 341.667h23.333v6.666H730v-6.666ZM733.333 355h20v6.667h-20V355Zm-6.666-26.667h26.666V335h-26.666v-6.667Zm-33.334 40h33.334V365c0-9.19-7.477-16.667-16.667-16.667h-6.667c-9.19 0-16.666 7.477-16.666 16.667v3.333h6.666ZM706.667 345c6.65 0 11.666-5.017 11.666-11.667 0-6.65-5.016-11.666-11.666-11.666S695 326.683 695 333.333 700.017 345 706.667 345Zm-38.905 55.424v.44c-.469.059-.829.183-1.078.374-.235.176-.389.462-.462.858-.073.396-.11.953-.11 1.672v5.83c0 .953-.066 1.826-.198 2.618-.132.792-.367 1.474-.704 2.046-.381.631-.939 1.129-1.672 1.496s-1.665.55-2.794.55a9.258 9.258 0 0 1-2.068-.242 4.642 4.642 0 0 1-1.892-.858 4.226 4.226 0 0 1-1.078-1.342c-.249-.499-.418-1.085-.506-1.76a19.576 19.576 0 0 1-.132-2.442v-6.908c0-.543-.044-.939-.132-1.188-.073-.264-.227-.44-.462-.528-.235-.103-.587-.161-1.056-.176v-.44a96.004 96.004 0 0 0 3.432.066c.675 0 1.32-.007 1.936-.022.631-.015 1.151-.029 1.562-.044v.44c-.499.015-.88.073-1.144.176a.793.793 0 0 0-.506.528c-.088.249-.132.645-.132 1.188v8.294c0 .733.044 1.386.132 1.958.103.557.264 1.027.484 1.408.235.367.55.645.946.836.396.191.887.286 1.474.286 1.027 0 1.826-.242 2.398-.726.587-.484.997-1.151 1.232-2.002.249-.865.374-1.855.374-2.97v-5.808c0-.807-.051-1.423-.154-1.848-.103-.44-.308-.755-.616-.946-.293-.191-.748-.315-1.364-.374v-.44a56.606 56.606 0 0 0 2.376.066c.352 0 .697-.007 1.034-.022.352-.015.645-.029.88-.044Zm4.753 3.894c.616 0 1.151.081 1.606.242.469.147.807.293 1.012.44.499.337.807.117.924-.66h.462c-.029.411-.051.917-.066 1.518a97.216 97.216 0 0 0-.022 2.354h-.462a7.004 7.004 0 0 0-.418-1.606 3.181 3.181 0 0 0-.902-1.298c-.381-.337-.88-.506-1.496-.506-.425 0-.785.125-1.078.374-.293.235-.44.579-.44 1.034 0 .44.132.829.396 1.166a5.75 5.75 0 0 0 1.012.946c.425.293.865.609 1.32.946.484.367.924.733 1.32 1.1.396.352.711.741.946 1.166.235.425.352.931.352 1.518 0 .66-.191 1.239-.572 1.738-.381.484-.887.858-1.518 1.122-.616.264-1.305.396-2.068.396-.44 0-.836-.044-1.188-.132a4.086 4.086 0 0 1-.88-.33 15.645 15.645 0 0 0-.55-.242 4.327 4.327 0 0 0-.462-.22c-.147-.044-.279.007-.396.154-.103.147-.183.352-.242.616h-.462c.029-.469.051-1.041.066-1.716.015-.675.022-1.569.022-2.684h.462c.088.792.249 1.496.484 2.112.235.601.55 1.078.946 1.43.411.337.924.506 1.54.506.249 0 .491-.051.726-.154.235-.103.425-.271.572-.506.161-.235.242-.535.242-.902 0-.645-.213-1.181-.638-1.606a14.93 14.93 0 0 0-1.584-1.386 58.327 58.327 0 0 1-1.342-1.122 5.635 5.635 0 0 1-1.012-1.232 3.011 3.011 0 0 1-.396-1.54c0-.66.176-1.217.528-1.672a3.131 3.131 0 0 1 1.386-1.012 4.983 4.983 0 0 1 1.87-.352Zm11.482 0c1.291 0 2.303.381 3.036 1.144.733.763 1.1 2.009 1.1 3.74h-7.238l-.044-.418h4.51a10.457 10.457 0 0 0-.132-1.98c-.103-.616-.264-1.107-.484-1.474-.22-.367-.513-.55-.88-.55-.513 0-.953.323-1.32.968-.352.645-.565 1.716-.638 3.212l.066.132-.044.55v.594c0 1.012.139 1.833.418 2.464.293.631.66 1.093 1.1 1.386.44.279.887.418 1.342.418.308 0 .623-.044.946-.132a3.373 3.373 0 0 0 1.012-.528c.337-.264.653-.631.946-1.1l.396.132a5.74 5.74 0 0 1-.836 1.628 4.573 4.573 0 0 1-1.452 1.298c-.587.337-1.291.506-2.112.506-.997 0-1.877-.213-2.64-.638-.763-.425-1.364-1.071-1.804-1.936-.425-.865-.638-1.965-.638-3.3 0-1.364.227-2.501.682-3.41.469-.909 1.107-1.584 1.914-2.024.821-.455 1.753-.682 2.794-.682Zm12.849 0c.469 0 .851.103 1.144.308.293.191.506.44.638.748.147.308.22.631.22.968 0 .543-.161.99-.484 1.342-.308.337-.719.506-1.232.506s-.917-.125-1.21-.374c-.279-.264-.418-.609-.418-1.034 0-.411.088-.748.264-1.012.191-.279.425-.513.704-.704a.985.985 0 0 0-.616.022 1.735 1.735 0 0 0-.792.352 2.373 2.373 0 0 0-.638.682 3.483 3.483 0 0 0-.418.88 2.836 2.836 0 0 0-.154.902v5.83c0 .704.169 1.181.506 1.43.352.249.873.374 1.562.374V416a76.945 76.945 0 0 0-1.474-.044 45.11 45.11 0 0 0-2.024-.044c-.587 0-1.181.015-1.782.044-.601.015-1.056.029-1.364.044v-.462c.513 0 .873-.11 1.078-.33.22-.22.33-.638.33-1.254v-6.93c0-.66-.103-1.144-.308-1.452-.191-.323-.557-.484-1.1-.484v-.462c.469.044.924.066 1.364.066.616 0 1.188-.022 1.716-.066a13.306 13.306 0 0 0 1.496-.242v2.046c.176-.396.411-.755.704-1.078a3.127 3.127 0 0 1 1.012-.748 2.809 2.809 0 0 1 1.276-.286Zm7.584-3.894a95.608 95.608 0 0 0 3.344.066c.704 0 1.386-.007 2.046-.022a70.06 70.06 0 0 1 1.408-.022c2.038 0 3.564.403 4.576 1.21 1.012.807 1.518 1.848 1.518 3.124 0 .528-.103 1.085-.308 1.672-.206.572-.558 1.107-1.056 1.606-.484.484-1.152.88-2.002 1.188-.851.308-1.922.462-3.212.462H708.5v-.44h2.024c.865 0 1.518-.198 1.958-.594.454-.396.762-.917.924-1.562a7.917 7.917 0 0 0 .264-2.09c0-1.393-.206-2.435-.616-3.124-.411-.689-1.115-1.034-2.112-1.034-.572 0-.946.125-1.122.374-.162.249-.242.755-.242 1.518v10.78c0 .572.058.997.176 1.276.117.279.344.462.682.55.337.088.836.139 1.496.154V416c-.455-.015-1.042-.029-1.76-.044-.719-.015-1.474-.022-2.266-.022-.631 0-1.247.007-1.848.022-.602.015-1.144.029-1.628.044v-.44c.469-.029.821-.088 1.056-.176.234-.088.388-.264.462-.528.088-.264.132-.66.132-1.188v-10.912c0-.543-.044-.939-.132-1.188a.736.736 0 0 0-.484-.528c-.235-.103-.58-.161-1.034-.176v-.44Zm19.206 3.894c1.29 0 2.302.381 3.036 1.144.733.763 1.1 2.009 1.1 3.74h-7.238l-.044-.418H725c.014-.719-.03-1.379-.132-1.98-.103-.616-.264-1.107-.484-1.474-.22-.367-.514-.55-.88-.55-.514 0-.954.323-1.32.968-.352.645-.565 1.716-.638 3.212l.066.132c-.015.176-.03.359-.044.55v.594c0 1.012.139 1.833.418 2.464.293.631.66 1.093 1.1 1.386.44.279.887.418 1.342.418.308 0 .623-.044.946-.132a3.385 3.385 0 0 0 1.012-.528c.337-.264.652-.631.946-1.1l.396.132a5.74 5.74 0 0 1-.836 1.628 4.594 4.594 0 0 1-1.452 1.298c-.587.337-1.291.506-2.112.506-.998 0-1.878-.213-2.64-.638-.763-.425-1.364-1.071-1.804-1.936-.426-.865-.638-1.965-.638-3.3 0-1.364.227-2.501.682-3.41.469-.909 1.107-1.584 1.914-2.024.821-.455 1.752-.682 2.794-.682Zm12.849 0c.469 0 .85.103 1.144.308.293.191.506.44.638.748.146.308.22.631.22.968 0 .543-.162.99-.484 1.342-.308.337-.719.506-1.232.506-.514 0-.917-.125-1.21-.374-.279-.264-.418-.609-.418-1.034 0-.411.088-.748.264-1.012.19-.279.425-.513.704-.704a.985.985 0 0 0-.616.022 1.735 1.735 0 0 0-.792.352 2.36 2.36 0 0 0-.638.682 3.45 3.45 0 0 0-.418.88 2.836 2.836 0 0 0-.154.902v5.83c0 .704.168 1.181.506 1.43.352.249.872.374 1.562.374V416a77.208 77.208 0 0 0-1.474-.044 45.142 45.142 0 0 0-2.024-.044c-.587 0-1.181.015-1.782.044-.602.015-1.056.029-1.364.044v-.462c.513 0 .872-.11 1.078-.33.22-.22.33-.638.33-1.254v-6.93c0-.66-.103-1.144-.308-1.452-.191-.323-.558-.484-1.1-.484v-.462c.469.044.924.066 1.364.066.616 0 1.188-.022 1.716-.066a13.344 13.344 0 0 0 1.496-.242v2.046a4.01 4.01 0 0 1 .704-1.078c.293-.323.63-.572 1.012-.748a2.806 2.806 0 0 1 1.276-.286Zm7.057 0c.616 0 1.152.081 1.606.242.47.147.807.293 1.012.44.499.337.807.117.924-.66h.462c-.029.411-.051.917-.066 1.518-.014.587-.022 1.371-.022 2.354h-.462a6.953 6.953 0 0 0-.418-1.606 3.181 3.181 0 0 0-.902-1.298c-.381-.337-.88-.506-1.496-.506-.425 0-.784.125-1.078.374-.293.235-.44.579-.44 1.034 0 .44.132.829.396 1.166.264.323.602.638 1.012.946.426.293.866.609 1.32.946.484.367.924.733 1.32 1.1.396.352.712.741.946 1.166.235.425.352.931.352 1.518 0 .66-.19 1.239-.572 1.738-.381.484-.887.858-1.518 1.122-.616.264-1.305.396-2.068.396-.44 0-.836-.044-1.188-.132a4.106 4.106 0 0 1-.88-.33c-.19-.088-.374-.169-.55-.242a4.327 4.327 0 0 0-.462-.22c-.146-.044-.278.007-.396.154-.102.147-.183.352-.242.616h-.462c.03-.469.052-1.041.066-1.716.015-.675.022-1.569.022-2.684h.462a8.63 8.63 0 0 0 .484 2.112c.235.601.55 1.078.946 1.43.411.337.924.506 1.54.506.25 0 .492-.051.726-.154a1.26 1.26 0 0 0 .572-.506c.162-.235.242-.535.242-.902 0-.645-.212-1.181-.638-1.606-.41-.425-.938-.887-1.584-1.386a60.549 60.549 0 0 1-1.342-1.122 5.664 5.664 0 0 1-1.012-1.232 3.011 3.011 0 0 1-.396-1.54c0-.66.176-1.217.528-1.672a3.131 3.131 0 0 1 1.386-1.012 4.983 4.983 0 0 1 1.87-.352Zm11.482 0c1.071 0 2.01.198 2.816.594.807.396 1.438 1.034 1.892 1.914.455.88.682 2.046.682 3.498 0 1.452-.227 2.618-.682 3.498-.454.865-1.085 1.496-1.892 1.892-.806.396-1.745.594-2.816.594-1.041 0-1.972-.198-2.794-.594-.806-.396-1.444-1.027-1.914-1.892-.454-.88-.682-2.046-.682-3.498 0-1.452.228-2.618.682-3.498.47-.88 1.108-1.518 1.914-1.914.822-.396 1.753-.594 2.794-.594Zm0 .44c-.586 0-1.078.44-1.474 1.32-.396.865-.594 2.281-.594 4.246 0 1.965.198 3.381.594 4.246.396.865.888 1.298 1.474 1.298.602 0 1.093-.433 1.474-1.298.396-.865.594-2.281.594-4.246 0-1.965-.198-3.381-.594-4.246-.381-.88-.872-1.32-1.474-1.32Zm14.948-.44c.616 0 1.114.081 1.496.242.396.147.704.352.924.616.234.279.403.638.506 1.078.117.44.176 1.034.176 1.782v5.918c0 .616.102 1.034.308 1.254.22.22.586.33 1.1.33V416a52.354 52.354 0 0 0-1.254-.044 31.798 31.798 0 0 0-3.3 0c-.528.015-.932.029-1.21.044v-.462c.44 0 .748-.11.924-.33.176-.22.264-.638.264-1.254v-6.842c0-.367-.037-.682-.11-.946-.074-.279-.206-.491-.396-.638-.191-.161-.477-.242-.858-.242-.396 0-.763.11-1.1.33-.323.22-.587.528-.792.924a2.858 2.858 0 0 0-.286 1.298v6.116c0 .616.088 1.034.264 1.254.19.22.498.33.924.33V416a47.1 47.1 0 0 0-1.166-.044 26.946 26.946 0 0 0-1.562-.044c-.558 0-1.13.015-1.716.044-.587.015-1.027.029-1.32.044v-.462c.513 0 .872-.11 1.078-.33.22-.22.33-.638.33-1.254v-6.93c0-.66-.103-1.144-.308-1.452-.191-.323-.558-.484-1.1-.484v-.462c.469.044.924.066 1.364.066.616 0 1.188-.022 1.716-.066a13.344 13.344 0 0 0 1.496-.242v1.98c.366-.748.865-1.276 1.496-1.584.63-.308 1.334-.462 2.112-.462Zm8.365 11.836c-.66 0-1.21-.125-1.65-.374a2.329 2.329 0 0 1-.968-.99 3.148 3.148 0 0 1-.308-1.386c0-.631.14-1.144.418-1.54a3.432 3.432 0 0 1 1.122-.968 8.279 8.279 0 0 1 1.43-.616c.514-.161.998-.315 1.452-.462.47-.161.844-.345 1.122-.55.294-.22.44-.499.44-.836v-1.716c0-.381-.066-.719-.198-1.012a1.365 1.365 0 0 0-.572-.704c-.249-.161-.579-.242-.99-.242-.293 0-.586.044-.88.132a1.523 1.523 0 0 0-.726.396c.411.147.726.374.946.682.235.293.352.631.352 1.012 0 .499-.176.895-.528 1.188-.337.293-.74.44-1.21.44-.528 0-.931-.161-1.21-.484-.264-.337-.396-.741-.396-1.21 0-.425.103-.777.308-1.056a3.74 3.74 0 0 1 .902-.792 5.413 5.413 0 0 1 1.474-.55 8.615 8.615 0 0 1 1.892-.198c.675 0 1.284.073 1.826.22.543.132.998.381 1.364.748.338.337.558.755.66 1.254.103.484.154 1.1.154 1.848v5.984c0 .367.037.623.11.77.074.132.198.198.374.198a.696.696 0 0 0 .374-.11 4.55 4.55 0 0 0 .418-.264l.22.374a3.393 3.393 0 0 1-1.078.616 4.23 4.23 0 0 1-1.342.198c-.542 0-.975-.073-1.298-.22-.322-.161-.557-.374-.704-.638a2.041 2.041 0 0 1-.198-.924 4.234 4.234 0 0 1-1.276 1.32c-.498.308-1.107.462-1.826.462Zm1.562-1.408c.294 0 .558-.066.792-.198.25-.147.484-.381.704-.704v-4.51c-.132.22-.315.418-.55.594a50.49 50.49 0 0 1-.748.55c-.264.176-.52.374-.77.594-.234.22-.425.491-.572.814-.146.323-.22.711-.22 1.166 0 .572.125.997.374 1.276.25.279.58.418.99.418Z"/></g><g filter="url(#d)"><rect width="314" height="240" x="901" y="243" fill="#fff" rx="15"/><rect width="312" height="238" x="902" y="244" stroke="#F1F5F9" stroke-width="2" rx="14"/><path fill="#136A4A" d="M1083 315a8.332 8.332 0 0 0-8.33 8.333c0 1.19.26 2.32.71 3.35l-6.52 7.33a13.247 13.247 0 0 0-7.53-2.346c-2.46 0-4.74.72-6.73 1.886l-7.58-7.576-.07.076c.65-1.326 1.05-2.803 1.05-4.386 0-1.978-.59-3.911-1.69-5.556a9.975 9.975 0 0 0-10.26-4.252 10.002 10.002 0 0 0-5.12 2.737 10.021 10.021 0 0 0-2.74 5.12c-.38 1.94-.19 3.95.57 5.778a10.037 10.037 0 0 0 3.68 4.487 10.021 10.021 0 0 0 5.56 1.686c1.58 0 3.06-.4 4.39-1.054l-.08.077 7.58 7.577A13.203 13.203 0 0 0 1048 345c0 3.323 1.27 6.33 3.28 8.67l-8.59 8.587a8.2 8.2 0 0 0-3.02-.59c-4.6 0-8.34 3.736-8.34 8.333 0 4.597 3.74 8.333 8.34 8.333 4.59 0 8.33-3.736 8.33-8.333a8.27 8.27 0 0 0-.59-3.03l9.46-9.46c1.4.5 2.89.823 4.46.823 7.36 0 13.34-5.98 13.34-13.333 0-2.12-.55-4.097-1.43-5.88l7.06-7.943c.85.293 1.75.49 2.7.49 4.6 0 8.33-3.737 8.33-8.334 0-4.596-3.73-8.333-8.33-8.333Zm-21.67 36.667c-3.67 0-6.66-2.99-6.66-6.667 0-3.677 2.99-6.667 6.66-6.667 3.68 0 6.67 2.99 6.67 6.667a6.674 6.674 0 0 1-6.67 6.667Zm-38.57 48.757v.44c-.47.059-.83.183-1.08.374-.23.176-.38.462-.46.858-.07.396-.11.953-.11 1.672v5.83c0 .953-.06 1.826-.2 2.618-.13.792-.36 1.474-.7 2.046-.38.631-.94 1.129-1.67 1.496-.74.367-1.67.55-2.8.55-.67 0-1.36-.081-2.06-.242a4.656 4.656 0 0 1-1.9-.858 4.199 4.199 0 0 1-1.07-1.342c-.25-.499-.42-1.085-.51-1.76-.09-.689-.13-1.503-.13-2.442v-6.908c0-.543-.05-.939-.13-1.188-.08-.264-.23-.44-.47-.528-.23-.103-.58-.161-1.05-.176v-.44a94.824 94.824 0 0 0 3.43.066c.67 0 1.32-.007 1.94-.022.63-.015 1.15-.029 1.56-.044v.44c-.5.015-.88.073-1.15.176-.25.088-.41.264-.5.528-.09.249-.13.645-.13 1.188v8.294c0 .733.04 1.386.13 1.958.1.557.26 1.027.48 1.408.24.367.55.645.95.836.39.191.89.286 1.47.286 1.03 0 1.83-.242 2.4-.726.59-.484 1-1.151 1.23-2.002.25-.865.38-1.855.38-2.97v-5.808c0-.807-.06-1.423-.16-1.848-.1-.44-.31-.755-.61-.946-.3-.191-.75-.315-1.37-.374v-.44c.28.015.65.029 1.1.044.46.015.88.022 1.28.022.35 0 .69-.007 1.03-.022.35-.015.65-.029.88-.044Zm4.75 3.894c.62 0 1.16.081 1.61.242.47.147.81.293 1.01.44.5.337.81.117.93-.66h.46c-.03.411-.05.917-.07 1.518-.01.587-.02 1.371-.02 2.354h-.46a6.622 6.622 0 0 0-.42-1.606c-.2-.528-.51-.961-.9-1.298-.38-.337-.88-.506-1.5-.506-.42 0-.78.125-1.08.374-.29.235-.44.579-.44 1.034 0 .44.14.829.4 1.166.26.323.6.638 1.01.946.43.293.87.609 1.32.946.49.367.93.733 1.32 1.1.4.352.71.741.95 1.166.23.425.35.931.35 1.518 0 .66-.19 1.239-.57 1.738-.38.484-.89.858-1.52 1.122-.62.264-1.3.396-2.07.396-.44 0-.83-.044-1.19-.132a4.253 4.253 0 0 1-.88-.33c-.19-.088-.37-.169-.55-.242a3.967 3.967 0 0 0-.46-.22c-.14-.044-.28.007-.39.154-.11.147-.19.352-.25.616h-.46c.03-.469.05-1.041.07-1.716.01-.675.02-1.569.02-2.684h.46c.09.792.25 1.496.49 2.112.23.601.55 1.078.94 1.43.41.337.93.506 1.54.506.25 0 .49-.051.73-.154.23-.103.42-.271.57-.506.16-.235.24-.535.24-.902 0-.645-.21-1.181-.64-1.606a14.27 14.27 0 0 0-1.58-1.386 47.64 47.64 0 0 1-1.34-1.122 5.54 5.54 0 0 1-1.01-1.232c-.27-.455-.4-.968-.4-1.54 0-.66.18-1.217.53-1.672.35-.455.81-.792 1.38-1.012a4.994 4.994 0 0 1 1.87-.352Zm11.49 0c1.29 0 2.3.381 3.03 1.144.74.763 1.1 2.009 1.1 3.74h-7.24l-.04-.418h4.51c.02-.719-.03-1.379-.13-1.98-.1-.616-.27-1.107-.49-1.474-.22-.367-.51-.55-.88-.55-.51 0-.95.323-1.32.968-.35.645-.56 1.716-.63 3.212l.06.132c-.01.176-.03.359-.04.55v.594c0 1.012.14 1.833.42 2.464.29.631.66 1.093 1.1 1.386.44.279.88.418 1.34.418.31 0 .62-.044.94-.132a3.41 3.41 0 0 0 1.02-.528c.33-.264.65-.631.94-1.1l.4.132c-.18.557-.46 1.1-.84 1.628-.38.528-.86.961-1.45 1.298-.59.337-1.29.506-2.11.506-1 0-1.88-.213-2.64-.638-.76-.425-1.37-1.071-1.81-1.936-.42-.865-.63-1.965-.63-3.3 0-1.364.22-2.501.68-3.41.47-.909 1.11-1.584 1.91-2.024.82-.455 1.76-.682 2.8-.682Zm12.85 0c.47 0 .85.103 1.14.308.29.191.51.44.64.748.14.308.22.631.22.968 0 .543-.16.99-.49 1.342-.3.337-.71.506-1.23.506-.51 0-.91-.125-1.21-.374-.28-.264-.42-.609-.42-1.034 0-.411.09-.748.27-1.012.19-.279.42-.513.7-.704a.966.966 0 0 0-.61.022c-.28.044-.55.161-.8.352-.25.176-.46.403-.63.682-.18.264-.32.557-.42.88-.1.308-.16.609-.16.902v5.83c0 .704.17 1.181.51 1.43.35.249.87.374 1.56.374V416c-.34-.015-.83-.029-1.47-.044a45.35 45.35 0 0 0-2.03-.044c-.58 0-1.18.015-1.78.044-.6.015-1.05.029-1.36.044v-.462c.51 0 .87-.11 1.08-.33.22-.22.33-.638.33-1.254v-6.93c0-.66-.11-1.144-.31-1.452-.19-.323-.56-.484-1.1-.484v-.462c.47.044.92.066 1.36.066.62 0 1.19-.022 1.72-.066.54-.059 1.04-.139 1.49-.242v2.046c.18-.396.41-.755.71-1.078.29-.323.63-.572 1.01-.748a2.82 2.82 0 0 1 1.28-.286Zm19.35-3.894c-.06.66-.1 1.298-.13 1.914-.02.616-.02 1.093-.02 1.43 0 .323 0 .631.02.924.01.293.03.543.04.748h-.5c-.2-1.144-.46-2.039-.8-2.684-.33-.66-.75-1.129-1.25-1.408-.48-.279-1.06-.418-1.74-.418h-.72c-.43 0-.75.037-.97.11a.654.654 0 0 0-.44.44c-.08.22-.11.557-.11 1.012v11.044c0 .572.06.997.17 1.276.12.279.35.462.69.55.33.088.83.139 1.49.154V416c-.45-.015-1.04-.029-1.76-.044-.72-.015-1.47-.022-2.26-.022-.64 0-1.25.007-1.85.022-.6.015-1.15.029-1.63.044v-.44c.47-.029.82-.088 1.06-.176.23-.088.38-.264.46-.528.09-.264.13-.66.13-1.188v-10.912c0-.543-.04-.939-.13-1.188a.754.754 0 0 0-.49-.528c-.23-.103-.58-.161-1.03-.176v-.44c.6.015 1.24.029 1.91.044.68 0 1.35.007 2.01.022h5.54c.86-.015 1.63-.037 2.31-.066Zm-3.28 7.612v.44h-4v-.44h4Zm.55-2.904c-.06.836-.09 1.474-.09 1.914.02.44.03.843.03 1.21s0 .77.02 1.21c.01.44.05 1.078.11 1.914h-.51c-.09-.513-.23-.99-.42-1.43-.19-.44-.47-.792-.83-1.056-.37-.279-.85-.418-1.43-.418v-.44c.44 0 .8-.088 1.1-.264.31-.191.56-.433.77-.726.2-.308.36-.631.48-.968.12-.337.21-.653.27-.946h.5Zm8.08-6.358v15.18c0 .616.1 1.034.3 1.254.22.22.59.33 1.1.33V416c-.28-.015-.69-.029-1.25-.044a32.575 32.575 0 0 0-3.43 0c-.57.015-1.01.029-1.3.044v-.462c.51 0 .87-.11 1.08-.33.22-.22.33-.638.33-1.254v-12.54c0-.66-.11-1.144-.31-1.452-.19-.323-.56-.484-1.1-.484v-.462c.47.044.92.066 1.36.066.6 0 1.18-.022 1.72-.066a13.69 13.69 0 0 0 1.5-.242Zm7.8 5.544c1.07 0 2.01.198 2.82.594.8.396 1.43 1.034 1.89 1.914.45.88.68 2.046.68 3.498 0 1.452-.23 2.618-.68 3.498-.46.865-1.09 1.496-1.89 1.892-.81.396-1.75.594-2.82.594-1.04 0-1.97-.198-2.79-.594-.81-.396-1.45-1.027-1.92-1.892-.45-.88-.68-2.046-.68-3.498 0-1.452.23-2.618.68-3.498.47-.88 1.11-1.518 1.92-1.914.82-.396 1.75-.594 2.79-.594Zm0 .44c-.59 0-1.08.44-1.47 1.32-.4.865-.6 2.281-.6 4.246 0 1.965.2 3.381.6 4.246.39.865.88 1.298 1.47 1.298.6 0 1.09-.433 1.47-1.298.4-.865.6-2.281.6-4.246 0-1.965-.2-3.381-.6-4.246-.38-.88-.87-1.32-1.47-1.32Zm11.79-.132v.462c-.33 0-.61.022-.86.066-.24.029-.4.132-.49.308-.07.176-.04.462.09.858l2.09 6.534-.28.308 2.57-8.558.44.198-3.37 11.242c-.23-.015-.46-.022-.7-.022-.23 0-.48.007-.73.022l-3.47-9.724c-.21-.587-.43-.939-.68-1.056-.24-.117-.44-.176-.6-.176v-.462c.47.044.96.081 1.45.11.52.015 1.08.022 1.68.022.45 0 .93-.015 1.43-.044.51-.029.99-.059 1.43-.088Zm11.48 0v.44c-.28.073-.54.242-.79.506s-.49.726-.71 1.386l-2.92 9.086a11.627 11.627 0 0 0-1.43 0l-3.1-8.47.59-2.97c.26.015.53.022.79.022.28-.015.55-.022.82-.022l3.01 8.888-.24-.242 1.47-4.664c.25-.807.35-1.459.29-1.958-.06-.499-.24-.873-.53-1.122-.29-.249-.69-.396-1.19-.44v-.44l.75.044c.28 0 .55.007.81.022h.71a26.31 26.31 0 0 0 1.67-.066Z"/></g><g filter="url(#e)"><rect width="314" height="240" x="225" y="525" fill="#fff" rx="15"/><rect width="312" height="238" x="226" y="526" stroke="#F1F5F9" stroke-width="2" rx="14"/><path fill="#136A4A" d="M408.667 597h-53.334a6.673 6.673 0 0 0-6.666 6.667v46.666a6.673 6.673 0 0 0 6.666 6.667h53.334a6.673 6.673 0 0 0 6.666-6.667v-46.666a6.673 6.673 0 0 0-6.666-6.667Zm-3.334 13.333V617h-16.666v-6.667h16.666Zm-16.666 13.334h16.666v6.666h-16.666v-6.666Zm-33.334 26.666v-46.666h23.334v46.666h-23.334Zm-6.905 32.091v.44c-.323.117-.66.374-1.012.77-.352.381-.66.997-.924 1.848l-3.872 12.562a2.952 2.952 0 0 0-.374-.022h-.792c-.132 0-.257.007-.374.022l-4.62-13.992c-.147-.455-.33-.763-.55-.924a1.175 1.175 0 0 0-.66-.264v-.44c.411.015.895.029 1.452.044a67.42 67.42 0 0 0 3.498 0 80.573 80.573 0 0 0 1.364-.044v.44c-.44.015-.792.066-1.056.154a.624.624 0 0 0-.44.506c-.029.249.044.645.22 1.188l3.124 9.548-.506.902 2.486-7.898c.352-1.115.521-1.987.506-2.618-.015-.631-.183-1.078-.506-1.342-.323-.279-.785-.425-1.386-.44v-.44c.499.015.968.029 1.408.044.44.015.88.022 1.32.022.337 0 .645-.007.924-.022.293-.015.55-.029.77-.044Zm-15.708 0v.44c-.293.044-.499.154-.616.33-.117.161-.169.381-.154.66.029.264.095.55.198.858l3.366 9.768-.594.792 2.816-8.228.308.594-3.454 10.406a2.952 2.952 0 0 0-.374-.022h-.792c-.132 0-.257.007-.374.022l-4.928-13.772c-.191-.543-.418-.909-.682-1.1-.249-.191-.484-.293-.704-.308v-.44c.44.015.961.029 1.562.044.601.015 1.173.022 1.716.022.587 0 1.107-.007 1.562-.022.469-.015.851-.029 1.144-.044Zm18.336-1.474c.616 0 1.1.154 1.452.462.367.293.55.704.55 1.232s-.183.946-.55 1.254c-.352.293-.836.44-1.452.44s-1.107-.147-1.474-.44c-.352-.308-.528-.726-.528-1.254s.176-.939.528-1.232c.367-.308.858-.462 1.474-.462Zm1.716 5.434v9.57c0 .616.103 1.034.308 1.254.22.22.587.33 1.1.33V698a46.907 46.907 0 0 0-1.232-.044 32.584 32.584 0 0 0-3.432 0c-.587.015-1.027.029-1.32.044v-.462c.513 0 .873-.11 1.078-.33.22-.22.33-.638.33-1.254v-6.93c0-.66-.103-1.144-.308-1.452-.191-.323-.557-.484-1.1-.484v-.462c.469.044.924.066 1.364.066.616 0 1.188-.022 1.716-.066a13.306 13.306 0 0 0 1.496-.242Zm9.931-.066c.47 0 .851.103 1.144.308.294.191.506.44.638.748.147.308.22.631.22.968 0 .543-.161.99-.484 1.342-.308.337-.718.506-1.232.506-.513 0-.916-.125-1.21-.374-.278-.264-.418-.609-.418-1.034 0-.411.088-.748.264-1.012.191-.279.426-.513.704-.704a.985.985 0 0 0-.616.022 1.744 1.744 0 0 0-.792.352 2.373 2.373 0 0 0-.638.682 3.483 3.483 0 0 0-.418.88 2.864 2.864 0 0 0-.154.902v5.83c0 .704.169 1.181.506 1.43.352.249.873.374 1.562.374V698a76.683 76.683 0 0 0-1.474-.044 45.11 45.11 0 0 0-2.024-.044c-.586 0-1.18.015-1.782.044-.601.015-1.056.029-1.364.044v-.462c.514 0 .873-.11 1.078-.33.22-.22.33-.638.33-1.254v-6.93c0-.66-.102-1.144-.308-1.452-.19-.323-.557-.484-1.1-.484v-.462c.47.044.924.066 1.364.066.616 0 1.188-.022 1.716-.066a13.269 13.269 0 0 0 1.496-.242v2.046c.176-.396.411-.755.704-1.078a3.138 3.138 0 0 1 1.012-.748 2.812 2.812 0 0 1 1.276-.286Zm8.077 0c1.291 0 2.303.381 3.036 1.144.734.763 1.1 2.009 1.1 3.74h-7.238l-.044-.418h4.51a10.457 10.457 0 0 0-.132-1.98c-.102-.616-.264-1.107-.484-1.474-.22-.367-.513-.55-.88-.55-.513 0-.953.323-1.32.968-.352.645-.564 1.716-.638 3.212l.066.132-.044.55v.594c0 1.012.14 1.833.418 2.464.294.631.66 1.093 1.1 1.386.44.279.888.418 1.342.418.308 0 .624-.044.946-.132a3.361 3.361 0 0 0 1.012-.528c.338-.264.653-.631.946-1.1l.396.132a5.714 5.714 0 0 1-.836 1.628 4.573 4.573 0 0 1-1.452 1.298c-.586.337-1.29.506-2.112.506-.997 0-1.877-.213-2.64-.638-.762-.425-1.364-1.071-1.804-1.936-.425-.865-.638-1.965-.638-3.3 0-1.364.228-2.501.682-3.41.47-.909 1.108-1.584 1.914-2.024.822-.455 1.753-.682 2.794-.682Zm11.218-5.522c.513 0 .961.066 1.342.198.381.132.719.308 1.012.528.205.161.381.389.528.682.147.279.22.601.22.968 0 .396-.147.748-.44 1.056-.279.308-.653.462-1.122.462-.484 0-.887-.139-1.21-.418-.308-.279-.462-.66-.462-1.144 0-.381.11-.719.33-1.012.22-.293.543-.499.968-.616-.044-.088-.132-.161-.264-.22a1.313 1.313 0 0 0-.528-.088c-.293 0-.535.051-.726.154a1.266 1.266 0 0 0-.462.418c-.161.22-.271.543-.33.968-.059.411-.088 1.049-.088 1.914v2.002h2.354v.44h-2.354v8.646c0 .719.183 1.203.55 1.452.367.235.873.352 1.518.352V698a99.895 99.895 0 0 0-1.606-.044 51.856 51.856 0 0 0-2.178-.044c-.557 0-1.107.015-1.65.044-.528.015-.931.029-1.21.044v-.462c.513 0 .873-.11 1.078-.33.22-.22.33-.638.33-1.254v-8.866h-1.496v-.44h1.496c0-.865.044-1.584.132-2.156.088-.587.235-1.085.44-1.496.205-.411.477-.777.814-1.1.323-.308.748-.565 1.276-.77a4.583 4.583 0 0 1 1.738-.33Zm9.494 5.522c.47 0 .851.103 1.144.308.294.191.506.44.638.748.147.308.22.631.22.968 0 .543-.161.99-.484 1.342-.308.337-.718.506-1.232.506-.513 0-.916-.125-1.21-.374-.278-.264-.418-.609-.418-1.034 0-.411.088-.748.264-1.012.191-.279.426-.513.704-.704a.985.985 0 0 0-.616.022 1.744 1.744 0 0 0-.792.352 2.373 2.373 0 0 0-.638.682 3.483 3.483 0 0 0-.418.88 2.864 2.864 0 0 0-.154.902v5.83c0 .704.169 1.181.506 1.43.352.249.873.374 1.562.374V698a76.683 76.683 0 0 0-1.474-.044 45.11 45.11 0 0 0-2.024-.044c-.586 0-1.18.015-1.782.044-.601.015-1.056.029-1.364.044v-.462c.514 0 .873-.11 1.078-.33.22-.22.33-.638.33-1.254v-6.93c0-.66-.102-1.144-.308-1.452-.19-.323-.557-.484-1.1-.484v-.462c.47.044.924.066 1.364.066.616 0 1.188-.022 1.716-.066a13.269 13.269 0 0 0 1.496-.242v2.046c.176-.396.411-.755.704-1.078a3.138 3.138 0 0 1 1.012-.748 2.812 2.812 0 0 1 1.276-.286Zm5.738 11.836c-.66 0-1.21-.125-1.65-.374-.44-.249-.763-.579-.968-.99a3.148 3.148 0 0 1-.308-1.386c0-.631.139-1.144.418-1.54a3.411 3.411 0 0 1 1.122-.968 8.245 8.245 0 0 1 1.43-.616c.513-.161.997-.315 1.452-.462.469-.161.843-.345 1.122-.55.293-.22.44-.499.44-.836v-1.716c0-.381-.066-.719-.198-1.012a1.365 1.365 0 0 0-.572-.704c-.249-.161-.579-.242-.99-.242-.293 0-.587.044-.88.132a1.523 1.523 0 0 0-.726.396c.411.147.726.374.946.682.235.293.352.631.352 1.012 0 .499-.176.895-.528 1.188-.337.293-.741.44-1.21.44-.528 0-.931-.161-1.21-.484-.264-.337-.396-.741-.396-1.21 0-.425.103-.777.308-1.056a3.74 3.74 0 0 1 .902-.792 5.413 5.413 0 0 1 1.474-.55 8.608 8.608 0 0 1 1.892-.198c.675 0 1.283.073 1.826.22.543.132.997.381 1.364.748.337.337.557.755.66 1.254.103.484.154 1.1.154 1.848v5.984c0 .367.037.623.11.77.073.132.198.198.374.198a.696.696 0 0 0 .374-.11c.132-.073.271-.161.418-.264l.22.374a3.393 3.393 0 0 1-1.078.616 4.23 4.23 0 0 1-1.342.198c-.543 0-.975-.073-1.298-.22-.323-.161-.557-.374-.704-.638a2.041 2.041 0 0 1-.198-.924 4.234 4.234 0 0 1-1.276 1.32c-.499.308-1.107.462-1.826.462Zm1.562-1.408c.293 0 .557-.066.792-.198.249-.147.484-.381.704-.704v-4.51c-.132.22-.315.418-.55.594-.235.176-.484.359-.748.55a7.172 7.172 0 0 0-.77.594c-.235.22-.425.491-.572.814-.147.323-.22.711-.22 1.166 0 .572.125.997.374 1.276s.579.418.99.418Zm14.775-10.428c.616 0 1.114.081 1.496.242.381.147.689.352.924.616.234.279.403.645.506 1.1.102.44.154 1.027.154 1.76v5.918c0 .616.095 1.034.286 1.254.19.22.52.33.99.33V698a46.942 46.942 0 0 0-1.21-.044 28.496 28.496 0 0 0-3.124 0 46.9 46.9 0 0 0-1.166.044v-.462c.396 0 .667-.11.814-.33.161-.22.242-.638.242-1.254v-6.842c0-.367-.03-.682-.088-.946-.059-.279-.176-.491-.352-.638-.162-.161-.411-.242-.748-.242-.382 0-.734.11-1.056.33-.323.22-.587.528-.792.924a2.858 2.858 0 0 0-.286 1.298v6.116c0 .616.08 1.034.242 1.254.161.22.432.33.814.33V698a37.202 37.202 0 0 0-1.1-.044 25.022 25.022 0 0 0-1.496-.044c-.558 0-1.13.015-1.716.044-.587.015-1.027.029-1.32.044v-.462c.513 0 .872-.11 1.078-.33.22-.22.33-.638.33-1.254v-6.93c0-.66-.103-1.144-.308-1.452-.191-.323-.558-.484-1.1-.484v-.462c.469.044.924.066 1.364.066.616 0 1.188-.022 1.716-.066a13.344 13.344 0 0 0 1.496-.242v1.98c.352-.733.828-1.254 1.43-1.562a4.115 4.115 0 0 1 1.98-.484Zm6.622 0c.616 0 1.114.081 1.496.242.381.147.689.352.924.616.234.279.403.645.506 1.1.102.44.154 1.027.154 1.76v5.918c0 .616.102 1.034.308 1.254.22.22.586.33 1.1.33V698a52.354 52.354 0 0 0-1.254-.044 31.798 31.798 0 0 0-1.65-.044c-.528 0-1.049.015-1.562.044a46.9 46.9 0 0 0-1.166.044v-.462c.396 0 .667-.11.814-.33.161-.22.242-.638.242-1.254v-6.842c0-.367-.037-.682-.11-.946-.059-.279-.184-.491-.374-.638-.176-.161-.455-.242-.836-.242-.382 0-.734.117-1.056.352-.323.235-.587.55-.792.946a3.218 3.218 0 0 0-.308 1.32l-.11-1.342c.396-.88.916-1.474 1.562-1.782a4.933 4.933 0 0 1 2.112-.462Zm10.984 0c1.29 0 2.302.381 3.036 1.144.733.763 1.1 2.009 1.1 3.74h-7.238l-.044-.418h4.51c.014-.719-.03-1.379-.132-1.98-.103-.616-.264-1.107-.484-1.474-.22-.367-.514-.55-.88-.55-.514 0-.954.323-1.32.968-.352.645-.565 1.716-.638 3.212l.066.132c-.015.176-.03.359-.044.55v.594c0 1.012.139 1.833.418 2.464.293.631.66 1.093 1.1 1.386.44.279.887.418 1.342.418.308 0 .623-.044.946-.132a3.385 3.385 0 0 0 1.012-.528c.337-.264.652-.631.946-1.1l.396.132a5.74 5.74 0 0 1-.836 1.628 4.594 4.594 0 0 1-1.452 1.298c-.587.337-1.291.506-2.112.506-.998 0-1.878-.213-2.64-.638-.763-.425-1.364-1.071-1.804-1.936-.426-.865-.638-1.965-.638-3.3 0-1.364.227-2.501.682-3.41.469-.909 1.107-1.584 1.914-2.024.821-.455 1.752-.682 2.794-.682Z"/></g><g filter="url(#f)"><rect width="314" height="240" x="563" y="525" fill="#fff" rx="15"/><rect width="312" height="238" x="564" y="526" stroke="#F1F5F9" stroke-width="2" rx="14"/><path fill="#136A4A" d="M750.28 596.713c-3.927-3.93-10.78-3.93-14.707 0l-27.93 27.93a3.328 3.328 0 0 0 0 4.714l10 10a3.327 3.327 0 0 0 4.714 0l27.93-27.93a10.415 10.415 0 0 0-.007-14.714Zm-4.707 10L720 632.287 714.713 627l25.574-25.573a3.819 3.819 0 0 1 5.286.006 3.745 3.745 0 0 1 0 5.28ZM706.667 637c-4.217-2.113-11.667 0-11.667 6.667 0 3.99 1.667 6.666-5 10 0 0 10.833 7.5 18.333 0 4.247-4.247 4.98-13.334-1.666-16.667Zm-14.621 45.424c2.889 0 5.038.66 6.446 1.98 1.408 1.305 2.112 3.183 2.112 5.632 0 1.599-.345 2.999-1.034 4.202-.689 1.188-1.694 2.112-3.014 2.772-1.305.66-2.875.99-4.708.99-.235 0-.543-.007-.924-.022a30.25 30.25 0 0 0-1.188-.022 30.374 30.374 0 0 0-1.1-.022c-.645 0-1.283.007-1.914.022-.616 0-1.107.015-1.474.044v-.44c.469-.029.821-.088 1.056-.176.235-.088.389-.264.462-.528.088-.264.132-.66.132-1.188v-10.912c0-.543-.044-.939-.132-1.188a.734.734 0 0 0-.484-.528c-.235-.103-.579-.161-1.034-.176v-.44c.367.015.858.037 1.474.066.631.015 1.254.015 1.87 0 .528-.015 1.122-.029 1.782-.044a77.407 77.407 0 0 1 1.672-.022Zm-.022.396c-.675 0-1.115.125-1.32.374-.205.249-.308.755-.308 1.518v11c0 .763.103 1.269.308 1.518.22.249.667.374 1.342.374 1.232 0 2.2-.286 2.904-.858.719-.587 1.232-1.437 1.54-2.552.308-1.115.462-2.471.462-4.07 0-1.643-.169-2.999-.506-4.07-.323-1.085-.843-1.892-1.562-2.42-.719-.543-1.672-.814-2.86-.814Zm15.76 3.498c1.291 0 2.303.381 3.036 1.144.733.763 1.1 2.009 1.1 3.74h-7.238l-.044-.418h4.51a10.457 10.457 0 0 0-.132-1.98c-.103-.616-.264-1.107-.484-1.474-.22-.367-.513-.55-.88-.55-.513 0-.953.323-1.32.968-.352.645-.565 1.716-.638 3.212l.066.132-.044.55v.594c0 1.012.139 1.833.418 2.464.293.631.66 1.093 1.1 1.386.44.279.887.418 1.342.418.308 0 .623-.044.946-.132a3.373 3.373 0 0 0 1.012-.528c.337-.264.653-.631.946-1.1l.396.132a5.74 5.74 0 0 1-.836 1.628 4.573 4.573 0 0 1-1.452 1.298c-.587.337-1.291.506-2.112.506-.997 0-1.877-.213-2.64-.638-.763-.425-1.364-1.071-1.804-1.936-.425-.865-.638-1.965-.638-3.3 0-1.364.227-2.501.682-3.41.469-.909 1.107-1.584 1.914-2.024.821-.455 1.753-.682 2.794-.682Zm9.766 0c.616 0 1.151.081 1.606.242.469.147.807.293 1.012.44.499.337.807.117.924-.66h.462c-.029.411-.051.917-.066 1.518a97.216 97.216 0 0 0-.022 2.354h-.462a7.004 7.004 0 0 0-.418-1.606 3.181 3.181 0 0 0-.902-1.298c-.381-.337-.88-.506-1.496-.506-.425 0-.785.125-1.078.374-.293.235-.44.579-.44 1.034 0 .44.132.829.396 1.166a5.75 5.75 0 0 0 1.012.946c.425.293.865.609 1.32.946.484.367.924.733 1.32 1.1.396.352.711.741.946 1.166.235.425.352.931.352 1.518 0 .66-.191 1.239-.572 1.738-.381.484-.887.858-1.518 1.122-.616.264-1.305.396-2.068.396-.44 0-.836-.044-1.188-.132a4.086 4.086 0 0 1-.88-.33 15.645 15.645 0 0 0-.55-.242 4.327 4.327 0 0 0-.462-.22c-.147-.044-.279.007-.396.154-.103.147-.183.352-.242.616h-.462c.029-.469.051-1.041.066-1.716.015-.675.022-1.569.022-2.684h.462c.088.792.249 1.496.484 2.112.235.601.55 1.078.946 1.43.411.337.924.506 1.54.506.249 0 .491-.051.726-.154.235-.103.425-.271.572-.506.161-.235.242-.535.242-.902 0-.645-.213-1.181-.638-1.606a14.93 14.93 0 0 0-1.584-1.386 58.327 58.327 0 0 1-1.342-1.122 5.635 5.635 0 0 1-1.012-1.232 3.011 3.011 0 0 1-.396-1.54c0-.66.176-1.217.528-1.672a3.131 3.131 0 0 1 1.386-1.012 4.983 4.983 0 0 1 1.87-.352Zm8.666-5.368c.616 0 1.1.154 1.452.462.367.293.55.704.55 1.232s-.183.946-.55 1.254c-.352.293-.836.44-1.452.44s-1.107-.147-1.474-.44c-.352-.308-.528-.726-.528-1.254s.176-.939.528-1.232c.367-.308.858-.462 1.474-.462Zm1.716 5.434v9.57c0 .616.103 1.034.308 1.254.22.22.587.33 1.1.33V698a46.907 46.907 0 0 0-1.232-.044 32.584 32.584 0 0 0-3.432 0c-.587.015-1.027.029-1.32.044v-.462c.513 0 .873-.11 1.078-.33.22-.22.33-.638.33-1.254v-6.93c0-.66-.103-1.144-.308-1.452-.191-.323-.557-.484-1.1-.484v-.462c.469.044.924.066 1.364.066.616 0 1.188-.022 1.716-.066a13.306 13.306 0 0 0 1.496-.242Zm6.632 15.752c-.91 0-1.724-.081-2.442-.242-.704-.147-1.262-.381-1.672-.704-.396-.308-.594-.689-.594-1.144 0-.455.205-.865.616-1.232.41-.352 1.019-.631 1.826-.836l.198.352c-.279.22-.484.455-.616.704a1.973 1.973 0 0 0-.176.814c0 .616.278 1.085.836 1.408.572.337 1.342.506 2.31.506.66 0 1.246-.088 1.76-.264.528-.176.938-.44 1.232-.792.308-.352.462-.785.462-1.298 0-.44-.162-.814-.484-1.122-.323-.293-.968-.44-1.936-.44h-1.364c-.602 0-1.13-.066-1.584-.198-.44-.132-.785-.337-1.034-.616-.25-.293-.374-.66-.374-1.1 0-.616.242-1.159.726-1.628.484-.469 1.202-.909 2.156-1.32l.22.176a7.753 7.753 0 0 0-.792.572.917.917 0 0 0-.352.748c0 .469.293.704.88.704h2.398c.806 0 1.525.095 2.156.286.645.191 1.151.506 1.518.946.381.425.572.983.572 1.672 0 .719-.235 1.386-.704 2.002-.455.616-1.159 1.107-2.112 1.474-.954.381-2.164.572-3.63.572Zm.22-8.822c-.836 0-1.584-.125-2.244-.374-.66-.249-1.181-.631-1.562-1.144-.382-.513-.572-1.173-.572-1.98 0-.807.19-1.467.572-1.98.381-.528.902-.909 1.562-1.144.66-.249 1.408-.374 2.244-.374.836 0 1.584.125 2.244.374.66.235 1.18.616 1.562 1.144.381.513.572 1.173.572 1.98 0 .807-.191 1.467-.572 1.98-.382.513-.902.895-1.562 1.144-.66.249-1.408.374-2.244.374Zm0-.396c.396 0 .704-.22.924-.66.22-.455.33-1.269.33-2.442 0-1.173-.11-1.98-.33-2.42-.22-.455-.528-.682-.924-.682-.382 0-.69.227-.924.682-.22.44-.33 1.247-.33 2.42 0 1.173.11 1.987.33 2.442.234.44.542.66.924.66Zm3.432-4.708-.44-.154a3.294 3.294 0 0 1 1.056-1.43c.498-.381 1.034-.572 1.606-.572.469 0 .821.132 1.056.396.249.249.374.579.374.99 0 .44-.118.77-.352.99a1.174 1.174 0 0 1-.792.308c-.25 0-.484-.088-.704-.264-.206-.176-.323-.44-.352-.792-.03-.367.095-.836.374-1.408l.154.132c-.558.205-.976.447-1.254.726-.279.264-.521.623-.726 1.078Zm12.424-1.892c.616 0 1.114.081 1.496.242.396.147.704.352.924.616.234.279.403.638.506 1.078.117.44.176 1.034.176 1.782v5.918c0 .616.102 1.034.308 1.254.22.22.586.33 1.1.33V698a52.354 52.354 0 0 0-1.254-.044 31.798 31.798 0 0 0-3.3 0c-.528.015-.932.029-1.21.044v-.462c.44 0 .748-.11.924-.33.176-.22.264-.638.264-1.254v-6.842c0-.367-.037-.682-.11-.946-.074-.279-.206-.491-.396-.638-.191-.161-.477-.242-.858-.242-.396 0-.763.11-1.1.33-.323.22-.587.528-.792.924a2.858 2.858 0 0 0-.286 1.298v6.116c0 .616.088 1.034.264 1.254.19.22.498.33.924.33V698a47.1 47.1 0 0 0-1.166-.044 26.946 26.946 0 0 0-1.562-.044c-.558 0-1.13.015-1.716.044-.587.015-1.027.029-1.32.044v-.462c.513 0 .872-.11 1.078-.33.22-.22.33-.638.33-1.254v-6.93c0-.66-.103-1.144-.308-1.452-.191-.323-.558-.484-1.1-.484v-.462c.469.044.924.066 1.364.066.616 0 1.188-.022 1.716-.066a13.344 13.344 0 0 0 1.496-.242v1.98c.366-.748.865-1.276 1.496-1.584.63-.308 1.334-.462 2.112-.462Z"/></g><g filter="url(#g)"><rect width="314" height="240" x="901" y="525" fill="#fff" rx="15"/><rect width="312" height="238" x="902" y="526" stroke="#F1F5F9" stroke-width="2" rx="14"/><path fill="#136A4A" d="M1085.17 597h-43.34c-3.67 0-6.66 2.99-6.66 6.667v6.666h-3.34c-3.67 0-6.66 2.99-6.66 6.667v33.333c0 3.677 2.99 6.667 6.66 6.667h20c3.68 0 6.67-2.99 6.67-6.667h26.67c3.67 0 6.66-2.99 6.66-6.666v-40c0-3.677-2.99-6.667-6.66-6.667Zm-33.35 53.333h-19.99V617h20l-.01 33.333Zm33.34-6.666h-26.66V617a6.674 6.674 0 0 0-6.67-6.667h-10v-6.666h43.34l-.01 40Zm-76.41 38.757a94.824 94.824 0 0 0 3.34.066c.71 0 1.39-.007 2.05-.022.66-.015 1.13-.022 1.41-.022 2.03 0 3.56.403 4.57 1.21 1.01.807 1.52 1.848 1.52 3.124 0 .528-.1 1.085-.31 1.672-.2.572-.56 1.107-1.05 1.606-.49.484-1.16.88-2.01 1.188-.85.308-1.92.462-3.21.462h-2.24v-.44h2.02c.87 0 1.52-.198 1.96-.594.45-.396.76-.917.92-1.562.18-.645.27-1.342.27-2.09 0-1.393-.21-2.435-.62-3.124-.41-.689-1.11-1.034-2.11-1.034-.57 0-.95.125-1.12.374-.16.249-.24.755-.24 1.518v10.78c0 .572.05.997.17 1.276.12.279.35.462.68.55.34.088.84.139 1.5.154V698c-.45-.015-1.04-.029-1.76-.044-.72-.015-1.47-.022-2.27-.022-.63 0-1.24.007-1.84.022-.61.015-1.15.029-1.63.044v-.44c.47-.029.82-.088 1.05-.176.24-.088.39-.264.47-.528.08-.264.13-.66.13-1.188v-10.912c0-.543-.05-.939-.13-1.188a.754.754 0 0 0-.49-.528c-.23-.103-.58-.161-1.03-.176v-.44Zm21.44 3.894c.47 0 .85.103 1.14.308.3.191.51.44.64.748.15.308.22.631.22.968 0 .543-.16.99-.48 1.342-.31.337-.72.506-1.23.506-.52 0-.92-.125-1.21-.374-.28-.264-.42-.609-.42-1.034 0-.411.09-.748.26-1.012.19-.279.43-.513.71-.704a.997.997 0 0 0-.62.022c-.28.044-.54.161-.79.352a2.42 2.42 0 0 0-.64.682c-.18.264-.32.557-.42.88-.1.308-.15.609-.15.902v5.83c0 .704.17 1.181.5 1.43.36.249.88.374 1.57.374V698c-.34-.015-.83-.029-1.48-.044-.64-.029-1.32-.044-2.02-.044-.59 0-1.18.015-1.78.044-.61.015-1.06.029-1.37.044v-.462c.52 0 .87-.11 1.08-.33.22-.22.33-.638.33-1.254v-6.93c0-.66-.1-1.144-.31-1.452-.19-.323-.56-.484-1.1-.484v-.462c.47.044.93.066 1.37.066.61 0 1.18-.022 1.71-.066a13.69 13.69 0 0 0 1.5-.242v2.046c.17-.396.41-.755.7-1.078.3-.323.63-.572 1.01-.748a2.85 2.85 0 0 1 1.28-.286Zm8.08 0c1.07 0 2.01.198 2.81.594.81.396 1.44 1.034 1.89 1.914.46.88.69 2.046.69 3.498 0 1.452-.23 2.618-.69 3.498-.45.865-1.08 1.496-1.89 1.892-.8.396-1.74.594-2.81.594-1.04 0-1.98-.198-2.8-.594-.8-.396-1.44-1.027-1.91-1.892-.46-.88-.68-2.046-.68-3.498 0-1.452.22-2.618.68-3.498.47-.88 1.11-1.518 1.91-1.914.82-.396 1.76-.594 2.8-.594Zm0 .44c-.59 0-1.08.44-1.48 1.32-.39.865-.59 2.281-.59 4.246 0 1.965.2 3.381.59 4.246.4.865.89 1.298 1.48 1.298.6 0 1.09-.433 1.47-1.298.4-.865.59-2.281.59-4.246 0-1.965-.19-3.381-.59-4.246-.38-.88-.87-1.32-1.47-1.32Zm11.23-3.74v3.608h2.59v.44h-2.59v8.888c0 .44.08.755.24.946.16.176.4.264.72.264.27 0 .53-.095.8-.286.26-.205.49-.55.7-1.034l.37.198c-.23.66-.59 1.203-1.07 1.628-.47.425-1.12.638-1.94.638-.48 0-.91-.066-1.28-.198a2.287 2.287 0 0 1-.92-.55 2.357 2.357 0 0 1-.64-1.188c-.1-.484-.15-1.107-.15-1.87v-7.436h-1.85v-.44h1.85v-2.904c.61 0 1.18-.051 1.69-.154a5.638 5.638 0 0 0 1.48-.55Zm8.85 3.3c1.08 0 2.01.198 2.82.594.81.396 1.44 1.034 1.89 1.914.46.88.68 2.046.68 3.498 0 1.452-.22 2.618-.68 3.498-.45.865-1.08 1.496-1.89 1.892-.81.396-1.74.594-2.82.594-1.04 0-1.97-.198-2.79-.594-.81-.396-1.44-1.027-1.91-1.892-.46-.88-.69-2.046-.69-3.498 0-1.452.23-2.618.69-3.498.47-.88 1.1-1.518 1.91-1.914.82-.396 1.75-.594 2.79-.594Zm0 .44c-.58 0-1.07.44-1.47 1.32-.4.865-.59 2.281-.59 4.246 0 1.965.19 3.381.59 4.246.4.865.89 1.298 1.47 1.298.61 0 1.1-.433 1.48-1.298.39-.865.59-2.281.59-4.246 0-1.965-.2-3.381-.59-4.246-.38-.88-.87-1.32-1.48-1.32Zm11.23-3.74v3.608h2.6v.44h-2.6v8.888c0 .44.08.755.25.946.16.176.4.264.72.264.27 0 .53-.095.79-.286.27-.205.5-.55.71-1.034l.37.198c-.23.66-.59 1.203-1.08 1.628-.47.425-1.11.638-1.93.638-.49 0-.91-.066-1.28-.198a2.287 2.287 0 0 1-.92-.55 2.357 2.357 0 0 1-.64-1.188c-.1-.484-.15-1.107-.15-1.87v-7.436h-1.85v-.44h1.85v-2.904c.61 0 1.18-.051 1.69-.154a5.442 5.442 0 0 0 1.47-.55Zm14.03 3.608v.44c-.28.073-.54.249-.79.528-.25.264-.49.719-.73 1.364l-3.1 8.712-.81 1.54-4.8-10.89c-.25-.572-.5-.917-.75-1.034-.23-.132-.44-.198-.61-.198v-.462c.48.044.98.081 1.49.11.53.015 1.04.022 1.52.022.6 0 1.15-.015 1.65-.044.5-.029.97-.059 1.41-.088v.462c-.3 0-.57.022-.84.066-.25.029-.42.132-.53.308-.08.161-.04.447.14.858l2.77 6.688-.2.132 1.63-4.554c.28-.792.39-1.437.35-1.936-.04-.513-.21-.895-.48-1.144-.28-.264-.66-.411-1.15-.44v-.44l.73.044c.25 0 .5.007.75.022h.66a26.31 26.31 0 0 0 1.69-.066Zm-4.62 11.044-.84 2.354c-.14.367-.3.675-.46.924-.14.264-.31.477-.5.638-.21.176-.47.308-.8.396-.32.103-.69.154-1.12.154-.35 0-.72-.059-1.1-.176a2.173 2.173 0 0 1-.92-.572c-.25-.264-.38-.601-.38-1.012 0-.455.17-.821.49-1.1.32-.264.75-.396 1.27-.396.49 0 .88.117 1.19.352.31.235.46.579.46 1.034 0 .293-.09.572-.28.836-.18.264-.45.462-.82.594.08.015.17.022.27.022h.24c.44 0 .83-.139 1.17-.418.33-.279.61-.719.83-1.32l.77-2.266.53-.044Zm9.76-11.286v13.42c0 .689.17 1.144.53 1.364.35.235.83.352 1.45.352v.462l-1.59-.066c-.66-.015-1.36-.022-2.11-.022-.54 0-1.08.007-1.6.022l-1.17.066v-.462c.48 0 .82-.103 1.01-.308.21-.205.31-.601.31-1.188v-11c0-.66-.1-1.144-.31-1.452-.2-.323-.57-.484-1.1-.484v-.462c.47.044.93.066 1.37.066.6 0 1.17-.022 1.71-.066.55-.059 1.04-.139 1.5-.242Zm3.41-.066a3.4 3.4 0 0 1 2 .616c.59.396 1.06 1.005 1.41 1.826.35.807.53 1.819.53 3.036 0 1.071-.13 2.009-.38 2.816-.23.807-.58 1.489-1.03 2.046-.44.543-.98.953-1.61 1.232-.61.279-1.31.418-2.09.418-.57 0-1.09-.103-1.56-.308-.47-.191-.83-.469-1.08-.836l.22-.286c.15.264.35.469.62.616.28.147.59.22.94.22.66 0 1.19-.22 1.57-.66.38-.455.65-1.085.81-1.892.18-.821.26-1.797.26-2.926 0-1.261-.08-2.251-.24-2.97-.16-.719-.38-1.232-.66-1.54-.28-.308-.61-.462-1.01-.462-.53 0-1.01.205-1.45.616-.43.411-.67.997-.73 1.76l-.11-.77c.27-.836.71-1.467 1.34-1.892.65-.44 1.4-.66 2.25-.66Zm10.97 0c1.29 0 2.3.381 3.03 1.144.74.763 1.1 2.009 1.1 3.74h-7.23l-.05-.418h4.51c.02-.719-.03-1.379-.13-1.98-.1-.616-.26-1.107-.48-1.474-.22-.367-.52-.55-.88-.55-.52 0-.96.323-1.32.968-.36.645-.57 1.716-.64 3.212l.06.132c-.01.176-.03.359-.04.55v.594c0 1.012.14 1.833.42 2.464.29.631.66 1.093 1.1 1.386.44.279.89.418 1.34.418.31 0 .62-.044.95-.132.33-.103.67-.279 1.01-.528.34-.264.65-.631.94-1.1l.4.132c-.18.557-.45 1.1-.84 1.628-.38.528-.86.961-1.45 1.298-.58.337-1.29.506-2.11.506-1 0-1.88-.213-2.64-.638-.76-.425-1.36-1.071-1.8-1.936-.43-.865-.64-1.965-.64-3.3 0-1.364.23-2.501.68-3.41.47-.909 1.11-1.584 1.91-2.024.83-.455 1.76-.682 2.8-.682Z"/></g><defs><filter id="b" width="434.8" height="360.8" x="164.6" y="199.6" color-interpolation-filters="sRGB" filterUnits="userSpaceOnUse"><feFlood flood-opacity="0" result="BackgroundImageFix"/><feColorMatrix in="SourceAlpha" result="hardAlpha" values="0 0 0 0 0 0 0 0 0 0 0 0 0 0 0 0 0 0 127 0"/><feMorphology in="SourceAlpha" radius="12" result="effect1_dropShadow_15_147"/><feOffset dy="17"/><feGaussianBlur stdDeviation="36.2"/><feComposite in2="hardAlpha" operator="out"/><feColorMatrix values="0 0 0 0 0.788916 0 0 0 0 0.782278 0 0 0 0 0.783209 0 0 0 0.22 0"/><feBlend in2="BackgroundImageFix" result="effect1_dropShadow_15_147"/><feBlend in="SourceGraphic" in2="effect1_dropShadow_15_147" result="shape"/></filter><filter id="c" width="434.8" height="360.8" x="502.6" y="199.6" color-interpolation-filters="sRGB" filterUnits="userSpaceOnUse"><feFlood flood-opacity="0" result="BackgroundImageFix"/><feColorMatrix in="SourceAlpha" result="hardAlpha" values="0 0 0 0 0 0 0 0 0 0 0 0 0 0 0 0 0 0 127 0"/><feMorphology in="SourceAlpha" radius="12" result="effect1_dropShadow_15_147"/><feOffset dy="17"/><feGaussianBlur stdDeviation="36.2"/><feComposite in2="hardAlpha" operator="out"/><feColorMatrix values="0 0 0 0 0.788916 0 0 0 0 0.782278 0 0 0 0 0.783209 0 0 0 0.22 0"/><feBlend in2="BackgroundImageFix" result="effect1_dropShadow_15_147"/><feBlend in="SourceGraphic" in2="effect1_dropShadow_15_147" result="shape"/></filter><filter id="d" width="434.8" height="360.8" x="840.6" y="199.6" color-interpolation-filters="sRGB" filterUnits="userSpaceOnUse"><feFlood flood-opacity="0" result="BackgroundImageFix"/><feColorMatrix in="SourceAlpha" result="hardAlpha" values="0 0 0 0 0 0 0 0 0 0 0 0 0 0 0 0 0 0 127 0"/><feMorphology in="SourceAlpha" radius="12" result="effect1_dropShadow_15_147"/><feOffset dy="17"/><feGaussianBlur stdDeviation="36.2"/><feComposite in2="hardAlpha" operator="out"/><feColorMatrix values="0 0 0 0 0.788916 0 0 0 0 0.782278 0 0 0 0 0.783209 0 0 0 0.22 0"/><feBlend in2="BackgroundImageFix" result="effect1_dropShadow_15_147"/><feBlend in="SourceGraphic" in2="effect1_dropShadow_15_147" result="shape"/></filter><filter id="e" width="434.8" height="360.8" x="164.6" y="481.6" color-interpolation-filters="sRGB" filterUnits="userSpaceOnUse"><feFlood flood-opacity="0" result="BackgroundImageFix"/><feColorMatrix in="SourceAlpha" result="hardAlpha" values="0 0 0 0 0 0 0 0 0 0 0 0 0 0 0 0 0 0 127 0"/><feMorphology in="SourceAlpha" radius="12" result="effect1_dropShadow_15_147"/><feOffset dy="17"/><feGaussianBlur stdDeviation="36.2"/><feComposite in2="hardAlpha" operator="out"/><feColorMatrix values="0 0 0 0 0.788916 0 0 0 0 0.782278 0 0 0 0 0.783209 0 0 0 0.22 0"/><feBlend in2="BackgroundImageFix" result="effect1_dropShadow_15_147"/><feBlend in="SourceGraphic" in2="effect1_dropShadow_15_147" result="shape"/></filter><filter id="f" width="434.8" height="360.8" x="502.6" y="481.6" color-interpolation-filters="sRGB" filterUnits="userSpaceOnUse"><feFlood flood-opacity="0" result="BackgroundImageFix"/><feColorMatrix in="SourceAlpha" result="hardAlpha" values="0 0 0 0 0 0 0 0 0 0 0 0 0 0 0 0 0 0 127 0"/><feMorphology in="SourceAlpha" radius="12" result="effect1_dropShadow_15_147"/><feOffset dy="17"/><feGaussianBlur stdDeviation="36.2"/><feComposite in2="hardAlpha" operator="out"/><feColorMatrix values="0 0 0 0 0.788916 0 0 0 0 0.782278 0 0 0 0 0.783209 0 0 0 0.22 0"/><feBlend in2="BackgroundImageFix" result="effect1_dropShadow_15_147"/><feBlend in="SourceGraphic" in2="effect1_dropShadow_15_147" result="shape"/></filter><filter id="g" width="434.8" height="360.8" x="840.6" y="481.6" color-interpolation-filters="sRGB" filterUnits="userSpaceOnUse"><feFlood flood-opacity="0" result="BackgroundImageFix"/><feColorMatrix in="SourceAlpha" result="hardAlpha" values="0 0 0 0 0 0 0 0 0 0 0 0 0 0 0 0 0 0 127 0"/><feMorphology in="SourceAlpha" radius="12" result="effect1_dropShadow_15_147"/><feOffset dy="17"/><feGaussianBlur stdDeviation="36.2"/><feComposite in2="hardAlpha" operator="out"/><feColorMatrix values="0 0 0 0 0.788916 0 0 0 0 0.782278 0 0 0 0 0.783209 0 0 0 0.22 0"/><feBlend in2="BackgroundImageFix" result="effect1_dropShadow_15_147"/><feBlend in="SourceGraphic" in2="effect1_dropShadow_15_147" result="shape"/></filter><linearGradient id="a" x1="-11" x2="1440" y1="508.5" y2="500" gradientUnits="userSpaceOnUse"><stop stop-color="#FDFCFF"/><stop offset=".551" stop-color="#F1FFFC" stop-opacity=".449"/><stop offset="1" stop-color="#F4F2FF" stop-opacity="0"/></linearGradient></defs></svg>